<svg width="270" height="121" viewBox="0 0 270 121" fill="none" xmlns="http://www.w3.org/2000/svg">
<rect x="67" y="58" width="203" height="63" rx="16" fill="#4576FC"/>
<path d="M170.211 104.797C169.972 104.797 169.75 104.737 169.547 104.617C169.344 104.497 169.183 104.339 169.063 104.141C168.948 103.938 168.894 103.719 168.899 103.484C168.894 103.25 168.948 103.034 169.063 102.836C169.183 102.638 169.344 102.482 169.547 102.367C169.75 102.247 169.972 102.188 170.211 102.188C170.435 102.188 170.646 102.247 170.844 102.367C171.047 102.482 171.209 102.638 171.328 102.836C171.448 103.034 171.508 103.25 171.508 103.484C171.508 103.719 171.448 103.938 171.328 104.141C171.209 104.339 171.047 104.497 170.844 104.617C170.646 104.737 170.435 104.797 170.211 104.797Z" fill="white"/>
<path d="M167.555 104.438H154.539V102.797H157.445V99.3203C156.883 98.9818 156.448 98.5651 156.141 98.0703C155.833 97.5703 155.68 97.0104 155.68 96.3906C155.68 95.6354 155.909 94.9688 156.367 94.3906C156.826 93.8125 157.458 93.3646 158.266 93.0469C159.078 92.724 159.997 92.5625 161.023 92.5625C162.044 92.5625 162.958 92.724 163.766 93.0469C164.578 93.3646 165.216 93.8125 165.68 94.3906C166.143 94.9688 166.378 95.6354 166.383 96.3906C166.378 96.9948 166.224 97.5443 165.922 98.0391C165.625 98.5286 165.206 98.9427 164.664 99.2812V102.797H167.555V104.438ZM161.023 94.1406C160.346 94.1406 159.753 94.2292 159.242 94.4062C158.737 94.5833 158.344 94.8411 158.062 95.1797C157.786 95.513 157.648 95.9167 157.648 96.3906C157.648 96.849 157.786 97.2474 158.062 97.5859C158.344 97.9245 158.74 98.1849 159.25 98.3672C159.76 98.5495 160.352 98.6406 161.023 98.6406C161.69 98.6406 162.279 98.5495 162.789 98.3672C163.299 98.1849 163.695 97.9245 163.977 97.5859C164.263 97.2474 164.409 96.849 164.414 96.3906C164.409 95.9219 164.266 95.5182 163.984 95.1797C163.703 94.8411 163.307 94.5833 162.797 94.4062C162.286 94.2292 161.695 94.1406 161.023 94.1406ZM162.648 102.797V100.039C162.112 100.138 161.57 100.188 161.023 100.188C160.44 100.188 159.904 100.138 159.414 100.039V102.797H162.648Z" fill="white"/>
<path d="M153.039 106.094H151.133V91.875H153.039V106.094ZM150.07 105.438H148.195V98.7188H147.047C146.99 99.6458 146.823 100.445 146.547 101.117C146.276 101.789 145.917 102.305 145.469 102.664C145.021 103.023 144.508 103.203 143.93 103.203C143.31 103.203 142.766 102.995 142.297 102.578C141.833 102.161 141.474 101.565 141.219 100.789C140.964 100.008 140.836 99.0885 140.836 98.0312C140.836 96.9792 140.964 96.0677 141.219 95.2969C141.474 94.5208 141.833 93.9271 142.297 93.5156C142.766 93.099 143.31 92.8906 143.93 92.8906C144.497 92.8906 145 93.0599 145.438 93.3984C145.88 93.737 146.237 94.2266 146.508 94.8672C146.784 95.5026 146.958 96.2604 147.031 97.1406H148.195V92.0781H150.07V105.438ZM143.93 94.7656C143.523 94.7656 143.211 95.0417 142.992 95.5938C142.779 96.1458 142.674 96.9583 142.68 98.0312C142.674 99.1094 142.779 99.9245 142.992 100.477C143.211 101.023 143.523 101.292 143.93 101.281C144.341 101.292 144.659 101.023 144.883 100.477C145.112 99.9245 145.227 99.1094 145.227 98.0312C145.227 96.9583 145.112 96.1458 144.883 95.5938C144.659 95.0417 144.341 94.7656 143.93 94.7656Z" fill="white"/>
<path d="M138.789 106.125H136.774V91.875H138.789V106.125ZM131.07 92.875C131.784 92.875 132.422 93.0833 132.985 93.5C133.552 93.9167 133.998 94.5078 134.32 95.2734C134.643 96.0391 134.805 96.9271 134.805 97.9375C134.805 98.9583 134.643 99.8542 134.32 100.625C133.998 101.391 133.552 101.982 132.985 102.398C132.422 102.81 131.784 103.016 131.07 103.016C130.341 103.016 129.69 102.81 129.117 102.398C128.544 101.982 128.096 101.391 127.774 100.625C127.456 99.8542 127.3 98.9583 127.305 97.9375C127.3 96.9271 127.456 96.0391 127.774 95.2734C128.096 94.5078 128.544 93.9167 129.117 93.5C129.69 93.0833 130.341 92.875 131.07 92.875ZM131.07 94.6719C130.701 94.6719 130.375 94.7995 130.094 95.0547C129.818 95.3047 129.604 95.6745 129.453 96.1641C129.302 96.6536 129.227 97.2448 129.227 97.9375C129.227 98.6354 129.302 99.2292 129.453 99.7188C129.604 100.208 129.818 100.578 130.094 100.828C130.375 101.078 130.701 101.203 131.07 101.203C131.435 101.203 131.753 101.078 132.024 100.828C132.294 100.573 132.505 100.201 132.656 99.7109C132.807 99.2214 132.883 98.6302 132.883 97.9375C132.883 97.25 132.807 96.6615 132.656 96.1719C132.505 95.6771 132.292 95.3047 132.016 95.0547C131.745 94.7995 131.43 94.6719 131.07 94.6719Z" fill="white"/>
<path d="M126.023 99.0938H120.523V100H124.445V103.641H116.523V104.5H124.82V106H114.57V102.234H122.477V101.5H114.555V100H118.523V99.0938H113.055V97.5156H126.023V99.0938ZM124.383 96.7656H114.664V92.2812H124.383V96.7656ZM116.617 95.2344H122.398V93.8281H116.617V95.2344Z" fill="white"/>
<path d="M107.227 94.4375V94.6562C107.216 95.6094 107.188 96.4766 107.141 97.2578C107.094 98.0339 106.992 98.9115 106.836 99.8906L104.867 99.7344C105.008 98.8177 105.102 97.9922 105.148 97.2578C105.195 96.5234 105.224 95.7344 105.234 94.8906H99.8516V93.2969H107.227V94.4375ZM103.68 101.5C105.227 101.438 106.602 101.328 107.805 101.172L107.93 102.656C106.732 102.859 105.474 103 104.156 103.078C102.839 103.151 101.461 103.188 100.023 103.188H99.2891L99.1016 101.594H99.7578L101.711 101.562V97.375H103.68V101.5ZM110.492 97.5938H112.43V99.25H110.492V106.094H108.477V91.875H110.492V97.5938Z" fill="white"/>
<path d="M97.3828 99.0312H95.3984V97.9375H92.1484V96.4219H95.3984V95.1719H92.2969C91.8646 96.2344 91.1432 97.112 90.1328 97.8047C89.1224 98.4974 87.8255 99.0156 86.2422 99.3594L85.5703 97.7344C87.1484 97.4219 88.3464 96.9505 89.1641 96.3203C89.9818 95.6849 90.4583 94.9219 90.5938 94.0312H86.3672V92.4219H92.8047C92.8047 92.8542 92.7734 93.2656 92.7109 93.6562H95.3984V91.875H97.3828V99.0312ZM97.3828 103.438H89.9453V104.375H97.6953V105.953H87.9453V101.969H95.3828V101.109H87.9297V99.5469H97.3828V103.438Z" fill="white"/>
<path d="M251.43 81.4844H238.43V79.8906H251.43V81.4844ZM250.008 78.7344H240.008V73.3906H249.867V74.9844H241.992V77.1406H250.008V78.7344ZM250.086 86.8281H239.992V82.5938H241.961V85.2344H250.086V86.8281Z" fill="white"/>
<path d="M231.852 80.875H225.023V74.0469H231.852V80.875ZM226.992 79.3125H229.883V75.6406H226.992V79.3125ZM235.883 76.9688H237.805V78.6094H235.883V83.25H233.883V72.875H235.883V76.9688ZM236.398 86.8438H226.664V82.2344H228.648V85.25H236.398V86.8438Z" fill="white"/>
<path d="M219.07 80.6562H217.086V77.6875H214.836V76.0625H217.086V72.875H219.07V80.6562ZM211.555 82.5469H217.086V81.2031H219.07V86.9375H209.586V81.2031H211.555V82.5469ZM217.086 85.3438V84.0781H211.555V85.3438H217.086ZM215.289 75.1406H212.469C212.5 75.6875 212.638 76.2188 212.883 76.7344C213.133 77.25 213.495 77.7135 213.969 78.125C214.448 78.5365 215.034 78.8542 215.727 79.0781L214.742 80.6094C213.971 80.3542 213.31 79.9844 212.758 79.5C212.211 79.0156 211.779 78.4453 211.461 77.7891C211.138 78.5234 210.688 79.1615 210.109 79.7031C209.531 80.2396 208.836 80.6406 208.023 80.9062L207.008 79.3438C207.727 79.1042 208.333 78.7682 208.828 78.3359C209.328 77.8984 209.708 77.4062 209.969 76.8594C210.234 76.3125 210.385 75.7396 210.422 75.1406H207.57V73.5156H215.289V75.1406Z" fill="white"/>
<path d="M205.164 81.4375H203.164V72.875H205.164V81.4375ZM205.164 87.0938H203.164V83.6562H195.383V82.0625H205.164V87.0938ZM201.664 75.2969H198.805C198.81 75.875 198.935 76.4349 199.18 76.9766C199.43 77.5182 199.807 78.0026 200.312 78.4297C200.823 78.8568 201.451 79.1823 202.195 79.4062L201.18 80.9531C200.404 80.7135 199.732 80.3516 199.164 79.8672C198.596 79.3828 198.148 78.8099 197.82 78.1484C197.487 78.8672 197.029 79.4922 196.445 80.0234C195.862 80.5495 195.164 80.9479 194.352 81.2188L193.32 79.6719C194.07 79.4271 194.703 79.0781 195.219 78.625C195.74 78.1667 196.128 77.651 196.383 77.0781C196.638 76.5 196.768 75.9062 196.773 75.2969H193.852V73.7031H201.664V75.2969Z" fill="white"/>
<path d="M186.961 78.3281H188.977V79.9688H186.961V87.0625H184.961V72.875H186.961V78.3281ZM183.164 74.3281C183.154 76.5938 182.643 78.5964 181.633 80.3359C180.628 82.0703 178.987 83.4948 176.711 84.6094L175.586 83.0781C177.279 82.2292 178.578 81.224 179.484 80.0625C180.396 78.901 180.945 77.5312 181.133 75.9531H176.398V74.3281H183.164Z" fill="white"/>
<path d="M166.352 77.2031C166.352 78.3646 166.578 79.4271 167.031 80.3906C167.49 81.3542 168.195 82.0938 169.148 82.6094L168.055 84.0625C167.435 83.7448 166.906 83.3125 166.469 82.7656C166.031 82.2188 165.685 81.5859 165.43 80.8672C165.169 81.6536 164.82 82.349 164.383 82.9531C163.945 83.5573 163.414 84.0417 162.789 84.4062L161.648 82.9062C162.612 82.349 163.32 81.5599 163.773 80.5391C164.232 79.5182 164.466 78.4062 164.477 77.2031V76.875H162.18V75.2812H164.477V73.3594H166.336V75.2812H168.586V76.875H166.352V77.2031ZM174.211 87.0938H172.32V72.875H174.211V87.0938ZM171.305 86.4375H169.43V79.8906H167.758V78.2656H169.43V73.1094H171.305V86.4375Z" fill="white"/>
<path d="M153.336 76.75C153.331 77.4948 153.458 78.2422 153.719 78.9922C153.984 79.7422 154.38 80.4297 154.906 81.0547C155.432 81.6745 156.07 82.1562 156.82 82.5L155.711 84.0625C154.94 83.7083 154.271 83.1953 153.703 82.5234C153.135 81.8464 152.688 81.0651 152.359 80.1797C152.031 81.1536 151.573 82.0104 150.984 82.75C150.401 83.4896 149.711 84.0469 148.914 84.4219L147.758 82.8438C148.518 82.4896 149.167 81.987 149.703 81.3359C150.24 80.6797 150.643 79.9531 150.914 79.1562C151.19 78.3594 151.331 77.5573 151.336 76.75V75.875H148.32V74.25H156.195V75.875H153.336V76.75ZM159.305 78.2969H161.398V79.9688H159.305V87.0938H157.305V72.875H159.305V78.2969Z" fill="white"/>
<path d="M142.164 81.7969H132.102V73.9219H142.055V75.5312H134.133V77.0312H141.727V78.5938H134.133V80.2188H142.164V81.7969ZM143.586 85.4375H130.57V83.8125H143.586V85.4375Z" fill="white"/>
<path d="M128.649 87.125H126.633V72.875H128.649V87.125ZM120.93 73.875C121.643 73.875 122.281 74.0833 122.844 74.5C123.412 74.9167 123.857 75.5078 124.18 76.2734C124.503 77.0391 124.664 77.9271 124.664 78.9375C124.664 79.9583 124.503 80.8542 124.18 81.625C123.857 82.3906 123.412 82.9818 122.844 83.3984C122.281 83.8099 121.643 84.0156 120.93 84.0156C120.201 84.0156 119.55 83.8099 118.977 83.3984C118.404 82.9818 117.956 82.3906 117.633 81.625C117.315 80.8542 117.159 79.9583 117.164 78.9375C117.159 77.9271 117.315 77.0391 117.633 76.2734C117.956 75.5078 118.404 74.9167 118.977 74.5C119.55 74.0833 120.201 73.875 120.93 73.875ZM120.93 75.6719C120.56 75.6719 120.235 75.7995 119.953 76.0547C119.677 76.3047 119.464 76.6745 119.313 77.1641C119.162 77.6536 119.086 78.2448 119.086 78.9375C119.086 79.6354 119.162 80.2292 119.313 80.7188C119.464 81.2083 119.677 81.5781 119.953 81.8281C120.235 82.0781 120.56 82.2031 120.93 82.2031C121.294 82.2031 121.612 82.0781 121.883 81.8281C122.154 81.5729 122.365 81.2005 122.516 80.7109C122.667 80.2214 122.742 79.6302 122.742 78.9375C122.742 78.25 122.667 77.6615 122.516 77.1719C122.365 76.6771 122.151 76.3047 121.875 76.0547C121.604 75.7995 121.289 75.6719 120.93 75.6719Z" fill="white"/>
<path d="M108.148 76.0938C108.143 76.9635 108.266 77.8073 108.516 78.625C108.766 79.4375 109.143 80.1667 109.648 80.8125C110.154 81.4583 110.773 81.9583 111.508 82.3125L110.305 83.9062C109.565 83.5417 108.932 83.0286 108.406 82.3672C107.885 81.7057 107.471 80.9297 107.164 80.0391C106.846 80.987 106.406 81.8177 105.844 82.5312C105.286 83.2396 104.617 83.7865 103.836 84.1719L102.602 82.5625C103.378 82.2083 104.031 81.6953 104.562 81.0234C105.094 80.3464 105.49 79.5833 105.75 78.7344C106.016 77.8802 106.148 77 106.148 76.0938V73.9688H108.148V76.0938ZM114.133 78.3594H116.227V80.0469H114.133V87.0938H112.133V72.875H114.133V78.3594Z" fill="white"/>
<path d="M97.3048 87.125H95.2892V72.875H97.3048V87.125ZM89.5861 73.875C90.2996 73.875 90.9376 74.0833 91.5001 74.5C92.0678 74.9167 92.5131 75.5078 92.8361 76.2734C93.159 77.0391 93.3204 77.9271 93.3204 78.9375C93.3204 79.9583 93.159 80.8542 92.8361 81.625C92.5131 82.3906 92.0678 82.9818 91.5001 83.3984C90.9376 83.8099 90.2996 84.0156 89.5861 84.0156C88.8569 84.0156 88.2059 83.8099 87.6329 83.3984C87.06 82.9818 86.6121 82.3906 86.2892 81.625C85.9715 80.8542 85.8152 79.9583 85.8204 78.9375C85.8152 77.9271 85.9715 77.0391 86.2892 76.2734C86.6121 75.5078 87.06 74.9167 87.6329 74.5C88.2059 74.0833 88.8569 73.875 89.5861 73.875ZM89.5861 75.6719C89.2163 75.6719 88.8908 75.7995 88.6095 76.0547C88.3335 76.3047 88.1199 76.6745 87.9689 77.1641C87.8178 77.6536 87.7423 78.2448 87.7423 78.9375C87.7423 79.6354 87.8178 80.2292 87.9689 80.7188C88.1199 81.2083 88.3335 81.5781 88.6095 81.8281C88.8908 82.0781 89.2163 82.2031 89.5861 82.2031C89.9506 82.2031 90.2684 82.0781 90.5392 81.8281C90.81 81.5729 91.021 81.2005 91.172 80.7109C91.323 80.2214 91.3986 79.6302 91.3986 78.9375C91.3986 78.25 91.323 77.6615 91.172 77.1719C91.021 76.6771 90.8074 76.3047 90.5314 76.0547C90.2605 75.7995 89.9454 75.6719 89.5861 75.6719Z" fill="white"/>
<rect width="153" height="42" rx="16" transform="matrix(-1 0 0 1 153 0)" fill="#525252"/>
<path d="M142.094 26.4375H129.078V24.7969H131.984V21.3203C131.422 20.9818 130.987 20.5651 130.68 20.0703C130.372 19.5703 130.219 19.0104 130.219 18.3906C130.219 17.6354 130.448 16.9688 130.906 16.3906C131.365 15.8125 131.997 15.3646 132.805 15.0469C133.617 14.724 134.536 14.5625 135.562 14.5625C136.583 14.5625 137.497 14.724 138.305 15.0469C139.117 15.3646 139.755 15.8125 140.219 16.3906C140.682 16.9688 140.917 17.6354 140.922 18.3906C140.917 18.9948 140.763 19.5443 140.461 20.0391C140.164 20.5286 139.745 20.9427 139.203 21.2812V24.7969H142.094V26.4375ZM135.562 16.1406C134.885 16.1406 134.292 16.2292 133.781 16.4062C133.276 16.5833 132.883 16.8411 132.602 17.1797C132.326 17.513 132.188 17.9167 132.188 18.3906C132.188 18.849 132.326 19.2474 132.602 19.5859C132.883 19.9245 133.279 20.1849 133.789 20.3672C134.299 20.5495 134.891 20.6406 135.562 20.6406C136.229 20.6406 136.818 20.5495 137.328 20.3672C137.839 20.1849 138.234 19.9245 138.516 19.5859C138.802 19.2474 138.948 18.849 138.953 18.3906C138.948 17.9219 138.805 17.5182 138.523 17.1797C138.242 16.8411 137.846 16.5833 137.336 16.4062C136.826 16.2292 136.234 16.1406 135.562 16.1406ZM137.188 24.7969V22.0391C136.651 22.138 136.109 22.1875 135.562 22.1875C134.979 22.1875 134.443 22.138 133.953 22.0391V24.7969H137.188Z" fill="white"/>
<path d="M122.109 17.625H115.234V16.0469H117.703V14.2656H119.672V16.0469H122.109V17.625ZM118.703 18.2656C119.302 18.2656 119.836 18.4115 120.305 18.7031C120.779 18.9896 121.148 19.388 121.414 19.8984C121.685 20.4089 121.823 20.9896 121.828 21.6406C121.823 22.2917 121.685 22.875 121.414 23.3906C121.148 23.9062 120.779 24.3099 120.305 24.6016C119.836 24.888 119.302 25.0312 118.703 25.0312C118.104 25.0312 117.565 24.888 117.086 24.6016C116.612 24.3099 116.24 23.9062 115.969 23.3906C115.698 22.875 115.562 22.2917 115.562 21.6406C115.562 20.9948 115.698 20.4167 115.969 19.9062C116.24 19.3906 116.612 18.9896 117.086 18.7031C117.565 18.4115 118.104 18.2656 118.703 18.2656ZM118.703 19.9219C118.281 19.9219 117.943 20.0755 117.688 20.3828C117.438 20.6901 117.312 21.1094 117.312 21.6406C117.312 22.1719 117.438 22.5885 117.688 22.8906C117.943 23.1927 118.281 23.3438 118.703 23.3438C119.109 23.3438 119.438 23.1927 119.688 22.8906C119.943 22.5885 120.073 22.1719 120.078 21.6406C120.073 21.1094 119.943 20.6901 119.688 20.3828C119.438 20.0755 119.109 19.9219 118.703 19.9219ZM127.547 28.0938H125.656V21.25H124.5V27.4844H122.641V14.1562H124.5V19.6562H125.656V13.875H127.547V28.0938Z" fill="white"/>
<path d="M112.891 15.6562C112.891 16.4167 112.872 17.0885 112.836 17.6719C112.799 18.2552 112.706 18.9062 112.555 19.625H114.438V21.2344H101.422V19.625H110.547C110.688 18.9844 110.781 18.3932 110.828 17.8516C110.875 17.3047 110.901 16.724 110.906 16.1094H103.016V14.5156H112.891V15.6562ZM112.844 27.9375H102.969V22.7344H112.844V27.9375ZM104.922 26.3438H110.859V24.2969H104.922V26.3438Z" fill="white"/>
<path d="M99.0625 15.5C99.0625 16.2344 99.0443 16.8854 99.0078 17.4531C98.9766 18.0208 98.8958 18.6406 98.7656 19.3125H100.609V20.9062H95.0625V22.6641C95.901 22.7266 96.6224 22.8724 97.2266 23.1016C97.8307 23.3307 98.2943 23.6354 98.6172 24.0156C98.9401 24.3958 99.1042 24.8385 99.1094 25.3438C99.1042 25.9271 98.8984 26.4245 98.4922 26.8359C98.0911 27.2474 97.513 27.5599 96.7578 27.7734C96.0078 27.987 95.1146 28.0938 94.0781 28.0938C93.0312 28.0938 92.1302 27.987 91.375 27.7734C90.6198 27.5599 90.0391 27.2474 89.6328 26.8359C89.2318 26.4245 89.0312 25.9271 89.0312 25.3438C89.0312 24.8385 89.1901 24.3958 89.5078 24.0156C89.8307 23.6354 90.2943 23.3333 90.8984 23.1094C91.5026 22.8802 92.2292 22.7318 93.0781 22.6641V20.9062H87.5938V19.3125H96.7578C96.8828 18.6979 96.9661 18.1302 97.0078 17.6094C97.0495 17.0885 97.0729 16.5365 97.0781 15.9531H89.1875V14.375H99.0625V15.5ZM94.0781 24.2031C92.0469 24.2031 91.0312 24.5833 91.0312 25.3438C91.0312 26.125 92.0469 26.5156 94.0781 26.5156C96.0885 26.5156 97.0938 26.125 97.0938 25.3438C97.0938 24.9635 96.8385 24.6797 96.3281 24.4922C95.8177 24.2995 95.0677 24.2031 94.0781 24.2031Z" fill="white"/>
<path d="M81.9845 28.125H79.9689V13.875H81.9845V28.125ZM74.2658 14.875C74.9793 14.875 75.6173 15.0833 76.1798 15.5C76.7475 15.9167 77.1928 16.5078 77.5158 17.2734C77.8387 18.0391 78.0001 18.9271 78.0001 19.9375C78.0001 20.9583 77.8387 21.8542 77.5158 22.625C77.1928 23.3906 76.7475 23.9818 76.1798 24.3984C75.6173 24.8099 74.9793 25.0156 74.2658 25.0156C73.5366 25.0156 72.8855 24.8099 72.3126 24.3984C71.7397 23.9818 71.2918 23.3906 70.9689 22.625C70.6512 21.8542 70.4949 20.9583 70.5001 19.9375C70.4949 18.9271 70.6512 18.0391 70.9689 17.2734C71.2918 16.5078 71.7397 15.9167 72.3126 15.5C72.8855 15.0833 73.5366 14.875 74.2658 14.875ZM74.2658 16.6719C73.896 16.6719 73.5704 16.7995 73.2892 17.0547C73.0131 17.3047 72.7996 17.6745 72.6486 18.1641C72.4975 18.6536 72.422 19.2448 72.422 19.9375C72.422 20.6354 72.4975 21.2292 72.6486 21.7188C72.7996 22.2083 73.0131 22.5781 73.2892 22.8281C73.5704 23.0781 73.896 23.2031 74.2658 23.2031C74.6303 23.2031 74.948 23.0781 75.2189 22.8281C75.4897 22.5729 75.7006 22.2005 75.8517 21.7109C76.0027 21.2214 76.0783 20.6302 76.0783 19.9375C76.0783 19.25 76.0027 18.6615 75.8517 18.1719C75.7006 17.6771 75.4871 17.3047 75.2111 17.0547C74.9402 16.7995 74.6251 16.6719 74.2658 16.6719Z" fill="white"/>
<path d="M69.4531 17.4375H67.5312V18.7969H69.4531V20.4375H67.5312V22.4688H65.5312V13.8906H67.5312V15.7812H69.4531V17.4375ZM63.2812 18.9688H58.75V20.2188C59.974 20.2083 61.0182 20.1745 61.8828 20.1172C62.7526 20.0547 63.625 19.9479 64.5 19.7969L64.7188 21.3906C63.7448 21.5677 62.7578 21.6875 61.7578 21.75C60.763 21.8125 59.5 21.8438 57.9688 21.8438H56.7656V17.4688H61.3438V16.2969H56.75V14.7344H63.2812V18.9688ZM62.8438 22.6875C63.8229 22.6875 64.6745 22.7969 65.3984 23.0156C66.1276 23.2344 66.6875 23.5495 67.0781 23.9609C67.474 24.3724 67.6719 24.8594 67.6719 25.4219C67.6719 25.9792 67.474 26.4557 67.0781 26.8516C66.6875 27.2526 66.1302 27.5573 65.4062 27.7656C64.6823 27.974 63.8281 28.0781 62.8438 28.0781C61.8385 28.0781 60.9688 27.974 60.2344 27.7656C59.5052 27.5573 58.9453 27.2526 58.5547 26.8516C58.1641 26.4557 57.9688 25.9792 57.9688 25.4219C57.9688 24.8594 58.1641 24.3724 58.5547 23.9609C58.9505 23.5495 59.513 23.2344 60.2422 23.0156C60.9766 22.7969 61.8438 22.6875 62.8438 22.6875ZM62.8438 24.2344C61.8906 24.2344 61.1667 24.3333 60.6719 24.5312C60.1771 24.7292 59.9323 25.026 59.9375 25.4219C59.9323 25.8021 60.1771 26.0938 60.6719 26.2969C61.1719 26.4948 61.8958 26.5938 62.8438 26.5938C63.7812 26.5938 64.4922 26.4948 64.9766 26.2969C65.4609 26.099 65.7031 25.8073 65.7031 25.4219C65.7031 24.6302 64.75 24.2344 62.8438 24.2344Z" fill="white"/>
<path d="M54.4064 28.0938H52.422V24.4844H44.6407V22.9219H54.4064V28.0938ZM54.4064 22.2812H52.422V20.4844H49.2345C48.8907 20.8542 48.4741 21.1432 47.9845 21.3516C47.4949 21.5547 46.9637 21.6562 46.3907 21.6562C45.6772 21.6562 45.0314 21.5052 44.4532 21.2031C43.8751 20.8958 43.422 20.474 43.0939 19.9375C42.7657 19.3958 42.6043 18.7865 42.6095 18.1094C42.6043 17.4531 42.7631 16.862 43.0861 16.3359C43.4142 15.8047 43.8647 15.3906 44.4376 15.0938C45.0157 14.7917 45.6564 14.6406 46.3595 14.6406C46.9376 14.6406 47.4741 14.7396 47.9689 14.9375C48.4637 15.1354 48.8855 15.4167 49.2345 15.7812H52.422V13.875H54.4064V22.2812ZM46.3907 16.3125C46.021 16.3125 45.6902 16.3854 45.3986 16.5312C45.1121 16.6771 44.8881 16.8854 44.7267 17.1562C44.5704 17.4271 44.4949 17.7448 44.5001 18.1094C44.4949 18.4896 44.5704 18.8203 44.7267 19.1016C44.8881 19.3776 45.1121 19.5885 45.3986 19.7344C45.6902 19.8802 46.021 19.9531 46.3907 19.9531C46.7449 19.9531 47.0626 19.8802 47.3439 19.7344C47.6251 19.5885 47.8465 19.3776 48.0079 19.1016C48.1694 18.8203 48.2501 18.4896 48.2501 18.1094C48.2501 17.75 48.1694 17.4349 48.0079 17.1641C47.8465 16.888 47.6225 16.6771 47.3361 16.5312C47.0548 16.3854 46.7397 16.3125 46.3907 16.3125ZM52.422 18.8906V17.3906H50.0704C50.1173 17.6146 50.1407 17.8542 50.1407 18.1094C50.1407 18.3542 50.1147 18.6146 50.0626 18.8906H52.422Z" fill="white"/>
<path d="M27.3125 16.2031H30.2188V14.5156H32.2188V20.7188H25.3281V14.5156H27.3125V16.2031ZM30.2188 19.1562V17.7031H27.3125V19.1562H30.2188ZM36.1875 16.6406H38.1094V18.25H36.1875V21.1094H34.1875V13.875H36.1875V16.6406ZM36.1875 25.5H28.7344V26.4219H36.5938V28H26.7812V24.0781H34.2031V23.1875H26.75V21.6406H36.1875V25.5Z" fill="white"/>
<path d="M23.3438 28.0938H21.4219V20.8594H20.125V27.4688H18.2656V14.25H20.125V19.2656H21.4219V13.875H23.3438V28.0938ZM17.2656 15.625C17.2604 17.0208 17.0964 18.2917 16.7734 19.4375C16.4505 20.5781 15.9062 21.6328 15.1406 22.6016C14.3802 23.5651 13.3542 24.4219 12.0625 25.1719L10.9062 23.7969C12.3229 22.9635 13.3776 22.0182 14.0703 20.9609C14.763 19.8984 15.1797 18.651 15.3203 17.2188H11.625V15.625H17.2656Z" fill="white"/>
</svg>
