<svg width="253" height="254" viewBox="0 0 253 254" fill="none" xmlns="http://www.w3.org/2000/svg">
<path d="M94.75 3.98994C104.997 1.34051 115.534 -1.27042e-07 126.114 0V88.9C122.94 88.9 119.779 89.3021 116.705 90.097L94.75 3.98994Z" fill="#DEDEDE"/>
<path d="M42.7109 31.7357C57.6399 18.4817 75.4719 8.97397 94.749 3.98975L116.704 90.0968C110.92 91.592 105.571 94.4444 101.092 98.4206L42.7109 31.7357Z" fill="#CCCCCC"/>
<path d="M0.351562 117.433C2.82975 84.3977 18.0291 53.645 42.7071 31.7358L101.088 98.4207C93.6849 104.993 89.1251 114.219 88.3816 124.13L0.351562 117.433Z" fill="#848484"/>
<path d="M126.109 0C154.437 -1.24694e-06 181.94 9.6041 204.187 27.2647C226.433 44.9254 242.127 69.614 248.74 97.3524C255.353 125.091 252.5 154.264 240.64 180.17C228.781 206.076 208.605 227.207 183.365 240.158L143.286 160.947C150.858 157.062 156.911 150.723 160.469 142.951C164.027 135.179 164.883 126.427 162.899 118.106C160.915 109.784 156.207 102.378 149.533 97.0794C142.859 91.7812 134.608 88.9 126.109 88.9L126.109 0Z" fill="#FF4331"/>
<g filter="url(#filter0_d_1574_1039)">
<path d="M223.523 135.234C222.359 135.234 221.309 135.02 220.371 134.59C219.441 134.16 218.707 133.566 218.168 132.809C217.637 132.043 217.359 131.18 217.336 130.219H220.758C220.781 130.656 220.918 131.043 221.168 131.379C221.418 131.715 221.75 131.977 222.164 132.164C222.578 132.352 223.031 132.445 223.523 132.445C224.102 132.445 224.617 132.32 225.07 132.07C225.531 131.812 225.887 131.457 226.137 131.004C226.395 130.543 226.523 130.023 226.523 129.445C226.523 128.852 226.395 128.324 226.137 127.863C225.879 127.402 225.516 127.043 225.047 126.785C224.586 126.52 224.062 126.383 223.477 126.375C222.203 126.375 221.312 126.852 220.805 127.805H217.617L218.531 118.031H228.984V120.914H221.438L220.969 125.203H221.109C221.43 124.773 221.891 124.43 222.492 124.172C223.102 123.906 223.773 123.773 224.508 123.773C225.539 123.773 226.465 124.012 227.285 124.488C228.113 124.965 228.762 125.629 229.23 126.48C229.707 127.324 229.945 128.281 229.945 129.352C229.945 130.484 229.676 131.496 229.137 132.387C228.598 133.277 227.84 133.977 226.863 134.484C225.895 134.984 224.781 135.234 223.523 135.234Z" fill="white"/>
</g>
<g filter="url(#filter1_d_1574_1039)">
<path d="M212.954 135.211C212.594 135.211 212.262 135.121 211.958 134.941C211.653 134.762 211.411 134.523 211.231 134.227C211.059 133.922 210.977 133.594 210.985 133.242C210.977 132.891 211.059 132.566 211.231 132.27C211.411 131.973 211.653 131.738 211.958 131.566C212.262 131.387 212.594 131.297 212.954 131.297C213.29 131.297 213.606 131.387 213.903 131.566C214.208 131.738 214.45 131.973 214.629 132.27C214.809 132.566 214.899 132.891 214.899 133.242C214.899 133.594 214.809 133.922 214.629 134.227C214.45 134.523 214.208 134.762 213.903 134.941C213.606 135.121 213.29 135.211 212.954 135.211Z" fill="white"/>
</g>
<g filter="url(#filter2_d_1574_1039)">
<path d="M196.461 132.445L202.555 126.844C203.156 126.266 203.621 125.785 203.949 125.402C204.285 125.02 204.543 124.641 204.723 124.266C204.903 123.883 204.992 123.477 204.992 123.047C204.992 122.555 204.875 122.125 204.641 121.758C204.414 121.391 204.094 121.109 203.68 120.914C203.274 120.711 202.813 120.609 202.297 120.609C201.5 120.609 200.863 120.848 200.387 121.324C199.91 121.793 199.672 122.43 199.672 123.234H196.32C196.313 122.141 196.559 121.184 197.059 120.363C197.567 119.543 198.278 118.91 199.192 118.465C200.106 118.02 201.156 117.797 202.344 117.797C203.539 117.797 204.594 118.012 205.508 118.441C206.422 118.863 207.129 119.453 207.629 120.211C208.137 120.969 208.391 121.836 208.391 122.812C208.391 123.477 208.262 124.117 208.004 124.734C207.746 125.344 207.297 126.027 206.656 126.785C206.024 127.535 205.125 128.438 203.961 129.492L201.383 132V132.094H208.625V135H196.485L196.461 132.445Z" fill="white"/>
</g>
<g filter="url(#filter3_d_1574_1039)">
<path d="M180.672 129.211L187.844 118.031H192.273V129.164H194.43V132H192.273V135H188.922V132H180.672V129.211ZM188.969 129.164V121.898H188.805L184.234 129.023V129.164H188.969Z" fill="white"/>
</g>
<g filter="url(#filter4_d_1574_1039)">
<path d="M228.834 104.882H217.445V103.488H222.271V102.585H218.867V99.1675H225.703V98.4019H218.84V97.0483H227.453V100.425H220.604V101.246H227.686V102.585H224.008V103.488H228.834V104.882ZM227.521 109.203H225.758V106.96H218.717V105.593H227.521V109.203Z" fill="white"/>
</g>
<g filter="url(#filter5_d_1574_1039)">
<path d="M215.957 109.257H214.193V96.8159H215.957V109.257ZM212.225 98.1147C212.225 99.4455 212.045 100.655 211.685 101.745C211.329 102.834 210.728 103.834 209.88 104.746C209.032 105.653 207.891 106.445 206.455 107.125L205.539 105.73C206.601 105.229 207.476 104.67 208.164 104.055C208.857 103.44 209.385 102.759 209.75 102.011C210.119 101.259 210.352 100.416 210.447 99.4819H206.209V98.1147H212.225Z" fill="white"/>
</g>
<g filter="url(#filter6_d_1574_1039)">
<path d="M198.082 98.771C198.082 99.286 198.185 99.7782 198.39 100.248C198.595 100.712 198.909 101.129 199.333 101.499C199.761 101.863 200.292 102.143 200.926 102.339L199.996 103.693C199.349 103.479 198.793 103.169 198.328 102.763C197.863 102.358 197.494 101.877 197.221 101.321C196.943 101.963 196.558 102.519 196.065 102.989C195.578 103.454 194.988 103.802 194.295 104.035L193.352 102.667C194.021 102.444 194.577 102.125 195.02 101.71C195.462 101.296 195.79 100.824 196.004 100.295C196.218 99.7622 196.327 99.1994 196.332 98.6069V97.4722H198.082V98.771ZM203.414 99.728H205.096V101.177H203.414V104.199H201.664V96.8159H203.414V99.728ZM199.34 104.445C200.197 104.445 200.939 104.541 201.568 104.732C202.197 104.923 202.683 105.199 203.024 105.559C203.366 105.919 203.537 106.35 203.537 106.851C203.537 107.357 203.366 107.79 203.024 108.15C202.687 108.51 202.202 108.783 201.568 108.97C200.939 109.162 200.197 109.257 199.34 109.257C198.465 109.257 197.706 109.162 197.063 108.97C196.425 108.783 195.933 108.51 195.587 108.15C195.245 107.79 195.074 107.357 195.074 106.851C195.074 106.35 195.245 105.919 195.587 105.559C195.933 105.199 196.428 104.923 197.07 104.732C197.713 104.541 198.469 104.445 199.34 104.445ZM199.34 105.812C198.515 105.812 197.888 105.901 197.46 106.079C197.032 106.252 196.82 106.509 196.824 106.851C196.811 107.544 197.649 107.89 199.34 107.89C200.99 107.89 201.814 107.544 201.814 106.851C201.814 106.509 201.603 106.252 201.179 106.079C200.759 105.901 200.146 105.812 199.34 105.812Z" fill="white"/>
</g>
<g filter="url(#filter7_d_1574_1039)">
<path d="M185.123 97.1851C185.747 97.1851 186.312 97.3058 186.818 97.5474C187.324 97.7889 187.721 98.1261 188.008 98.5591C188.299 98.992 188.445 99.4819 188.445 100.029C188.445 100.567 188.299 101.052 188.008 101.485C187.721 101.913 187.324 102.25 186.818 102.497C186.312 102.738 185.747 102.859 185.123 102.859C184.49 102.859 183.918 102.738 183.407 102.497C182.897 102.25 182.496 101.913 182.204 101.485C181.917 101.052 181.773 100.567 181.773 100.029C181.773 99.4819 181.917 98.992 182.204 98.5591C182.496 98.1261 182.895 97.7889 183.4 97.5474C183.911 97.3058 184.485 97.1851 185.123 97.1851ZM185.123 98.6069C184.804 98.6069 184.517 98.6639 184.262 98.7778C184.011 98.8872 183.815 99.0513 183.674 99.27C183.533 99.4842 183.464 99.7371 183.469 100.029C183.464 100.32 183.533 100.573 183.674 100.788C183.815 101.002 184.011 101.166 184.262 101.28C184.517 101.394 184.804 101.451 185.123 101.451C185.438 101.451 185.718 101.394 185.964 101.28C186.215 101.166 186.41 101.002 186.552 100.788C186.693 100.573 186.764 100.32 186.764 100.029C186.764 99.7326 186.693 99.4774 186.552 99.2632C186.41 99.049 186.215 98.8872 185.964 98.7778C185.718 98.6639 185.438 98.6069 185.123 98.6069ZM192 103.05H190.25V96.8159H192V103.05ZM192 106.947H185.383V107.753H192.342V109.121H183.674V105.675H190.264V104.91H183.646V103.57H192V106.947Z" fill="white"/>
</g>
<path d="M183.371 240.158C163.426 250.391 141.136 255.095 118.79 253.786C96.4435 252.476 74.8457 245.201 56.2144 232.707C37.583 220.214 22.5895 202.951 12.7733 182.693C2.9572 162.435 -1.32779 139.911 0.358349 117.434L88.3884 124.13C87.8826 130.873 89.1681 137.631 92.1129 143.708C95.0578 149.785 99.5558 154.964 105.145 158.712C110.735 162.46 117.214 164.643 123.918 165.036C130.622 165.429 137.309 164.018 143.292 160.947L183.371 240.158Z" fill="#595959"/>
<g filter="url(#filter8_d_1574_1039)">
<path d="M57.25 104.195C56.2279 104.195 55.3099 104.02 54.4961 103.668C53.6888 103.31 53.0508 102.815 52.582 102.184C52.1198 101.546 51.8789 100.823 51.8594 100.016H54.8281C54.8477 100.361 54.9648 100.667 55.1797 100.934C55.3945 101.201 55.6842 101.409 56.0488 101.559C56.4134 101.702 56.8203 101.773 57.2695 101.773C57.7318 101.773 58.1452 101.692 58.5098 101.529C58.8809 101.36 59.1673 101.129 59.3691 100.836C59.5775 100.543 59.6784 100.211 59.6719 99.8398C59.6784 99.4557 59.571 99.1139 59.3496 98.8145C59.1348 98.515 58.8255 98.2839 58.4219 98.1211C58.0182 97.9518 57.543 97.8672 56.9961 97.8672H55.6875V95.6992H56.9961C57.4518 95.6992 57.8587 95.6211 58.2168 95.4648C58.5749 95.3086 58.8548 95.0872 59.0566 94.8008C59.2585 94.5143 59.3594 94.1888 59.3594 93.8242C59.3594 93.4661 59.2715 93.1504 59.0957 92.877C58.9264 92.6035 58.6855 92.3919 58.373 92.2422C58.0605 92.0859 57.6992 92.0078 57.2891 92.0078C56.8724 92.0078 56.4883 92.0827 56.1367 92.2324C55.7917 92.3757 55.5117 92.584 55.2969 92.8574C55.0885 93.1243 54.9779 93.4336 54.9648 93.7852H52.1523C52.1654 92.9844 52.3965 92.2715 52.8457 91.6465C53.2949 91.0215 53.9069 90.5365 54.6816 90.1914C55.4629 89.8398 56.332 89.6641 57.2891 89.6641C58.2526 89.6641 59.1055 89.8398 59.8477 90.1914C60.5964 90.5365 61.1758 91.015 61.5859 91.627C61.9961 92.2324 62.1979 92.9062 62.1914 93.6484C62.1979 94.1628 62.0872 94.6315 61.8594 95.0547C61.638 95.4714 61.3223 95.8164 60.9121 96.0898C60.5085 96.3633 60.043 96.5456 59.5156 96.6367V96.7539C60.1992 96.8385 60.7819 97.0273 61.2637 97.3203C61.7454 97.6133 62.11 97.9941 62.3574 98.4629C62.6048 98.9251 62.7253 99.4492 62.7188 100.035C62.7253 100.829 62.4941 101.546 62.0254 102.184C61.5566 102.815 60.9056 103.31 60.0723 103.668C59.2389 104.02 58.2982 104.195 57.25 104.195Z" fill="white"/>
</g>
<g filter="url(#filter9_d_1574_1039)">
<path d="M48.7426 104.176C48.4431 104.176 48.1664 104.101 47.9125 103.951C47.6586 103.801 47.4568 103.603 47.3071 103.355C47.1638 103.102 47.0955 102.828 47.102 102.535C47.0955 102.242 47.1638 101.972 47.3071 101.725C47.4568 101.477 47.6586 101.282 47.9125 101.139C48.1664 100.989 48.4431 100.914 48.7426 100.914C49.0226 100.914 49.2862 100.989 49.5336 101.139C49.7875 101.282 49.9894 101.477 50.1391 101.725C50.2888 101.972 50.3637 102.242 50.3637 102.535C50.3637 102.828 50.2888 103.102 50.1391 103.355C49.9894 103.603 49.7875 103.801 49.5336 103.951C49.2862 104.101 49.0226 104.176 48.7426 104.176Z" fill="white"/>
</g>
<g filter="url(#filter10_d_1574_1039)">
<path d="M34.9923 101.871L40.0705 97.2031C40.5718 96.7214 40.9591 96.321 41.2326 96.002C41.5125 95.6829 41.7274 95.3672 41.8771 95.0547C42.0268 94.7357 42.1017 94.3971 42.1017 94.0391C42.1017 93.6289 42.0041 93.2708 41.8087 92.9648C41.6199 92.6589 41.353 92.4245 41.008 92.2617C40.6694 92.0924 40.2853 92.0078 39.8556 92.0078C39.1916 92.0078 38.661 92.2064 38.2638 92.6035C37.8667 92.9941 37.6681 93.5247 37.6681 94.1953H34.8752C34.8686 93.2839 35.0737 92.4863 35.4904 91.8027C35.9136 91.1191 36.506 90.5918 37.2677 90.2207C38.0294 89.8496 38.9051 89.6641 39.8947 89.6641C40.8908 89.6641 41.7697 89.8431 42.5314 90.2012C43.2931 90.5527 43.8823 91.0443 44.299 91.6758C44.7222 92.3073 44.9337 93.0299 44.9337 93.8438C44.9337 94.3971 44.8263 94.931 44.6115 95.4453C44.3966 95.9531 44.0223 96.5228 43.4884 97.1543C42.9611 97.7793 42.2124 98.5312 41.2423 99.4102L39.0939 101.5V101.578H45.1291V104H35.0119L34.9923 101.871Z" fill="white"/>
</g>
<g filter="url(#filter11_d_1574_1039)">
<path d="M31.9336 104H28.9844V92.6523H28.9062L25.6641 94.6836V92.0859L29.1602 89.8594H31.9336V104Z" fill="white"/>
</g>
<path d="M88.2188 53.1562C85.8594 53.1562 84.1406 51.7656 84.0938 49.8125H86.375C86.4219 50.7031 87.2344 51.2969 88.2188 51.2969C89.3906 51.2969 90.2188 50.4688 90.2188 49.2969C90.2188 48.0938 89.375 47.2656 88.1875 47.25C87.3438 47.25 86.75 47.5625 86.4062 48.2031H84.2812L84.8906 41.6875H91.8594V43.6094H86.8281L86.5156 46.4688H86.6094C87.0312 45.9062 87.875 45.5156 88.875 45.5156C90.9531 45.5156 92.5 47.0625 92.5 49.2344C92.5 51.5156 90.7656 53.1562 88.2188 53.1562Z" fill="#8A8A8A"/>
<path d="M81.1722 53.1406C80.4378 53.1406 79.8441 52.5469 79.8597 51.8281C79.8441 51.1094 80.4378 50.5312 81.1722 50.5312C81.8597 50.5312 82.4691 51.1094 82.4691 51.8281C82.4691 52.5469 81.8597 53.1406 81.1722 53.1406Z" fill="#8A8A8A"/>
<path d="M74.5156 53.1562C72.1719 53.1406 69.9531 51.75 69.9531 47.6094C69.9531 43.7969 71.7812 41.5312 74.6094 41.5312C76.8906 41.5312 78.4375 42.9688 78.6719 44.8281H76.3594C76.1719 44.0312 75.5156 43.5469 74.6094 43.5469C73.0781 43.5469 72.2656 44.9375 72.25 47.1562H72.3594C72.875 46.1562 74 45.5625 75.25 45.5625C77.2812 45.5625 78.7969 47.0938 78.7969 49.2188C78.7969 51.5156 77.0625 53.1719 74.5156 53.1562ZM74.5 51.2969C75.6562 51.2969 76.5156 50.4219 76.5156 49.2812C76.5156 48.1562 75.6875 47.2656 74.5312 47.2656C73.375 47.2656 72.5 48.1719 72.4844 49.2812C72.5 50.3906 73.3438 51.2969 74.5 51.2969Z" fill="#8A8A8A"/>
<path d="M92.9316 34.8633H84.7969V33.8379H86.6133V31.665C86.2617 31.4535 85.9899 31.193 85.7979 30.8838C85.6058 30.5713 85.5098 30.2214 85.5098 29.834C85.5098 29.362 85.653 28.9453 85.9395 28.584C86.2259 28.2227 86.6214 27.9427 87.126 27.7441C87.6338 27.5423 88.2083 27.4414 88.8496 27.4414C89.4876 27.4414 90.0589 27.5423 90.5635 27.7441C91.0713 27.9427 91.4701 28.2227 91.7598 28.584C92.0495 28.9453 92.196 29.362 92.1992 29.834C92.196 30.2116 92.0999 30.555 91.9111 30.8643C91.7256 31.1702 91.4635 31.429 91.125 31.6406V33.8379H92.9316V34.8633ZM88.8496 28.4277C88.4264 28.4277 88.0553 28.4831 87.7363 28.5938C87.4206 28.7044 87.1748 28.8656 86.999 29.0771C86.8265 29.2855 86.7402 29.5378 86.7402 29.834C86.7402 30.1204 86.8265 30.3695 86.999 30.5811C87.1748 30.7926 87.4222 30.9554 87.7412 31.0693C88.0602 31.1833 88.4297 31.2402 88.8496 31.2402C89.2663 31.2402 89.6341 31.1833 89.9531 31.0693C90.2721 30.9554 90.5195 30.7926 90.6953 30.5811C90.8743 30.3695 90.9655 30.1204 90.9688 29.834C90.9655 29.541 90.876 29.2887 90.7002 29.0771C90.5244 28.8656 90.277 28.7044 89.958 28.5938C89.639 28.4831 89.2695 28.4277 88.8496 28.4277ZM89.8652 33.8379V32.1143C89.5299 32.1761 89.1914 32.207 88.8496 32.207C88.485 32.207 88.1497 32.1761 87.8438 32.1143V33.8379H89.8652Z" fill="#8A8A8A"/>
<path d="M78.6407 27.6367C79.0899 27.6367 79.4919 27.7669 79.8468 28.0273C80.2016 28.2845 80.4783 28.6523 80.6768 29.1309C80.8787 29.6094 80.9812 30.166 80.9845 30.8008C80.9812 31.4388 80.8787 31.9987 80.6768 32.4805C80.4783 32.959 80.2016 33.3285 79.8468 33.5889C79.4952 33.846 79.0932 33.9746 78.6407 33.9746C78.1882 33.9746 77.783 33.846 77.4249 33.5889C77.0701 33.3285 76.7917 32.959 76.5899 32.4805C76.3914 31.9987 76.2937 31.4388 76.297 30.8008C76.2937 30.1693 76.3914 29.6143 76.5899 29.1357C76.7917 28.6572 77.0701 28.2878 77.4249 28.0273C77.783 27.7669 78.1882 27.6367 78.6407 27.6367ZM78.6407 28.7598C78.4128 28.7598 78.2126 28.8395 78.0401 28.999C77.8676 29.1553 77.7341 29.3864 77.6397 29.6924C77.5453 29.9984 77.4981 30.3678 77.4981 30.8008C77.4981 31.2337 77.5453 31.6048 77.6397 31.9141C77.7341 32.2201 77.8676 32.4512 78.0401 32.6074C78.2126 32.7637 78.4128 32.8418 78.6407 32.8418C78.8718 32.8418 79.0736 32.7637 79.2462 32.6074C79.4187 32.4512 79.5522 32.2201 79.6466 31.9141C79.741 31.6081 79.7898 31.237 79.793 30.8008C79.7898 30.3678 79.741 29.9984 79.6466 29.6924C79.5522 29.3864 79.4187 29.1553 79.2462 28.999C79.0736 28.8395 78.8718 28.7598 78.6407 28.7598ZM83.2598 30.3613H84.5684V31.3965H83.2598V35.8984H82.0098V27.0117H83.2598V30.3613Z" fill="#8A8A8A"/>
<path d="M72.3633 30.4785H75.8301V31.4746H67.6953V30.4785H71.1328V29.6582H72.3633V30.4785ZM75.0781 28.1738H72.6855C72.7734 28.3529 72.9346 28.5173 73.1689 28.667C73.4033 28.8167 73.7126 28.9421 74.0967 29.043C74.484 29.1439 74.9382 29.209 75.459 29.2383L75.0684 30.166C74.2253 30.1074 73.5205 29.9512 72.9541 29.6973C72.3877 29.4401 71.9889 29.1097 71.7578 28.7061C71.5234 29.1097 71.123 29.4401 70.5566 29.6973C69.9902 29.9512 69.2871 30.1074 68.4473 30.166L68.0469 29.2383C68.5579 29.209 69.0055 29.1439 69.3896 29.043C69.777 28.9388 70.0895 28.8118 70.3271 28.6621C70.5648 28.5124 70.7292 28.3496 70.8203 28.1738H68.4473V27.2266H75.0781V28.1738ZM75.0586 33.3105H68.4375V32.3828H71.123V31.7188H72.373V32.3828H75.0586V33.3105ZM71.7383 33.5742C72.6042 33.5742 73.278 33.6751 73.7598 33.877C74.2415 34.0788 74.4824 34.3685 74.4824 34.7461C74.4824 35.127 74.2415 35.4183 73.7598 35.6201C73.2812 35.8252 72.6074 35.9277 71.7383 35.9277C70.8626 35.9277 70.1888 35.8268 69.7168 35.625C69.248 35.4232 69.0137 35.1302 69.0137 34.7461C69.0137 34.3685 69.2497 34.0788 69.7217 33.877C70.1937 33.6751 70.8659 33.5742 71.7383 33.5742ZM71.7383 34.3945C71.2435 34.401 70.8789 34.4303 70.6445 34.4824C70.4102 34.5345 70.293 34.6224 70.293 34.7461C70.293 34.987 70.7747 35.1074 71.7383 35.1074C72.2233 35.1074 72.5846 35.0765 72.8223 35.0146C73.0599 34.9561 73.1803 34.8665 73.1836 34.7461C73.1803 34.6224 73.0632 34.5345 72.832 34.4824C72.6009 34.4303 72.2363 34.401 71.7383 34.3945Z" fill="#8A8A8A"/>
<path d="M117.631 24.7598H114.682V26.2246H117.504V27.2012H114.682V28.8809C115.365 28.8743 115.977 28.8532 116.518 28.8174C117.061 28.7816 117.615 28.7181 118.178 28.627L118.295 29.6328C117.66 29.7305 117.029 29.7956 116.4 29.8281C115.772 29.8607 115.03 29.877 114.174 29.877H113.422V23.7441H117.631V24.7598ZM120.082 26.3809H121.391V27.4258H120.082V31.8984H118.832V23.0117H120.082V26.3809Z" fill="#AFAFAF"/>
<path d="M112.004 31.8984H110.744V23.0117H112.004V31.8984ZM109.338 23.9395C109.338 24.89 109.209 25.7542 108.952 26.5322C108.698 27.3102 108.269 28.0247 107.663 28.6758C107.058 29.3236 106.242 29.89 105.217 30.375L104.562 29.3789C105.321 29.0208 105.946 28.6221 106.438 28.1826C106.932 27.7432 107.31 27.2565 107.57 26.7227C107.834 26.1855 108 25.5833 108.068 24.916H105.041V23.9395H109.338Z" fill="#AFAFAF"/>
<g filter="url(#filter12_d_1574_1039)">
<path d="M95.1641 196.455V196.337H86.8438V193.455H98.8203V196.384L91.6719 210.423H88.0156L95.1641 196.455Z" fill="white"/>
</g>
<g filter="url(#filter13_d_1574_1039)">
<path d="M83.5005 210.634C83.1411 210.634 82.8091 210.544 82.5044 210.365C82.1997 210.185 81.9575 209.947 81.7779 209.65C81.606 209.345 81.5239 209.017 81.5318 208.666C81.5239 208.314 81.606 207.99 81.7779 207.693C81.9575 207.396 82.1997 207.162 82.5044 206.99C82.8091 206.81 83.1411 206.72 83.5005 206.72C83.8364 206.72 84.1529 206.81 84.4497 206.99C84.7544 207.162 84.9966 207.396 85.1763 207.693C85.356 207.99 85.4458 208.314 85.4458 208.666C85.4458 209.017 85.356 209.345 85.1763 209.65C84.9966 209.947 84.7544 210.185 84.4497 210.365C84.1529 210.544 83.8364 210.634 83.5005 210.634Z" fill="white"/>
</g>
<g filter="url(#filter14_d_1574_1039)">
<path d="M78.6094 196.455V196.337H70.2891V193.455H82.2656V196.384L75.1172 210.423H71.4609L78.6094 196.455Z" fill="white"/>
</g>
<g filter="url(#filter15_d_1574_1039)">
<path d="M61.9922 210.658C60.7656 210.658 59.6641 210.447 58.6875 210.025C57.7188 209.595 56.9531 209.001 56.3906 208.244C55.8359 207.478 55.5469 206.611 55.5234 205.642H59.0859C59.1094 206.056 59.25 206.423 59.5078 206.744C59.7656 207.064 60.1133 207.314 60.5508 207.494C60.9883 207.666 61.4766 207.751 62.0156 207.751C62.5703 207.751 63.0664 207.654 63.5039 207.458C63.9492 207.255 64.293 206.978 64.5352 206.626C64.7852 206.275 64.9062 205.876 64.8984 205.431C64.9062 204.97 64.7773 204.56 64.5117 204.201C64.2539 203.841 63.8828 203.564 63.3984 203.369C62.9141 203.166 62.3438 203.064 61.6875 203.064H60.1172V200.462H61.6875C62.2344 200.462 62.7227 200.369 63.1523 200.181C63.582 199.994 63.918 199.728 64.1602 199.384C64.4023 199.041 64.5234 198.65 64.5234 198.212C64.5234 197.783 64.418 197.404 64.207 197.076C64.0039 196.748 63.7148 196.494 63.3398 196.314C62.9648 196.126 62.5312 196.033 62.0391 196.033C61.5391 196.033 61.0781 196.123 60.6562 196.302C60.2422 196.474 59.9062 196.724 59.6484 197.052C59.3984 197.373 59.2656 197.744 59.25 198.166H55.875C55.8906 197.205 56.168 196.349 56.707 195.599C57.2461 194.849 57.9805 194.267 58.9102 193.853C59.8477 193.431 60.8906 193.22 62.0391 193.22C63.1953 193.22 64.2188 193.431 65.1094 193.853C66.0078 194.267 66.7031 194.841 67.1953 195.576C67.6875 196.302 67.9297 197.111 67.9219 198.001C67.9297 198.619 67.7969 199.181 67.5234 199.689C67.2578 200.189 66.8789 200.603 66.3867 200.931C65.9023 201.259 65.3438 201.478 64.7109 201.587V201.728C65.5312 201.83 66.2305 202.056 66.8086 202.408C67.3867 202.759 67.8242 203.216 68.1211 203.779C68.418 204.333 68.5625 204.962 68.5547 205.666C68.5625 206.619 68.2852 207.478 67.7227 208.244C67.1602 209.001 66.3789 209.595 65.3789 210.025C64.3789 210.447 63.25 210.658 61.9922 210.658Z" fill="white"/>
</g>
<g filter="url(#filter16_d_1574_1039)">
<path d="M93.3359 172.977C93.3359 174.357 94.0195 175.711 95.6738 176.367L94.7305 177.707C93.6846 177.283 92.9531 176.518 92.5156 175.574C92.0508 176.654 91.2715 177.55 90.1094 178.035L89.1797 176.682C90.9297 175.93 91.6406 174.385 91.6406 172.977V171.541H93.3359V172.977ZM100.049 170.83V178.363H98.3945V175.273H97.3555V178.295H95.7285V171.021H97.3555V173.852H98.3945V170.83H100.049ZM100.049 178.91V183.258H98.3125V180.305H91.4492V178.91H100.049Z" fill="white"/>
</g>
<g filter="url(#filter17_d_1574_1039)">
<path d="M83.7461 171.514V172.922H79.6309V173.893H83.4863V175.273H79.6309V176.285C81.6543 176.285 82.9531 176.224 84.416 175.943L84.6074 177.324C82.9258 177.611 81.4219 177.666 78.9062 177.652H77.8672V171.514H83.7461ZM87.2734 178.637V183.121H79.1387V178.637H87.2734ZM80.8613 179.99V181.727H85.5508V179.99H80.8613ZM87.2734 170.816V173.729H88.9551V175.164H87.2734V178.09H85.5234V170.816H87.2734Z" fill="white"/>
</g>
<g filter="url(#filter18_d_1574_1039)">
<path d="M75.582 176.572V177.967H66.7773V171.855H75.4863V173.264H68.5V176.572H75.582ZM76.8262 180.305V181.74H65.4375V180.305H76.8262Z" fill="white"/>
</g>
<g filter="url(#filter19_d_1574_1039)">
<path d="M63.9395 170.816V183.258H62.1758V170.816H63.9395ZM60.8359 171.965V173.359H59.7285V178.76C60.2754 178.726 60.8154 178.671 61.3418 178.609L61.4238 179.908C58.7715 180.346 55.9004 180.387 53.6172 180.4L53.4531 178.979L54.8887 178.965V173.359H53.7949V171.965H60.8359ZM56.584 178.924L58.0332 178.869V173.359H56.584V178.924Z" fill="white"/>
</g>
<g filter="url(#filter20_d_1574_1039)">
<path d="M55.25 72.9336C55.2461 74.1211 55.1094 75.1895 54.8398 76.1387C54.5742 77.084 54.0938 77.9648 53.3984 78.7812C52.707 79.5977 51.7461 80.3242 50.5156 80.9609L49.6953 79.8359C50.5273 79.3945 51.2148 78.9238 51.7578 78.4238C52.3047 77.9238 52.7344 77.375 53.0469 76.7773L49.9531 77.0586L49.7539 75.793L53.5156 75.5703C53.6328 75.1406 53.7129 74.6602 53.7559 74.1289H50.3281V72.9336H55.25ZM58.7656 82.5781H57.2773V77.2344H55.2266V76.0156H57.2773V71.9141H58.7656V82.5781Z" fill="white"/>
</g>
<g filter="url(#filter21_d_1574_1039)">
<path d="M45.5352 74.0117H41.5859V75.7695H45.0898V76.9414H41.5859V78.957C42.4766 78.9492 43.2617 78.9238 43.9414 78.8809C44.6211 78.8379 45.3125 78.7617 46.0156 78.6523L46.1562 79.8594C45.3711 79.9727 44.584 80.0508 43.7949 80.0938C43.0098 80.1328 42.0859 80.1523 41.0234 80.1523H40.1094V72.793H45.5352V74.0117ZM48.4883 82.5781H46.9766V71.9141H48.4883V82.5781Z" fill="white"/>
</g>
<g filter="url(#filter22_d_1574_1039)">
<path d="M34.8867 73.3203C34.8867 73.8516 35.0371 74.3711 35.3379 74.8789C35.6426 75.3867 36.082 75.8281 36.6562 76.2031C37.2344 76.5781 37.9102 76.832 38.6836 76.9648L38.0273 78.207C37.1133 78.0273 36.3164 77.6934 35.6367 77.2051C34.9609 76.7168 34.4473 76.123 34.0957 75.4238C33.7363 76.1191 33.2168 76.7109 32.5371 77.1992C31.8613 77.6875 31.0703 78.0234 30.1641 78.207L29.5195 76.9648C30.2812 76.8281 30.9473 76.5723 31.5176 76.1973C32.0879 75.8223 32.5254 75.3809 32.8301 74.873C33.1348 74.3613 33.2891 73.8438 33.293 73.3203V72.5469H34.8867V73.3203ZM39.0352 81.2656H29.2734V80.0352H39.0352V81.2656Z" fill="white"/>
</g>
<defs>
<filter id="filter0_d_1574_1039" x="216.336" y="118.031" width="14.6094" height="19.2031" filterUnits="userSpaceOnUse" color-interpolation-filters="sRGB">
<feFlood flood-opacity="0" result="BackgroundImageFix"/>
<feColorMatrix in="SourceAlpha" type="matrix" values="0 0 0 0 0 0 0 0 0 0 0 0 0 0 0 0 0 0 127 0" result="hardAlpha"/>
<feOffset dy="1"/>
<feGaussianBlur stdDeviation="0.5"/>
<feComposite in2="hardAlpha" operator="out"/>
<feColorMatrix type="matrix" values="0 0 0 0 0.220647 0 0 0 0 0.205576 0 0 0 0 0.205576 0 0 0 0.17 0"/>
<feBlend mode="normal" in2="BackgroundImageFix" result="effect1_dropShadow_1574_1039"/>
<feBlend mode="normal" in="SourceGraphic" in2="effect1_dropShadow_1574_1039" result="shape"/>
</filter>
<filter id="filter1_d_1574_1039" x="209.984" y="131.297" width="5.91406" height="5.91406" filterUnits="userSpaceOnUse" color-interpolation-filters="sRGB">
<feFlood flood-opacity="0" result="BackgroundImageFix"/>
<feColorMatrix in="SourceAlpha" type="matrix" values="0 0 0 0 0 0 0 0 0 0 0 0 0 0 0 0 0 0 127 0" result="hardAlpha"/>
<feOffset dy="1"/>
<feGaussianBlur stdDeviation="0.5"/>
<feComposite in2="hardAlpha" operator="out"/>
<feColorMatrix type="matrix" values="0 0 0 0 0.220647 0 0 0 0 0.205576 0 0 0 0 0.205576 0 0 0 0.17 0"/>
<feBlend mode="normal" in2="BackgroundImageFix" result="effect1_dropShadow_1574_1039"/>
<feBlend mode="normal" in="SourceGraphic" in2="effect1_dropShadow_1574_1039" result="shape"/>
</filter>
<filter id="filter2_d_1574_1039" x="195.32" y="117.797" width="14.3047" height="19.2031" filterUnits="userSpaceOnUse" color-interpolation-filters="sRGB">
<feFlood flood-opacity="0" result="BackgroundImageFix"/>
<feColorMatrix in="SourceAlpha" type="matrix" values="0 0 0 0 0 0 0 0 0 0 0 0 0 0 0 0 0 0 127 0" result="hardAlpha"/>
<feOffset dy="1"/>
<feGaussianBlur stdDeviation="0.5"/>
<feComposite in2="hardAlpha" operator="out"/>
<feColorMatrix type="matrix" values="0 0 0 0 0.220647 0 0 0 0 0.205576 0 0 0 0 0.205576 0 0 0 0.17 0"/>
<feBlend mode="normal" in2="BackgroundImageFix" result="effect1_dropShadow_1574_1039"/>
<feBlend mode="normal" in="SourceGraphic" in2="effect1_dropShadow_1574_1039" result="shape"/>
</filter>
<filter id="filter3_d_1574_1039" x="179.672" y="118.031" width="15.7578" height="18.9688" filterUnits="userSpaceOnUse" color-interpolation-filters="sRGB">
<feFlood flood-opacity="0" result="BackgroundImageFix"/>
<feColorMatrix in="SourceAlpha" type="matrix" values="0 0 0 0 0 0 0 0 0 0 0 0 0 0 0 0 0 0 127 0" result="hardAlpha"/>
<feOffset dy="1"/>
<feGaussianBlur stdDeviation="0.5"/>
<feComposite in2="hardAlpha" operator="out"/>
<feColorMatrix type="matrix" values="0 0 0 0 0.220647 0 0 0 0 0.205576 0 0 0 0 0.205576 0 0 0 0.17 0"/>
<feBlend mode="normal" in2="BackgroundImageFix" result="effect1_dropShadow_1574_1039"/>
<feBlend mode="normal" in="SourceGraphic" in2="effect1_dropShadow_1574_1039" result="shape"/>
</filter>
<filter id="filter4_d_1574_1039" x="216.445" y="97.0483" width="13.3906" height="14.1543" filterUnits="userSpaceOnUse" color-interpolation-filters="sRGB">
<feFlood flood-opacity="0" result="BackgroundImageFix"/>
<feColorMatrix in="SourceAlpha" type="matrix" values="0 0 0 0 0 0 0 0 0 0 0 0 0 0 0 0 0 0 127 0" result="hardAlpha"/>
<feOffset dy="1"/>
<feGaussianBlur stdDeviation="0.5"/>
<feComposite in2="hardAlpha" operator="out"/>
<feColorMatrix type="matrix" values="0 0 0 0 0.220647 0 0 0 0 0.205576 0 0 0 0 0.205576 0 0 0 0.17 0"/>
<feBlend mode="normal" in2="BackgroundImageFix" result="effect1_dropShadow_1574_1039"/>
<feBlend mode="normal" in="SourceGraphic" in2="effect1_dropShadow_1574_1039" result="shape"/>
</filter>
<filter id="filter5_d_1574_1039" x="204.539" y="96.8159" width="12.4141" height="14.4414" filterUnits="userSpaceOnUse" color-interpolation-filters="sRGB">
<feFlood flood-opacity="0" result="BackgroundImageFix"/>
<feColorMatrix in="SourceAlpha" type="matrix" values="0 0 0 0 0 0 0 0 0 0 0 0 0 0 0 0 0 0 127 0" result="hardAlpha"/>
<feOffset dy="1"/>
<feGaussianBlur stdDeviation="0.5"/>
<feComposite in2="hardAlpha" operator="out"/>
<feColorMatrix type="matrix" values="0 0 0 0 0.220647 0 0 0 0 0.205576 0 0 0 0 0.205576 0 0 0 0.17 0"/>
<feBlend mode="normal" in2="BackgroundImageFix" result="effect1_dropShadow_1574_1039"/>
<feBlend mode="normal" in="SourceGraphic" in2="effect1_dropShadow_1574_1039" result="shape"/>
</filter>
<filter id="filter6_d_1574_1039" x="192.352" y="96.8159" width="13.7422" height="14.4414" filterUnits="userSpaceOnUse" color-interpolation-filters="sRGB">
<feFlood flood-opacity="0" result="BackgroundImageFix"/>
<feColorMatrix in="SourceAlpha" type="matrix" values="0 0 0 0 0 0 0 0 0 0 0 0 0 0 0 0 0 0 127 0" result="hardAlpha"/>
<feOffset dy="1"/>
<feGaussianBlur stdDeviation="0.5"/>
<feComposite in2="hardAlpha" operator="out"/>
<feColorMatrix type="matrix" values="0 0 0 0 0.220647 0 0 0 0 0.205576 0 0 0 0 0.205576 0 0 0 0.17 0"/>
<feBlend mode="normal" in2="BackgroundImageFix" result="effect1_dropShadow_1574_1039"/>
<feBlend mode="normal" in="SourceGraphic" in2="effect1_dropShadow_1574_1039" result="shape"/>
</filter>
<filter id="filter7_d_1574_1039" x="180.773" y="96.8159" width="12.5703" height="14.3047" filterUnits="userSpaceOnUse" color-interpolation-filters="sRGB">
<feFlood flood-opacity="0" result="BackgroundImageFix"/>
<feColorMatrix in="SourceAlpha" type="matrix" values="0 0 0 0 0 0 0 0 0 0 0 0 0 0 0 0 0 0 127 0" result="hardAlpha"/>
<feOffset dy="1"/>
<feGaussianBlur stdDeviation="0.5"/>
<feComposite in2="hardAlpha" operator="out"/>
<feColorMatrix type="matrix" values="0 0 0 0 0.220647 0 0 0 0 0.205576 0 0 0 0 0.205576 0 0 0 0.17 0"/>
<feBlend mode="normal" in2="BackgroundImageFix" result="effect1_dropShadow_1574_1039"/>
<feBlend mode="normal" in="SourceGraphic" in2="effect1_dropShadow_1574_1039" result="shape"/>
</filter>
<filter id="filter8_d_1574_1039" x="50.8594" y="89.6641" width="12.8594" height="16.5312" filterUnits="userSpaceOnUse" color-interpolation-filters="sRGB">
<feFlood flood-opacity="0" result="BackgroundImageFix"/>
<feColorMatrix in="SourceAlpha" type="matrix" values="0 0 0 0 0 0 0 0 0 0 0 0 0 0 0 0 0 0 127 0" result="hardAlpha"/>
<feOffset dy="1"/>
<feGaussianBlur stdDeviation="0.5"/>
<feComposite in2="hardAlpha" operator="out"/>
<feColorMatrix type="matrix" values="0 0 0 0 0.220647 0 0 0 0 0.205576 0 0 0 0 0.205576 0 0 0 0.17 0"/>
<feBlend mode="normal" in2="BackgroundImageFix" result="effect1_dropShadow_1574_1039"/>
<feBlend mode="normal" in="SourceGraphic" in2="effect1_dropShadow_1574_1039" result="shape"/>
</filter>
<filter id="filter9_d_1574_1039" x="46.1016" y="100.914" width="5.26562" height="5.26172" filterUnits="userSpaceOnUse" color-interpolation-filters="sRGB">
<feFlood flood-opacity="0" result="BackgroundImageFix"/>
<feColorMatrix in="SourceAlpha" type="matrix" values="0 0 0 0 0 0 0 0 0 0 0 0 0 0 0 0 0 0 127 0" result="hardAlpha"/>
<feOffset dy="1"/>
<feGaussianBlur stdDeviation="0.5"/>
<feComposite in2="hardAlpha" operator="out"/>
<feColorMatrix type="matrix" values="0 0 0 0 0.220647 0 0 0 0 0.205576 0 0 0 0 0.205576 0 0 0 0.17 0"/>
<feBlend mode="normal" in2="BackgroundImageFix" result="effect1_dropShadow_1574_1039"/>
<feBlend mode="normal" in="SourceGraphic" in2="effect1_dropShadow_1574_1039" result="shape"/>
</filter>
<filter id="filter10_d_1574_1039" x="33.875" y="89.6641" width="12.2578" height="16.3359" filterUnits="userSpaceOnUse" color-interpolation-filters="sRGB">
<feFlood flood-opacity="0" result="BackgroundImageFix"/>
<feColorMatrix in="SourceAlpha" type="matrix" values="0 0 0 0 0 0 0 0 0 0 0 0 0 0 0 0 0 0 127 0" result="hardAlpha"/>
<feOffset dy="1"/>
<feGaussianBlur stdDeviation="0.5"/>
<feComposite in2="hardAlpha" operator="out"/>
<feColorMatrix type="matrix" values="0 0 0 0 0.220647 0 0 0 0 0.205576 0 0 0 0 0.205576 0 0 0 0.17 0"/>
<feBlend mode="normal" in2="BackgroundImageFix" result="effect1_dropShadow_1574_1039"/>
<feBlend mode="normal" in="SourceGraphic" in2="effect1_dropShadow_1574_1039" result="shape"/>
</filter>
<filter id="filter11_d_1574_1039" x="24.6641" y="89.8594" width="8.27344" height="16.1406" filterUnits="userSpaceOnUse" color-interpolation-filters="sRGB">
<feFlood flood-opacity="0" result="BackgroundImageFix"/>
<feColorMatrix in="SourceAlpha" type="matrix" values="0 0 0 0 0 0 0 0 0 0 0 0 0 0 0 0 0 0 127 0" result="hardAlpha"/>
<feOffset dy="1"/>
<feGaussianBlur stdDeviation="0.5"/>
<feComposite in2="hardAlpha" operator="out"/>
<feColorMatrix type="matrix" values="0 0 0 0 0.220647 0 0 0 0 0.205576 0 0 0 0 0.205576 0 0 0 0.17 0"/>
<feBlend mode="normal" in2="BackgroundImageFix" result="effect1_dropShadow_1574_1039"/>
<feBlend mode="normal" in="SourceGraphic" in2="effect1_dropShadow_1574_1039" result="shape"/>
</filter>
<filter id="filter12_d_1574_1039" x="85.8438" y="193.455" width="13.9766" height="18.9688" filterUnits="userSpaceOnUse" color-interpolation-filters="sRGB">
<feFlood flood-opacity="0" result="BackgroundImageFix"/>
<feColorMatrix in="SourceAlpha" type="matrix" values="0 0 0 0 0 0 0 0 0 0 0 0 0 0 0 0 0 0 127 0" result="hardAlpha"/>
<feOffset dy="1"/>
<feGaussianBlur stdDeviation="0.5"/>
<feComposite in2="hardAlpha" operator="out"/>
<feColorMatrix type="matrix" values="0 0 0 0 0.220647 0 0 0 0 0.205576 0 0 0 0 0.205576 0 0 0 0.17 0"/>
<feBlend mode="normal" in2="BackgroundImageFix" result="effect1_dropShadow_1574_1039"/>
<feBlend mode="normal" in="SourceGraphic" in2="effect1_dropShadow_1574_1039" result="shape"/>
</filter>
<filter id="filter13_d_1574_1039" x="80.5312" y="206.72" width="5.91406" height="5.91406" filterUnits="userSpaceOnUse" color-interpolation-filters="sRGB">
<feFlood flood-opacity="0" result="BackgroundImageFix"/>
<feColorMatrix in="SourceAlpha" type="matrix" values="0 0 0 0 0 0 0 0 0 0 0 0 0 0 0 0 0 0 127 0" result="hardAlpha"/>
<feOffset dy="1"/>
<feGaussianBlur stdDeviation="0.5"/>
<feComposite in2="hardAlpha" operator="out"/>
<feColorMatrix type="matrix" values="0 0 0 0 0.220647 0 0 0 0 0.205576 0 0 0 0 0.205576 0 0 0 0.17 0"/>
<feBlend mode="normal" in2="BackgroundImageFix" result="effect1_dropShadow_1574_1039"/>
<feBlend mode="normal" in="SourceGraphic" in2="effect1_dropShadow_1574_1039" result="shape"/>
</filter>
<filter id="filter14_d_1574_1039" x="69.2891" y="193.455" width="13.9766" height="18.9688" filterUnits="userSpaceOnUse" color-interpolation-filters="sRGB">
<feFlood flood-opacity="0" result="BackgroundImageFix"/>
<feColorMatrix in="SourceAlpha" type="matrix" values="0 0 0 0 0 0 0 0 0 0 0 0 0 0 0 0 0 0 127 0" result="hardAlpha"/>
<feOffset dy="1"/>
<feGaussianBlur stdDeviation="0.5"/>
<feComposite in2="hardAlpha" operator="out"/>
<feColorMatrix type="matrix" values="0 0 0 0 0.220647 0 0 0 0 0.205576 0 0 0 0 0.205576 0 0 0 0.17 0"/>
<feBlend mode="normal" in2="BackgroundImageFix" result="effect1_dropShadow_1574_1039"/>
<feBlend mode="normal" in="SourceGraphic" in2="effect1_dropShadow_1574_1039" result="shape"/>
</filter>
<filter id="filter15_d_1574_1039" x="54.5234" y="193.22" width="15.0312" height="19.4375" filterUnits="userSpaceOnUse" color-interpolation-filters="sRGB">
<feFlood flood-opacity="0" result="BackgroundImageFix"/>
<feColorMatrix in="SourceAlpha" type="matrix" values="0 0 0 0 0 0 0 0 0 0 0 0 0 0 0 0 0 0 127 0" result="hardAlpha"/>
<feOffset dy="1"/>
<feGaussianBlur stdDeviation="0.5"/>
<feComposite in2="hardAlpha" operator="out"/>
<feColorMatrix type="matrix" values="0 0 0 0 0.220647 0 0 0 0 0.205576 0 0 0 0 0.205576 0 0 0 0.17 0"/>
<feBlend mode="normal" in2="BackgroundImageFix" result="effect1_dropShadow_1574_1039"/>
<feBlend mode="normal" in="SourceGraphic" in2="effect1_dropShadow_1574_1039" result="shape"/>
</filter>
<filter id="filter16_d_1574_1039" x="88.1797" y="170.83" width="12.8672" height="14.4277" filterUnits="userSpaceOnUse" color-interpolation-filters="sRGB">
<feFlood flood-opacity="0" result="BackgroundImageFix"/>
<feColorMatrix in="SourceAlpha" type="matrix" values="0 0 0 0 0 0 0 0 0 0 0 0 0 0 0 0 0 0 127 0" result="hardAlpha"/>
<feOffset dy="1"/>
<feGaussianBlur stdDeviation="0.5"/>
<feComposite in2="hardAlpha" operator="out"/>
<feColorMatrix type="matrix" values="0 0 0 0 0.220647 0 0 0 0 0.205576 0 0 0 0 0.205576 0 0 0 0.17 0"/>
<feBlend mode="normal" in2="BackgroundImageFix" result="effect1_dropShadow_1574_1039"/>
<feBlend mode="normal" in="SourceGraphic" in2="effect1_dropShadow_1574_1039" result="shape"/>
</filter>
<filter id="filter17_d_1574_1039" x="76.8672" y="170.816" width="13.0859" height="14.3047" filterUnits="userSpaceOnUse" color-interpolation-filters="sRGB">
<feFlood flood-opacity="0" result="BackgroundImageFix"/>
<feColorMatrix in="SourceAlpha" type="matrix" values="0 0 0 0 0 0 0 0 0 0 0 0 0 0 0 0 0 0 127 0" result="hardAlpha"/>
<feOffset dy="1"/>
<feGaussianBlur stdDeviation="0.5"/>
<feComposite in2="hardAlpha" operator="out"/>
<feColorMatrix type="matrix" values="0 0 0 0 0.220647 0 0 0 0 0.205576 0 0 0 0 0.205576 0 0 0 0.17 0"/>
<feBlend mode="normal" in2="BackgroundImageFix" result="effect1_dropShadow_1574_1039"/>
<feBlend mode="normal" in="SourceGraphic" in2="effect1_dropShadow_1574_1039" result="shape"/>
</filter>
<filter id="filter18_d_1574_1039" x="64.4375" y="171.855" width="13.3906" height="11.8848" filterUnits="userSpaceOnUse" color-interpolation-filters="sRGB">
<feFlood flood-opacity="0" result="BackgroundImageFix"/>
<feColorMatrix in="SourceAlpha" type="matrix" values="0 0 0 0 0 0 0 0 0 0 0 0 0 0 0 0 0 0 127 0" result="hardAlpha"/>
<feOffset dy="1"/>
<feGaussianBlur stdDeviation="0.5"/>
<feComposite in2="hardAlpha" operator="out"/>
<feColorMatrix type="matrix" values="0 0 0 0 0.220647 0 0 0 0 0.205576 0 0 0 0 0.205576 0 0 0 0.17 0"/>
<feBlend mode="normal" in2="BackgroundImageFix" result="effect1_dropShadow_1574_1039"/>
<feBlend mode="normal" in="SourceGraphic" in2="effect1_dropShadow_1574_1039" result="shape"/>
</filter>
<filter id="filter19_d_1574_1039" x="52.4531" y="170.816" width="12.4844" height="14.4414" filterUnits="userSpaceOnUse" color-interpolation-filters="sRGB">
<feFlood flood-opacity="0" result="BackgroundImageFix"/>
<feColorMatrix in="SourceAlpha" type="matrix" values="0 0 0 0 0 0 0 0 0 0 0 0 0 0 0 0 0 0 127 0" result="hardAlpha"/>
<feOffset dy="1"/>
<feGaussianBlur stdDeviation="0.5"/>
<feComposite in2="hardAlpha" operator="out"/>
<feColorMatrix type="matrix" values="0 0 0 0 0.220647 0 0 0 0 0.205576 0 0 0 0 0.205576 0 0 0 0.17 0"/>
<feBlend mode="normal" in2="BackgroundImageFix" result="effect1_dropShadow_1574_1039"/>
<feBlend mode="normal" in="SourceGraphic" in2="effect1_dropShadow_1574_1039" result="shape"/>
</filter>
<filter id="filter20_d_1574_1039" x="48.6953" y="71.9141" width="11.0703" height="12.6641" filterUnits="userSpaceOnUse" color-interpolation-filters="sRGB">
<feFlood flood-opacity="0" result="BackgroundImageFix"/>
<feColorMatrix in="SourceAlpha" type="matrix" values="0 0 0 0 0 0 0 0 0 0 0 0 0 0 0 0 0 0 127 0" result="hardAlpha"/>
<feOffset dy="1"/>
<feGaussianBlur stdDeviation="0.5"/>
<feComposite in2="hardAlpha" operator="out"/>
<feColorMatrix type="matrix" values="0 0 0 0 0.220647 0 0 0 0 0.205576 0 0 0 0 0.205576 0 0 0 0.17 0"/>
<feBlend mode="normal" in2="BackgroundImageFix" result="effect1_dropShadow_1574_1039"/>
<feBlend mode="normal" in="SourceGraphic" in2="effect1_dropShadow_1574_1039" result="shape"/>
</filter>
<filter id="filter21_d_1574_1039" x="39.1094" y="71.9141" width="10.375" height="12.6641" filterUnits="userSpaceOnUse" color-interpolation-filters="sRGB">
<feFlood flood-opacity="0" result="BackgroundImageFix"/>
<feColorMatrix in="SourceAlpha" type="matrix" values="0 0 0 0 0 0 0 0 0 0 0 0 0 0 0 0 0 0 127 0" result="hardAlpha"/>
<feOffset dy="1"/>
<feGaussianBlur stdDeviation="0.5"/>
<feComposite in2="hardAlpha" operator="out"/>
<feColorMatrix type="matrix" values="0 0 0 0 0.220647 0 0 0 0 0.205576 0 0 0 0 0.205576 0 0 0 0.17 0"/>
<feBlend mode="normal" in2="BackgroundImageFix" result="effect1_dropShadow_1574_1039"/>
<feBlend mode="normal" in="SourceGraphic" in2="effect1_dropShadow_1574_1039" result="shape"/>
</filter>
<filter id="filter22_d_1574_1039" x="28.2734" y="72.5469" width="11.7578" height="10.7188" filterUnits="userSpaceOnUse" color-interpolation-filters="sRGB">
<feFlood flood-opacity="0" result="BackgroundImageFix"/>
<feColorMatrix in="SourceAlpha" type="matrix" values="0 0 0 0 0 0 0 0 0 0 0 0 0 0 0 0 0 0 127 0" result="hardAlpha"/>
<feOffset dy="1"/>
<feGaussianBlur stdDeviation="0.5"/>
<feComposite in2="hardAlpha" operator="out"/>
<feColorMatrix type="matrix" values="0 0 0 0 0.220647 0 0 0 0 0.205576 0 0 0 0 0.205576 0 0 0 0.17 0"/>
<feBlend mode="normal" in2="BackgroundImageFix" result="effect1_dropShadow_1574_1039"/>
<feBlend mode="normal" in="SourceGraphic" in2="effect1_dropShadow_1574_1039" result="shape"/>
</filter>
</defs>
</svg>
