<svg width="253" height="254" viewBox="0 0 253 254" fill="none" xmlns="http://www.w3.org/2000/svg">
<path d="M60.8203 18.3481C80.7022 6.23137 103.522 -0.117738 126.761 0.00165328L126.311 88.8402C119.328 88.8043 112.472 90.7121 106.498 94.3529L60.8203 18.3481Z" fill="#DEDEDE"/>
<path d="M14.3594 68.1434C25.4503 46.788 42.3462 29.0512 63.0737 17.0046L107.202 94.0013C100.984 97.6153 95.915 102.936 92.5877 109.343L14.3594 68.1434Z" fill="#CCCCCC"/>
<path d="M0.588309 139.252C-1.77244 114.724 3.00397 90.0345 14.3353 68.1929L92.5815 109.358C89.1821 115.91 87.7492 123.317 88.4574 130.676L0.588309 139.252Z" fill="#848484"/>
<path d="M126.113 0C142.708 1.99282e-07 159.14 3.29819 174.467 9.70551C189.793 16.1128 203.714 25.5033 215.43 37.3386C227.146 49.1739 236.427 63.2214 242.742 78.6758C249.056 94.1302 252.28 110.688 252.228 127.399C252.176 144.11 248.849 160.647 242.438 176.061C236.027 191.475 226.658 205.464 214.869 217.225C203.079 228.986 189.1 238.288 173.734 244.598C158.367 250.908 141.915 254.102 125.32 253.997L125.875 165.099C130.853 165.131 135.789 164.172 140.399 162.279C145.009 160.386 149.203 157.596 152.74 154.067C156.276 150.539 159.087 146.343 161.01 141.718C162.933 137.094 163.932 132.133 163.947 127.12C163.963 122.106 162.996 117.139 161.101 112.503C159.207 107.866 156.423 103.652 152.908 100.102C149.393 96.551 145.217 93.7338 140.619 91.8117C136.021 89.8895 131.091 88.9 126.113 88.9V0Z" fill="#FD295F"/>
<g filter="url(#filter0_d_3772_2987)">
<path d="M225.398 144H221.859V130.383H221.766L217.875 132.821V129.704L222.07 127.032H225.398V144Z" fill="white"/>
</g>
<g filter="url(#filter1_d_3772_2987)">
<path d="M215.727 144.211C215.368 144.211 215.036 144.122 214.731 143.942C214.426 143.762 214.184 143.524 214.004 143.227C213.833 142.922 213.751 142.594 213.758 142.243C213.751 141.891 213.833 141.567 214.004 141.27C214.184 140.973 214.426 140.739 214.731 140.567C215.036 140.387 215.368 140.297 215.727 140.297C216.063 140.297 216.379 140.387 216.676 140.567C216.981 140.739 217.223 140.973 217.403 141.27C217.583 141.567 217.672 141.891 217.672 142.243C217.672 142.594 217.583 142.922 217.403 143.227C217.223 143.524 216.981 143.762 216.676 143.942C216.379 144.122 216.063 144.211 215.727 144.211Z" fill="white"/>
</g>
<g filter="url(#filter2_d_3772_2987)">
<path d="M205.352 144.235C203.938 144.235 202.719 143.895 201.695 143.215C200.68 142.528 199.898 141.532 199.352 140.227C198.805 138.922 198.531 137.352 198.531 135.516C198.531 133.68 198.805 132.11 199.352 130.805C199.898 129.5 200.68 128.508 201.695 127.829C202.719 127.141 203.938 126.797 205.352 126.797C206.758 126.797 207.973 127.141 208.996 127.829C210.02 128.508 210.805 129.504 211.352 130.817C211.898 132.122 212.172 133.688 212.172 135.516C212.172 137.36 211.898 138.934 211.352 140.239C210.805 141.543 210.02 142.536 208.996 143.215C207.98 143.895 206.766 144.235 205.352 144.235ZM205.352 141.329C206.008 141.329 206.574 141.118 207.051 140.696C207.535 140.274 207.906 139.637 208.164 138.786C208.43 137.934 208.562 136.883 208.562 135.633C208.562 133.688 208.281 132.211 207.719 131.204C207.156 130.188 206.367 129.68 205.352 129.68C204.336 129.68 203.547 130.188 202.984 131.204C202.422 132.211 202.141 133.688 202.141 135.633C202.141 136.883 202.27 137.934 202.527 138.786C202.793 139.637 203.164 140.274 203.641 140.696C204.125 141.118 204.695 141.329 205.352 141.329Z" fill="white"/>
</g>
<g filter="url(#filter3_d_3772_2987)">
<path d="M190.188 144.235C189.023 144.235 187.973 144.02 187.035 143.59C186.105 143.161 185.371 142.567 184.832 141.809C184.301 141.043 184.023 140.18 184 139.219H187.422C187.445 139.657 187.582 140.043 187.832 140.379C188.082 140.715 188.414 140.977 188.828 141.165C189.242 141.352 189.695 141.446 190.188 141.446C190.766 141.446 191.281 141.321 191.734 141.071C192.195 140.813 192.551 140.458 192.801 140.004C193.059 139.543 193.188 139.024 193.188 138.446C193.188 137.852 193.059 137.325 192.801 136.864C192.543 136.403 192.18 136.043 191.711 135.786C191.25 135.52 190.727 135.383 190.141 135.375C188.867 135.375 187.977 135.852 187.469 136.805H184.281L185.195 127.032H195.648V129.915H188.102L187.633 134.204H187.773C188.094 133.774 188.555 133.43 189.156 133.172C189.766 132.907 190.438 132.774 191.172 132.774C192.203 132.774 193.129 133.012 193.949 133.489C194.777 133.965 195.426 134.629 195.895 135.481C196.371 136.325 196.609 137.282 196.609 138.352C196.609 139.485 196.34 140.497 195.801 141.387C195.262 142.278 194.504 142.977 193.527 143.485C192.559 143.985 191.445 144.235 190.188 144.235Z" fill="white"/>
</g>
<g filter="url(#filter4_d_3772_2987)">
<path d="M228.834 113.35H224.145V115.496H222.422V113.35H217.445V111.969H228.834V113.35ZM227.371 110.943H218.867V106.363H227.371V110.943ZM220.576 109.59H225.662V107.717H220.576V109.59ZM227.576 118.039H218.785V114.416H220.521V116.645H227.576V118.039Z" fill="white"/>
</g>
<g filter="url(#filter5_d_3772_2987)">
<path d="M215.904 112.201H214.168V105.816H215.904V112.201ZM215.918 116.016H209.301V116.836H216.26V118.176H207.592V114.771H214.182V114.02H207.564V112.693H215.918V116.016ZM212.855 107.785H210.367C210.408 108.214 210.543 108.621 210.771 109.009C211.003 109.396 211.333 109.74 211.762 110.041C212.195 110.342 212.719 110.574 213.334 110.738L212.5 112.078C211.798 111.887 211.194 111.595 210.688 111.203C210.183 110.807 209.786 110.335 209.499 109.788C209.207 110.399 208.795 110.925 208.262 111.367C207.733 111.805 207.095 112.128 206.348 112.338L205.555 110.957C206.179 110.784 206.71 110.535 207.147 110.212C207.585 109.884 207.92 109.512 208.152 109.098C208.385 108.678 208.521 108.241 208.562 107.785H206.02V106.391H212.855V107.785Z" fill="white"/>
</g>
<g filter="url(#filter6_d_3772_2987)">
<path d="M204.043 118.285H202.32V111.613H200.133V110.205H202.32V105.816H204.043V118.285ZM199.928 108.264H195.854V110.328H199.477V111.695H195.854V114.047C196.792 114.038 197.619 114.013 198.335 113.972C199.05 113.926 199.773 113.846 200.502 113.732L200.68 115.127C199.814 115.259 198.952 115.35 198.096 115.4C197.239 115.446 196.241 115.469 195.102 115.469H194.117V106.855H199.928V108.264Z" fill="white"/>
</g>
<g filter="url(#filter7_d_3772_2987)">
<path d="M192.951 114.594H190.326V118.258H188.562V114.594H185.965V118.258H184.229V114.594H181.562V113.172H192.951V114.594ZM191.734 112.297H182.998V106.322H191.598V107.689H184.707V108.605H191.338V109.959H184.707V110.916H191.734V112.297Z" fill="white"/>
</g>
<path d="M126.111 254C94.7173 254 64.4526 242.209 41.2332 220.933C18.0137 199.657 3.50903 170.425 0.554688 138.952L88.4438 130.585C89.3301 140.027 93.6815 148.797 100.647 155.18C107.613 161.563 116.693 165.1 126.111 165.1L126.111 254Z" fill="#595959"/>
<g filter="url(#filter8_d_3772_2987)">
<path d="M39.2423 124.871L44.3205 120.203C44.8218 119.721 45.2091 119.321 45.4826 119.002C45.7625 118.683 45.9774 118.367 46.1271 118.055C46.2768 117.736 46.3517 117.397 46.3517 117.039C46.3517 116.629 46.2541 116.271 46.0587 115.965C45.8699 115.659 45.603 115.424 45.258 115.262C44.9194 115.092 44.5353 115.008 44.1056 115.008C43.4416 115.008 42.911 115.206 42.5138 115.604C42.1167 115.994 41.9181 116.525 41.9181 117.195H39.1252C39.1186 116.284 39.3237 115.486 39.7404 114.803C40.1636 114.119 40.756 113.592 41.5177 113.221C42.2794 112.85 43.1551 112.664 44.1447 112.664C45.1408 112.664 46.0197 112.843 46.7814 113.201C47.5431 113.553 48.1323 114.044 48.549 114.676C48.9722 115.307 49.1837 116.03 49.1837 116.844C49.1837 117.397 49.0763 117.931 48.8615 118.445C48.6466 118.953 48.2723 119.523 47.7384 120.154C47.2111 120.779 46.4624 121.531 45.4923 122.41L43.3439 124.5V124.578H49.3791V127H39.2619L39.2423 124.871Z" fill="white"/>
</g>
<g filter="url(#filter9_d_3772_2987)">
<path d="M35.5395 127.176C35.24 127.176 34.9633 127.101 34.7094 126.951C34.4555 126.801 34.2537 126.603 34.1039 126.355C33.9607 126.102 33.8924 125.828 33.8989 125.535C33.8924 125.242 33.9607 124.972 34.1039 124.725C34.2537 124.477 34.4555 124.282 34.7094 124.139C34.9633 123.989 35.24 123.914 35.5395 123.914C35.8194 123.914 36.0831 123.989 36.3305 124.139C36.5844 124.282 36.7862 124.477 36.936 124.725C37.0857 124.972 37.1606 125.242 37.1606 125.535C37.1606 125.828 37.0857 126.102 36.936 126.355C36.7862 126.603 36.5844 126.801 36.3305 126.951C36.0831 127.101 35.8194 127.176 35.5395 127.176Z" fill="white"/>
</g>
<g filter="url(#filter10_d_3772_2987)">
<path d="M26.875 112.664C27.9232 112.664 28.877 112.892 29.7363 113.348C30.6022 113.797 31.2988 114.536 31.8262 115.564C32.3535 116.587 32.6172 117.918 32.6172 119.559C32.6237 121.141 32.3893 122.508 31.9141 123.66C31.4388 124.806 30.7617 125.682 29.8828 126.287C29.0104 126.893 27.9818 127.195 26.7969 127.195C25.8659 127.195 25.0326 127.016 24.2969 126.658C23.5677 126.3 22.9785 125.805 22.5293 125.174C22.0866 124.536 21.8164 123.816 21.7188 123.016H24.6094C24.7266 123.536 24.9772 123.943 25.3613 124.236C25.752 124.529 26.2305 124.676 26.7969 124.676C27.7539 124.676 28.4831 124.275 28.9844 123.475C29.4922 122.674 29.7461 121.557 29.7461 120.125H29.6289C29.2969 120.75 28.8053 121.238 28.1543 121.59C27.5098 121.941 26.7904 122.117 25.9961 122.117C25.1628 122.117 24.4076 121.922 23.7305 121.531C23.0599 121.141 22.5326 120.6 22.1484 119.91C21.7643 119.214 21.569 118.432 21.5625 117.566C21.5625 116.629 21.7839 115.789 22.2266 115.047C22.6693 114.298 23.2943 113.715 24.1016 113.299C24.9089 112.876 25.8333 112.664 26.875 112.664ZM26.9336 114.969C26.4648 114.969 26.0384 115.079 25.6543 115.301C25.2767 115.522 24.9772 115.822 24.7559 116.199C24.541 116.577 24.4336 116.993 24.4336 117.449C24.4336 117.918 24.5378 118.344 24.7461 118.729C24.9609 119.113 25.2572 119.415 25.6348 119.637C26.0124 119.858 26.4388 119.969 26.9141 119.969C27.3828 119.969 27.8092 119.858 28.1934 119.637C28.584 119.409 28.89 119.103 29.1113 118.719C29.3392 118.335 29.4531 117.918 29.4531 117.469C29.4466 117.02 29.3327 116.606 29.1113 116.229C28.89 115.844 28.5872 115.538 28.2031 115.311C27.8255 115.083 27.4023 114.969 26.9336 114.969Z" fill="white"/>
</g>
<path d="M54.7578 64.1851C55.5964 64.1851 56.3594 64.3674 57.0469 64.7319C57.7396 65.0913 58.2969 65.6825 58.7188 66.5054C59.1406 67.3231 59.3516 68.3882 59.3516 69.7007C59.3568 70.9663 59.1693 72.0601 58.7891 72.9819C58.4089 73.8986 57.8672 74.5991 57.1641 75.0835C56.4661 75.5679 55.6432 75.8101 54.6953 75.8101C53.9505 75.8101 53.2839 75.6668 52.6953 75.3804C52.112 75.0939 51.6406 74.6981 51.2812 74.1929C50.9271 73.6825 50.7109 73.1069 50.6328 72.4663H52.9453C53.0391 72.883 53.2396 73.2085 53.5469 73.4429C53.8594 73.6772 54.2422 73.7944 54.6953 73.7944C55.4609 73.7944 56.0443 73.4741 56.4453 72.8335C56.8516 72.1929 57.0547 71.2996 57.0547 70.1538H56.9609C56.6953 70.6538 56.3021 71.0444 55.7812 71.3257C55.2656 71.6069 54.6901 71.7476 54.0547 71.7476C53.388 71.7476 52.7839 71.5913 52.2422 71.2788C51.7057 70.9663 51.2839 70.534 50.9766 69.9819C50.6693 69.4246 50.513 68.7996 50.5078 68.1069C50.5078 67.3569 50.6849 66.6851 51.0391 66.0913C51.3932 65.4924 51.8932 65.0262 52.5391 64.6929C53.1849 64.3543 53.9245 64.1851 54.7578 64.1851ZM54.8047 66.0288C54.4297 66.0288 54.0885 66.1174 53.7812 66.2944C53.4792 66.4715 53.2396 66.7111 53.0625 67.0132C52.8906 67.3153 52.8047 67.6486 52.8047 68.0132C52.8047 68.3882 52.888 68.7293 53.0547 69.0366C53.2266 69.3439 53.4635 69.5861 53.7656 69.7632C54.0677 69.9403 54.4089 70.0288 54.7891 70.0288C55.1641 70.0288 55.5052 69.9403 55.8125 69.7632C56.125 69.5809 56.3698 69.3361 56.5469 69.0288C56.7292 68.7215 56.8203 68.3882 56.8203 68.0288C56.8151 67.6694 56.724 67.3387 56.5469 67.0366C56.3698 66.7293 56.1276 66.4845 55.8203 66.3022C55.5182 66.12 55.1797 66.0288 54.8047 66.0288Z" fill="#8A8A8A"/>
<path d="M70.8672 52.5547C70.8672 53.082 71.0039 53.5622 71.2773 53.9951C71.554 54.4248 71.974 54.752 72.5371 54.9766L71.8633 55.9336C71.4987 55.7871 71.1829 55.5837 70.916 55.3232C70.6523 55.0628 70.4391 54.7601 70.2764 54.415C70.1071 54.8154 69.8792 55.167 69.5928 55.4697C69.3063 55.7692 68.9629 56.002 68.5625 56.168L67.8984 55.2012C68.2988 55.0286 68.6292 54.8008 68.8896 54.5176C69.1533 54.2344 69.347 53.9251 69.4707 53.5898C69.5944 53.2513 69.6562 52.9062 69.6562 52.5547V51.5293H70.8672V52.5547ZM75.6621 56.4023H74.4805V54.1953H73.7383V56.3535H72.5762V51.1582H73.7383V53.1797H74.4805V51.0215H75.6621V56.4023ZM75.6621 59.8984H74.4219V57.7891H69.5195V56.793H75.6621V59.8984Z" fill="#8A8A8A"/>
<path d="M64.0918 51.5293C64.0918 52.2975 63.9339 52.9893 63.6182 53.6045C63.3024 54.2165 62.8402 54.7406 62.2314 55.1768C61.626 55.6097 60.8887 55.9466 60.0195 56.1875L59.5312 55.2207C60.4753 54.9635 61.2223 54.6022 61.7725 54.1367C62.3226 53.6712 62.6514 53.1341 62.7588 52.5254H60.0098V51.5293H64.0918ZM66.9727 55.9922H65.7324V54.1465H64.1504V53.1309H65.7324V51.0215H66.9727V55.9922ZM66.9727 59.791H61.084V56.3438H66.9727V59.791ZM62.3047 58.8145H65.7422V57.3203H62.3047V58.8145Z" fill="#8A8A8A"/>
<path d="M58.1914 56.5879H51.9023V51.666H58.123V52.6719H53.1719V53.6094H57.918V54.5859H53.1719V55.6016H58.1914V56.5879ZM59.0801 58.8633H50.9453V57.8477H59.0801V58.8633Z" fill="#8A8A8A"/>
<path d="M47.0762 52.1836C47.0762 52.6263 47.2015 53.0592 47.4521 53.4824C47.7061 53.9056 48.0723 54.2734 48.5508 54.5859C49.0326 54.8984 49.5957 55.11 50.2402 55.2207L49.6934 56.2559C48.9316 56.1061 48.2676 55.8278 47.7012 55.4209C47.138 55.014 46.71 54.5192 46.417 53.9365C46.1175 54.516 45.6846 55.0091 45.1182 55.416C44.555 55.8229 43.8958 56.1029 43.1406 56.2559L42.6035 55.2207C43.2383 55.1068 43.7933 54.8936 44.2686 54.5811C44.7438 54.2686 45.1084 53.9007 45.3623 53.4775C45.6162 53.0511 45.7448 52.6198 45.748 52.1836V51.5391H47.0762V52.1836ZM50.5332 58.8047H42.3984V57.7793H50.5332V58.8047Z" fill="#8A8A8A"/>
<path d="M37.5996 52.5938H35.4023V53.3848H37.2676V54.332H35.4023V55.1816C35.9297 55.1751 36.3805 55.1605 36.7549 55.1377C37.1325 55.1117 37.515 55.0645 37.9023 54.9961L38.0293 55.9727C37.5508 56.0508 37.082 56.1012 36.623 56.124C36.1641 56.1468 35.5618 56.1582 34.8164 56.1582H34.2109V51.5977H37.5996V52.5938ZM41.4961 59.8984H40.2559V57.8965H35.3242V56.9004H41.4961V59.8984ZM41.4961 56.5488H40.3145V51.0215H41.4961V56.5488ZM39.7285 56.4902H38.5469V54.2734H37.6484V53.2676H38.5469V51.1875H39.7285V56.4902Z" fill="#8A8A8A"/>
<path d="M103.078 44.2969L107.141 40.5625C107.542 40.1771 107.852 39.8568 108.07 39.6016C108.294 39.3464 108.466 39.0938 108.586 38.8438C108.706 38.5885 108.766 38.3177 108.766 38.0312C108.766 37.7031 108.688 37.4167 108.531 37.1719C108.38 36.9271 108.167 36.7396 107.891 36.6094C107.62 36.474 107.313 36.4062 106.969 36.4062C106.438 36.4062 106.013 36.5651 105.695 36.8828C105.378 37.1953 105.219 37.6198 105.219 38.1562H102.984C102.979 37.4271 103.143 36.7891 103.477 36.2422C103.815 35.6953 104.289 35.2734 104.899 34.9766C105.508 34.6797 106.208 34.5312 107 34.5312C107.797 34.5312 108.5 34.6745 109.109 34.9609C109.719 35.2422 110.19 35.6354 110.524 36.1406C110.862 36.6458 111.031 37.224 111.031 37.875C111.031 38.3177 110.945 38.7448 110.774 39.1562C110.602 39.5625 110.302 40.0182 109.875 40.5234C109.453 41.0234 108.854 41.625 108.078 42.3281L106.359 44V44.0625H111.188V46H103.094L103.078 44.2969Z" fill="#8A8A8A"/>
<path d="M100.11 46.1406C99.8701 46.1406 99.6488 46.0807 99.4457 45.9609C99.2425 45.8411 99.0811 45.6823 98.9613 45.4844C98.8467 45.2812 98.792 45.0625 98.7972 44.8281C98.792 44.5938 98.8467 44.3776 98.9613 44.1797C99.0811 43.9818 99.2425 43.8255 99.4457 43.7109C99.6488 43.5911 99.8701 43.5312 100.11 43.5312C100.334 43.5312 100.545 43.5911 100.743 43.7109C100.946 43.8255 101.107 43.9818 101.227 44.1797C101.347 44.3776 101.407 44.5938 101.407 44.8281C101.407 45.0625 101.347 45.2812 101.227 45.4844C101.107 45.6823 100.946 45.8411 100.743 45.9609C100.545 46.0807 100.334 46.1406 100.11 46.1406Z" fill="#8A8A8A"/>
<path d="M93.1719 46.1562C92.3229 46.1562 91.5599 46.0182 90.8828 45.7422C90.2109 45.4661 89.6849 45.0859 89.3047 44.6016C88.9245 44.112 88.7344 43.5625 88.7344 42.9531C88.7344 42.4896 88.8438 42.0573 89.0625 41.6562C89.2812 41.2552 89.5807 40.9245 89.9609 40.6641C90.3464 40.3984 90.7708 40.2292 91.2344 40.1562V40.0781C90.8333 40 90.4766 39.8438 90.1641 39.6094C89.8516 39.3698 89.6068 39.0729 89.4297 38.7188C89.2578 38.3646 89.1719 37.9844 89.1719 37.5781C89.1719 36.9948 89.3438 36.474 89.6875 36.0156C90.0312 35.5521 90.5078 35.1901 91.1172 34.9297C91.7266 34.6641 92.4115 34.5312 93.1719 34.5312C93.9323 34.5312 94.6172 34.6641 95.2266 34.9297C95.8359 35.1901 96.3125 35.5521 96.6562 36.0156C97.0052 36.474 97.1823 36.9948 97.1875 37.5781C97.1823 37.9896 97.0911 38.3724 96.9141 38.7266C96.737 39.0755 96.4922 39.3698 96.1797 39.6094C95.8672 39.8438 95.5156 40 95.125 40.0781V40.1562C95.5833 40.2292 96 40.3984 96.375 40.6641C96.7552 40.9245 97.0547 41.2552 97.2734 41.6562C97.4974 42.0573 97.6094 42.4896 97.6094 42.9531C97.6094 43.5625 97.4193 44.112 97.0391 44.6016C96.6589 45.0859 96.1302 45.4661 95.4531 45.7422C94.7812 46.0182 94.0208 46.1562 93.1719 46.1562ZM93.1719 44.3594C93.5625 44.3594 93.9062 44.2917 94.2031 44.1562C94.5052 44.0156 94.7396 43.8203 94.9062 43.5703C95.0729 43.3203 95.1562 43.0365 95.1562 42.7188C95.1562 42.3958 95.0703 42.1042 94.8984 41.8438C94.7318 41.5833 94.4974 41.3802 94.1953 41.2344C93.8932 41.0885 93.5521 41.0156 93.1719 41.0156C92.7917 41.0156 92.4479 41.0885 92.1406 41.2344C91.8385 41.3802 91.6016 41.5833 91.4297 41.8438C91.263 42.1042 91.1823 42.3958 91.1875 42.7188C91.1823 43.0365 91.2604 43.3203 91.4219 43.5703C91.5885 43.8203 91.8229 44.0156 92.125 44.1562C92.4271 44.2917 92.776 44.3594 93.1719 44.3594ZM93.1719 39.3594C93.5 39.3594 93.7943 39.2943 94.0547 39.1641C94.3203 39.0286 94.526 38.8438 94.6719 38.6094C94.8177 38.375 94.8906 38.1094 94.8906 37.8125C94.8906 37.526 94.8177 37.2682 94.6719 37.0391C94.526 36.8099 94.3229 36.6328 94.0625 36.5078C93.8021 36.3776 93.5052 36.3125 93.1719 36.3125C92.8385 36.3125 92.5417 36.375 92.2812 36.5C92.026 36.625 91.8255 36.8021 91.6797 37.0312C91.5391 37.2604 91.4688 37.5208 91.4688 37.8125C91.4688 38.1094 91.5417 38.375 91.6875 38.6094C91.8333 38.8438 92.0339 39.0286 92.2891 39.1641C92.5495 39.2943 92.8438 39.3594 93.1719 39.3594Z" fill="#8A8A8A"/>
<path d="M111.602 22.5547C111.602 23.082 111.738 23.5622 112.012 23.9951C112.288 24.4248 112.708 24.752 113.271 24.9766L112.598 25.9336C112.233 25.7871 111.917 25.5837 111.65 25.3232C111.387 25.0628 111.174 24.7601 111.011 24.415C110.841 24.8154 110.614 25.167 110.327 25.4697C110.041 25.7692 109.697 26.002 109.297 26.168L108.633 25.2012C109.033 25.0286 109.364 24.8008 109.624 24.5176C109.888 24.2344 110.081 23.9251 110.205 23.5898C110.329 23.2513 110.391 22.9062 110.391 22.5547V21.5293H111.602V22.5547ZM116.396 26.4023H115.215V24.1953H114.473V26.3535H113.311V21.1582H114.473V23.1797H115.215V21.0215H116.396V26.4023ZM116.396 29.8984H115.156V27.7891H110.254V26.793H116.396V29.8984Z" fill="#8A8A8A"/>
<path d="M104.826 21.5293C104.826 22.2975 104.668 22.9893 104.353 23.6045C104.037 24.2165 103.575 24.7406 102.966 25.1768C102.36 25.6097 101.623 25.9466 100.754 26.1875L100.266 25.2207C101.21 24.9635 101.957 24.6022 102.507 24.1367C103.057 23.6712 103.386 23.1341 103.493 22.5254H100.744V21.5293H104.826ZM107.707 25.9922H106.467V24.1465H104.885V23.1309H106.467V21.0215H107.707V25.9922ZM107.707 29.791H101.818V26.3438H107.707V29.791ZM103.039 28.8145H106.477V27.3203H103.039V28.8145Z" fill="#8A8A8A"/>
<path d="M99.4238 29.8984H98.2324V25.4453H97.4805V29.4883H96.2988V26.9443L95.5957 27.877C94.821 27.4701 94.2627 26.7751 93.9209 25.792C93.6051 26.9248 93.0501 27.7272 92.2559 28.1992L91.4844 27.2422C92.1191 26.8841 92.5781 26.3535 92.8613 25.6504C93.1478 24.944 93.291 24.1302 93.291 23.209V22.9258H91.7871V21.9297H95.8594V22.9258H94.502V23.209C94.502 24.0521 94.6436 24.8008 94.9268 25.4551C95.2132 26.1094 95.6706 26.5993 96.2988 26.9248V21.1387H97.4805V24.4297H98.2324V21.0117H99.4238V29.8984Z" fill="#8A8A8A"/>
<path d="M90.498 22.6523V22.7598C90.4915 23.4922 90.4688 24.1481 90.4297 24.7275C90.3906 25.307 90.3027 25.9792 90.166 26.7441L88.9453 26.6367C89.0755 25.9141 89.1585 25.2614 89.1943 24.6787C89.2301 24.096 89.248 23.4596 89.248 22.7695H83.9258V21.7832H90.498V22.6523ZM91.2305 28.8145H83.125V27.7988H84.8535V25.0059H86.0938V27.7988H87.0703V25.0059H88.3008V27.7988H91.2305V28.8145Z" fill="#8A8A8A"/>
<g filter="url(#filter11_d_3772_2987)">
<path d="M91.7422 206.234C90.5781 206.234 89.5273 206.02 88.5898 205.59C87.6602 205.16 86.9258 204.566 86.3867 203.809C85.8555 203.043 85.5781 202.18 85.5547 201.219H88.9766C89 201.656 89.1367 202.043 89.3867 202.379C89.6367 202.715 89.9688 202.977 90.3828 203.164C90.7969 203.352 91.25 203.445 91.7422 203.445C92.3203 203.445 92.8359 203.32 93.2891 203.07C93.75 202.812 94.1055 202.457 94.3555 202.004C94.6133 201.543 94.7422 201.023 94.7422 200.445C94.7422 199.852 94.6133 199.324 94.3555 198.863C94.0977 198.402 93.7344 198.043 93.2656 197.785C92.8047 197.52 92.2812 197.383 91.6953 197.375C90.4219 197.375 89.5312 197.852 89.0234 198.805H85.8359L86.75 189.031H97.2031V191.914H89.6562L89.1875 196.203H89.3281C89.6484 195.773 90.1094 195.43 90.7109 195.172C91.3203 194.906 91.9922 194.773 92.7266 194.773C93.7578 194.773 94.6836 195.012 95.5039 195.488C96.332 195.965 96.9805 196.629 97.4492 197.48C97.9258 198.324 98.1641 199.281 98.1641 200.352C98.1641 201.484 97.8945 202.496 97.3555 203.387C96.8164 204.277 96.0586 204.977 95.082 205.484C94.1133 205.984 93 206.234 91.7422 206.234Z" fill="white"/>
</g>
<g filter="url(#filter12_d_3772_2987)">
<path d="M81.1802 206.211C80.8208 206.211 80.4888 206.121 80.1841 205.941C79.8794 205.762 79.6372 205.523 79.4575 205.227C79.2857 204.922 79.2036 204.594 79.2114 204.242C79.2036 203.891 79.2857 203.566 79.4575 203.27C79.6372 202.973 79.8794 202.738 80.1841 202.566C80.4888 202.387 80.8208 202.297 81.1802 202.297C81.5161 202.297 81.8325 202.387 82.1294 202.566C82.4341 202.738 82.6763 202.973 82.856 203.27C83.0357 203.566 83.1255 203.891 83.1255 204.242C83.1255 204.594 83.0357 204.922 82.856 205.227C82.6763 205.523 82.4341 205.762 82.1294 205.941C81.8325 206.121 81.5161 206.211 81.1802 206.211Z" fill="white"/>
</g>
<g filter="url(#filter13_d_3772_2987)">
<path d="M70.8047 206.234C69.5781 206.234 68.4766 206.023 67.5 205.602C66.5312 205.172 65.7656 204.578 65.2031 203.82C64.6484 203.055 64.3594 202.188 64.3359 201.219H67.8984C67.9219 201.633 68.0625 202 68.3203 202.32C68.5781 202.641 68.9258 202.891 69.3633 203.07C69.8008 203.242 70.2891 203.328 70.8281 203.328C71.3828 203.328 71.8789 203.23 72.3164 203.035C72.7617 202.832 73.1055 202.555 73.3477 202.203C73.5977 201.852 73.7188 201.453 73.7109 201.008C73.7188 200.547 73.5898 200.137 73.3242 199.777C73.0664 199.418 72.6953 199.141 72.2109 198.945C71.7266 198.742 71.1562 198.641 70.5 198.641H68.9297V196.039H70.5C71.0469 196.039 71.5352 195.945 71.9648 195.758C72.3945 195.57 72.7305 195.305 72.9727 194.961C73.2148 194.617 73.3359 194.227 73.3359 193.789C73.3359 193.359 73.2305 192.98 73.0195 192.652C72.8164 192.324 72.5273 192.07 72.1523 191.891C71.7773 191.703 71.3438 191.609 70.8516 191.609C70.3516 191.609 69.8906 191.699 69.4688 191.879C69.0547 192.051 68.7188 192.301 68.4609 192.629C68.2109 192.949 68.0781 193.32 68.0625 193.742H64.6875C64.7031 192.781 64.9805 191.926 65.5195 191.176C66.0586 190.426 66.793 189.844 67.7227 189.43C68.6602 189.008 69.7031 188.797 70.8516 188.797C72.0078 188.797 73.0312 189.008 73.9219 189.43C74.8203 189.844 75.5156 190.418 76.0078 191.152C76.5 191.879 76.7422 192.688 76.7344 193.578C76.7422 194.195 76.6094 194.758 76.3359 195.266C76.0703 195.766 75.6914 196.18 75.1992 196.508C74.7148 196.836 74.1562 197.055 73.5234 197.164V197.305C74.3438 197.406 75.043 197.633 75.6211 197.984C76.1992 198.336 76.6367 198.793 76.9336 199.355C77.2305 199.91 77.375 200.539 77.3672 201.242C77.375 202.195 77.0977 203.055 76.5352 203.82C75.9727 204.578 75.1914 205.172 74.1914 205.602C73.1914 206.023 72.0625 206.234 70.8047 206.234Z" fill="white"/>
</g>
<g filter="url(#filter14_d_3772_2987)">
<path d="M50.0939 203.445L56.1877 197.844C56.7892 197.266 57.2541 196.785 57.5822 196.402C57.9181 196.02 58.176 195.641 58.3556 195.266C58.5353 194.883 58.6252 194.477 58.6252 194.047C58.6252 193.555 58.508 193.125 58.2736 192.758C58.0471 192.391 57.7267 192.109 57.3127 191.914C56.9064 191.711 56.4455 191.609 55.9299 191.609C55.133 191.609 54.4963 191.848 54.0197 192.324C53.5431 192.793 53.3049 193.43 53.3049 194.234H49.9533C49.9455 193.141 50.1916 192.184 50.6916 191.363C51.1994 190.543 51.9103 189.91 52.8244 189.465C53.7385 189.02 54.7892 188.797 55.9767 188.797C57.1721 188.797 58.2267 189.012 59.1408 189.441C60.0549 189.863 60.7619 190.453 61.2619 191.211C61.7697 191.969 62.0236 192.836 62.0236 193.812C62.0236 194.477 61.8947 195.117 61.6369 195.734C61.3791 196.344 60.9299 197.027 60.2892 197.785C59.6564 198.535 58.758 199.438 57.5939 200.492L55.0158 203V203.094H62.258V206H50.1174L50.0939 203.445Z" fill="white"/>
</g>
<g filter="url(#filter15_d_3772_2987)">
<path d="M90.7031 168.977C90.7031 169.715 90.8945 170.387 91.2773 170.993C91.6647 171.595 92.2526 172.053 93.041 172.367L92.0977 173.707C91.5872 173.502 91.1452 173.217 90.7715 172.853C90.4023 172.488 90.1038 172.064 89.876 171.581C89.639 172.142 89.32 172.634 88.9189 173.058C88.5179 173.477 88.0371 173.803 87.4766 174.035L86.5469 172.682C87.1074 172.44 87.57 172.121 87.9346 171.725C88.3037 171.328 88.5749 170.895 88.748 170.426C88.9212 169.952 89.0078 169.469 89.0078 168.977V167.541H90.7031V168.977ZM97.416 174.363H95.7617V171.273H94.7227V174.295H93.0957V167.021H94.7227V169.852H95.7617V166.83H97.416V174.363ZM97.416 179.258H95.6797V176.305H88.8164V174.91H97.416V179.258Z" fill="white"/>
</g>
<g filter="url(#filter16_d_3772_2987)">
<path d="M81.2207 167.541C81.2207 168.617 80.9997 169.585 80.5576 170.446C80.1156 171.303 79.4684 172.037 78.6162 172.647C77.7686 173.254 76.7363 173.725 75.5195 174.062L74.8359 172.709C76.1576 172.349 77.2035 171.843 77.9736 171.191C78.7438 170.54 79.2041 169.788 79.3545 168.936H75.5059V167.541H81.2207ZM85.2539 173.789H83.5176V171.205H81.3027V169.783H83.5176V166.83H85.2539V173.789ZM85.2539 179.107H77.0098V174.281H85.2539V179.107ZM78.7188 177.74H83.5312V175.648H78.7188V177.74Z" fill="white"/>
</g>
<g filter="url(#filter17_d_3772_2987)">
<path d="M73.5664 179.258H71.9121V166.816H73.5664V179.258ZM71.0234 178.684H69.3828V172.49H67.7422V171.082H69.3828V167.021H71.0234V178.684ZM66.7441 170.152C66.7441 171.283 66.9401 172.31 67.332 173.235C67.7285 174.156 68.3529 174.86 69.2051 175.348L68.1797 176.633C67.6419 176.314 67.1839 175.89 66.8057 175.361C66.432 174.833 66.138 174.222 65.9238 173.529C65.7005 174.286 65.3952 174.953 65.0078 175.532C64.6204 176.111 64.151 176.569 63.5996 176.906L62.5469 175.621C63.1302 175.266 63.6087 174.799 63.9824 174.22C64.3607 173.636 64.6341 172.998 64.8027 172.306C64.9759 171.613 65.0625 170.895 65.0625 170.152V169.482H63.0254V168.088H68.6309V169.482H66.7441V170.152Z" fill="white"/>
</g>
<g filter="url(#filter18_d_3772_2987)">
<path d="M62.2168 174.35H57.5273V176.496H55.8047V174.35H50.8281V172.969H62.2168V174.35ZM60.7539 171.943H52.25V167.363H60.7539V171.943ZM53.959 170.59H59.0449V168.717H53.959V170.59ZM60.959 179.039H52.168V175.416H53.9043V177.645H60.959V179.039Z" fill="white"/>
</g>
<g filter="url(#filter19_d_3772_2987)">
<path d="M48.9141 96.2656C48.9141 96.8984 49.0781 97.4746 49.4062 97.9941C49.7383 98.5098 50.2422 98.9023 50.918 99.1719L50.1094 100.32C49.6719 100.145 49.293 99.9004 48.9727 99.5879C48.6562 99.2754 48.4004 98.9121 48.2051 98.498C48.002 98.9785 47.7285 99.4004 47.3848 99.7637C47.041 100.123 46.6289 100.402 46.1484 100.602L45.3516 99.4414C45.832 99.2344 46.2285 98.9609 46.541 98.6211C46.8574 98.2812 47.0898 97.9102 47.2383 97.5078C47.3867 97.1016 47.4609 96.6875 47.4609 96.2656V95.0352H48.9141V96.2656ZM54.668 100.883H53.25V98.2344H52.3594V100.824H50.9648V94.5898H52.3594V97.0156H53.25V94.4258H54.668V100.883ZM54.668 105.078H53.1797V102.547H47.2969V101.352H54.668V105.078Z" fill="white"/>
</g>
<g filter="url(#filter20_d_3772_2987)">
<path d="M40.7852 95.0352C40.7852 95.957 40.5957 96.7871 40.2168 97.5254C39.8379 98.2598 39.2832 98.8887 38.5527 99.4121C37.8262 99.9316 36.9414 100.336 35.8984 100.625L35.3125 99.4648C36.4453 99.1562 37.3418 98.7227 38.002 98.1641C38.6621 97.6055 39.0566 96.9609 39.1855 96.2305H35.8867V95.0352H40.7852ZM44.2422 100.391H42.7539V98.1758H40.8555V96.957H42.7539V94.4258H44.2422V100.391ZM44.2422 104.949H37.1758V100.812H44.2422V104.949ZM38.6406 103.777H42.7656V101.984H38.6406V103.777Z" fill="white"/>
</g>
<g filter="url(#filter21_d_3772_2987)">
<path d="M26.9609 96.4414H29.0586V95.0234H30.5352V96.9453H32.5039V94.4141H33.9922V100.59H32.5039V98.1641H30.5352V100.133H25.4609V95.0234H26.9609V96.4414ZM29.0586 98.9375V97.6016H26.9609V98.9375H29.0586ZM33.9922 104.961H26.8203V101.012H33.9922V104.961ZM28.3203 103.766H32.5273V102.207H28.3203V103.766Z" fill="white"/>
</g>
<g filter="url(#filter22_d_3772_2987)">
<path d="M23.9219 99.8867H22.5039V97.7422H21.6133V99.793H20.2188V94.6133H21.6133V96.5469H22.5039V94.4258H23.9219V99.8867ZM23.9219 103.121H18.1445V103.789H24.2852V104.961H16.6328V102.02H22.4219V101.434H16.6211V100.262H23.9219V103.121ZM17.2539 94.9062C17.7266 94.9023 18.1484 94.998 18.5195 95.1934C18.8945 95.3887 19.1875 95.666 19.3984 96.0254C19.6133 96.3848 19.7227 96.8008 19.7266 97.2734C19.7227 97.7266 19.6133 98.1328 19.3984 98.4922C19.1875 98.8516 18.8945 99.1309 18.5195 99.3301C18.1484 99.5293 17.7266 99.6289 17.2539 99.6289C16.7812 99.6289 16.3594 99.5293 15.9883 99.3301C15.6172 99.1309 15.3262 98.8516 15.1152 98.4922C14.9082 98.1328 14.8047 97.7266 14.8047 97.2734C14.8047 96.8008 14.9082 96.3848 15.1152 96.0254C15.3262 95.666 15.6172 95.3887 15.9883 95.1934C16.3594 94.998 16.7812 94.9023 17.2539 94.9062ZM17.2539 96.043C17.0352 96.043 16.8418 96.0938 16.6738 96.1953C16.5059 96.293 16.375 96.4355 16.2812 96.623C16.1875 96.8066 16.1406 97.0234 16.1406 97.2734C16.1406 97.6328 16.2422 97.918 16.4453 98.1289C16.6523 98.3398 16.9219 98.4453 17.2539 98.4453C17.582 98.4453 17.8477 98.3398 18.0508 98.1289C18.2578 97.918 18.3633 97.6328 18.3672 97.2734C18.3633 97.0234 18.3125 96.8066 18.2148 96.623C18.1211 96.4355 17.9902 96.293 17.8223 96.1953C17.6582 96.0938 17.4688 96.043 17.2539 96.043Z" fill="white"/>
</g>
<defs>
<filter id="filter0_d_3772_2987" x="216.875" y="127.032" width="9.52344" height="18.9688" filterUnits="userSpaceOnUse" color-interpolation-filters="sRGB">
<feFlood flood-opacity="0" result="BackgroundImageFix"/>
<feColorMatrix in="SourceAlpha" type="matrix" values="0 0 0 0 0 0 0 0 0 0 0 0 0 0 0 0 0 0 127 0" result="hardAlpha"/>
<feOffset dy="1"/>
<feGaussianBlur stdDeviation="0.5"/>
<feComposite in2="hardAlpha" operator="out"/>
<feColorMatrix type="matrix" values="0 0 0 0 0.220647 0 0 0 0 0.205576 0 0 0 0 0.205576 0 0 0 0.17 0"/>
<feBlend mode="normal" in2="BackgroundImageFix" result="effect1_dropShadow_3772_2987"/>
<feBlend mode="normal" in="SourceGraphic" in2="effect1_dropShadow_3772_2987" result="shape"/>
</filter>
<filter id="filter1_d_3772_2987" x="212.758" y="140.297" width="5.91406" height="5.91406" filterUnits="userSpaceOnUse" color-interpolation-filters="sRGB">
<feFlood flood-opacity="0" result="BackgroundImageFix"/>
<feColorMatrix in="SourceAlpha" type="matrix" values="0 0 0 0 0 0 0 0 0 0 0 0 0 0 0 0 0 0 127 0" result="hardAlpha"/>
<feOffset dy="1"/>
<feGaussianBlur stdDeviation="0.5"/>
<feComposite in2="hardAlpha" operator="out"/>
<feColorMatrix type="matrix" values="0 0 0 0 0.220647 0 0 0 0 0.205576 0 0 0 0 0.205576 0 0 0 0.17 0"/>
<feBlend mode="normal" in2="BackgroundImageFix" result="effect1_dropShadow_3772_2987"/>
<feBlend mode="normal" in="SourceGraphic" in2="effect1_dropShadow_3772_2987" result="shape"/>
</filter>
<filter id="filter2_d_3772_2987" x="197.531" y="126.797" width="15.6406" height="19.4375" filterUnits="userSpaceOnUse" color-interpolation-filters="sRGB">
<feFlood flood-opacity="0" result="BackgroundImageFix"/>
<feColorMatrix in="SourceAlpha" type="matrix" values="0 0 0 0 0 0 0 0 0 0 0 0 0 0 0 0 0 0 127 0" result="hardAlpha"/>
<feOffset dy="1"/>
<feGaussianBlur stdDeviation="0.5"/>
<feComposite in2="hardAlpha" operator="out"/>
<feColorMatrix type="matrix" values="0 0 0 0 0.220647 0 0 0 0 0.205576 0 0 0 0 0.205576 0 0 0 0.17 0"/>
<feBlend mode="normal" in2="BackgroundImageFix" result="effect1_dropShadow_3772_2987"/>
<feBlend mode="normal" in="SourceGraphic" in2="effect1_dropShadow_3772_2987" result="shape"/>
</filter>
<filter id="filter3_d_3772_2987" x="183" y="127.032" width="14.6094" height="19.2031" filterUnits="userSpaceOnUse" color-interpolation-filters="sRGB">
<feFlood flood-opacity="0" result="BackgroundImageFix"/>
<feColorMatrix in="SourceAlpha" type="matrix" values="0 0 0 0 0 0 0 0 0 0 0 0 0 0 0 0 0 0 127 0" result="hardAlpha"/>
<feOffset dy="1"/>
<feGaussianBlur stdDeviation="0.5"/>
<feComposite in2="hardAlpha" operator="out"/>
<feColorMatrix type="matrix" values="0 0 0 0 0.220647 0 0 0 0 0.205576 0 0 0 0 0.205576 0 0 0 0.17 0"/>
<feBlend mode="normal" in2="BackgroundImageFix" result="effect1_dropShadow_3772_2987"/>
<feBlend mode="normal" in="SourceGraphic" in2="effect1_dropShadow_3772_2987" result="shape"/>
</filter>
<filter id="filter4_d_3772_2987" x="216.445" y="106.363" width="13.3906" height="13.6758" filterUnits="userSpaceOnUse" color-interpolation-filters="sRGB">
<feFlood flood-opacity="0" result="BackgroundImageFix"/>
<feColorMatrix in="SourceAlpha" type="matrix" values="0 0 0 0 0 0 0 0 0 0 0 0 0 0 0 0 0 0 127 0" result="hardAlpha"/>
<feOffset dy="1"/>
<feGaussianBlur stdDeviation="0.5"/>
<feComposite in2="hardAlpha" operator="out"/>
<feColorMatrix type="matrix" values="0 0 0 0 0.220647 0 0 0 0 0.205576 0 0 0 0 0.205576 0 0 0 0.17 0"/>
<feBlend mode="normal" in2="BackgroundImageFix" result="effect1_dropShadow_3772_2987"/>
<feBlend mode="normal" in="SourceGraphic" in2="effect1_dropShadow_3772_2987" result="shape"/>
</filter>
<filter id="filter5_d_3772_2987" x="204.555" y="105.816" width="12.7031" height="14.3594" filterUnits="userSpaceOnUse" color-interpolation-filters="sRGB">
<feFlood flood-opacity="0" result="BackgroundImageFix"/>
<feColorMatrix in="SourceAlpha" type="matrix" values="0 0 0 0 0 0 0 0 0 0 0 0 0 0 0 0 0 0 127 0" result="hardAlpha"/>
<feOffset dy="1"/>
<feGaussianBlur stdDeviation="0.5"/>
<feComposite in2="hardAlpha" operator="out"/>
<feColorMatrix type="matrix" values="0 0 0 0 0.220647 0 0 0 0 0.205576 0 0 0 0 0.205576 0 0 0 0.17 0"/>
<feBlend mode="normal" in2="BackgroundImageFix" result="effect1_dropShadow_3772_2987"/>
<feBlend mode="normal" in="SourceGraphic" in2="effect1_dropShadow_3772_2987" result="shape"/>
</filter>
<filter id="filter6_d_3772_2987" x="193.117" y="105.816" width="11.9297" height="14.4688" filterUnits="userSpaceOnUse" color-interpolation-filters="sRGB">
<feFlood flood-opacity="0" result="BackgroundImageFix"/>
<feColorMatrix in="SourceAlpha" type="matrix" values="0 0 0 0 0 0 0 0 0 0 0 0 0 0 0 0 0 0 127 0" result="hardAlpha"/>
<feOffset dy="1"/>
<feGaussianBlur stdDeviation="0.5"/>
<feComposite in2="hardAlpha" operator="out"/>
<feColorMatrix type="matrix" values="0 0 0 0 0.220647 0 0 0 0 0.205576 0 0 0 0 0.205576 0 0 0 0.17 0"/>
<feBlend mode="normal" in2="BackgroundImageFix" result="effect1_dropShadow_3772_2987"/>
<feBlend mode="normal" in="SourceGraphic" in2="effect1_dropShadow_3772_2987" result="shape"/>
</filter>
<filter id="filter7_d_3772_2987" x="180.562" y="106.322" width="13.3906" height="13.9355" filterUnits="userSpaceOnUse" color-interpolation-filters="sRGB">
<feFlood flood-opacity="0" result="BackgroundImageFix"/>
<feColorMatrix in="SourceAlpha" type="matrix" values="0 0 0 0 0 0 0 0 0 0 0 0 0 0 0 0 0 0 127 0" result="hardAlpha"/>
<feOffset dy="1"/>
<feGaussianBlur stdDeviation="0.5"/>
<feComposite in2="hardAlpha" operator="out"/>
<feColorMatrix type="matrix" values="0 0 0 0 0.220647 0 0 0 0 0.205576 0 0 0 0 0.205576 0 0 0 0.17 0"/>
<feBlend mode="normal" in2="BackgroundImageFix" result="effect1_dropShadow_3772_2987"/>
<feBlend mode="normal" in="SourceGraphic" in2="effect1_dropShadow_3772_2987" result="shape"/>
</filter>
<filter id="filter8_d_3772_2987" x="38.125" y="112.664" width="12.2578" height="16.3359" filterUnits="userSpaceOnUse" color-interpolation-filters="sRGB">
<feFlood flood-opacity="0" result="BackgroundImageFix"/>
<feColorMatrix in="SourceAlpha" type="matrix" values="0 0 0 0 0 0 0 0 0 0 0 0 0 0 0 0 0 0 127 0" result="hardAlpha"/>
<feOffset dy="1"/>
<feGaussianBlur stdDeviation="0.5"/>
<feComposite in2="hardAlpha" operator="out"/>
<feColorMatrix type="matrix" values="0 0 0 0 0.220647 0 0 0 0 0.205576 0 0 0 0 0.205576 0 0 0 0.17 0"/>
<feBlend mode="normal" in2="BackgroundImageFix" result="effect1_dropShadow_3772_2987"/>
<feBlend mode="normal" in="SourceGraphic" in2="effect1_dropShadow_3772_2987" result="shape"/>
</filter>
<filter id="filter9_d_3772_2987" x="32.8984" y="123.914" width="5.26562" height="5.26172" filterUnits="userSpaceOnUse" color-interpolation-filters="sRGB">
<feFlood flood-opacity="0" result="BackgroundImageFix"/>
<feColorMatrix in="SourceAlpha" type="matrix" values="0 0 0 0 0 0 0 0 0 0 0 0 0 0 0 0 0 0 127 0" result="hardAlpha"/>
<feOffset dy="1"/>
<feGaussianBlur stdDeviation="0.5"/>
<feComposite in2="hardAlpha" operator="out"/>
<feColorMatrix type="matrix" values="0 0 0 0 0.220647 0 0 0 0 0.205576 0 0 0 0 0.205576 0 0 0 0.17 0"/>
<feBlend mode="normal" in2="BackgroundImageFix" result="effect1_dropShadow_3772_2987"/>
<feBlend mode="normal" in="SourceGraphic" in2="effect1_dropShadow_3772_2987" result="shape"/>
</filter>
<filter id="filter10_d_3772_2987" x="20.5625" y="112.664" width="13.0547" height="16.5312" filterUnits="userSpaceOnUse" color-interpolation-filters="sRGB">
<feFlood flood-opacity="0" result="BackgroundImageFix"/>
<feColorMatrix in="SourceAlpha" type="matrix" values="0 0 0 0 0 0 0 0 0 0 0 0 0 0 0 0 0 0 127 0" result="hardAlpha"/>
<feOffset dy="1"/>
<feGaussianBlur stdDeviation="0.5"/>
<feComposite in2="hardAlpha" operator="out"/>
<feColorMatrix type="matrix" values="0 0 0 0 0.220647 0 0 0 0 0.205576 0 0 0 0 0.205576 0 0 0 0.17 0"/>
<feBlend mode="normal" in2="BackgroundImageFix" result="effect1_dropShadow_3772_2987"/>
<feBlend mode="normal" in="SourceGraphic" in2="effect1_dropShadow_3772_2987" result="shape"/>
</filter>
<filter id="filter11_d_3772_2987" x="84.5547" y="189.031" width="14.6094" height="19.2031" filterUnits="userSpaceOnUse" color-interpolation-filters="sRGB">
<feFlood flood-opacity="0" result="BackgroundImageFix"/>
<feColorMatrix in="SourceAlpha" type="matrix" values="0 0 0 0 0 0 0 0 0 0 0 0 0 0 0 0 0 0 127 0" result="hardAlpha"/>
<feOffset dy="1"/>
<feGaussianBlur stdDeviation="0.5"/>
<feComposite in2="hardAlpha" operator="out"/>
<feColorMatrix type="matrix" values="0 0 0 0 0.220647 0 0 0 0 0.205576 0 0 0 0 0.205576 0 0 0 0.17 0"/>
<feBlend mode="normal" in2="BackgroundImageFix" result="effect1_dropShadow_3772_2987"/>
<feBlend mode="normal" in="SourceGraphic" in2="effect1_dropShadow_3772_2987" result="shape"/>
</filter>
<filter id="filter12_d_3772_2987" x="78.2109" y="202.297" width="5.91406" height="5.91406" filterUnits="userSpaceOnUse" color-interpolation-filters="sRGB">
<feFlood flood-opacity="0" result="BackgroundImageFix"/>
<feColorMatrix in="SourceAlpha" type="matrix" values="0 0 0 0 0 0 0 0 0 0 0 0 0 0 0 0 0 0 127 0" result="hardAlpha"/>
<feOffset dy="1"/>
<feGaussianBlur stdDeviation="0.5"/>
<feComposite in2="hardAlpha" operator="out"/>
<feColorMatrix type="matrix" values="0 0 0 0 0.220647 0 0 0 0 0.205576 0 0 0 0 0.205576 0 0 0 0.17 0"/>
<feBlend mode="normal" in2="BackgroundImageFix" result="effect1_dropShadow_3772_2987"/>
<feBlend mode="normal" in="SourceGraphic" in2="effect1_dropShadow_3772_2987" result="shape"/>
</filter>
<filter id="filter13_d_3772_2987" x="63.3359" y="188.797" width="15.0312" height="19.4375" filterUnits="userSpaceOnUse" color-interpolation-filters="sRGB">
<feFlood flood-opacity="0" result="BackgroundImageFix"/>
<feColorMatrix in="SourceAlpha" type="matrix" values="0 0 0 0 0 0 0 0 0 0 0 0 0 0 0 0 0 0 127 0" result="hardAlpha"/>
<feOffset dy="1"/>
<feGaussianBlur stdDeviation="0.5"/>
<feComposite in2="hardAlpha" operator="out"/>
<feColorMatrix type="matrix" values="0 0 0 0 0.220647 0 0 0 0 0.205576 0 0 0 0 0.205576 0 0 0 0.17 0"/>
<feBlend mode="normal" in2="BackgroundImageFix" result="effect1_dropShadow_3772_2987"/>
<feBlend mode="normal" in="SourceGraphic" in2="effect1_dropShadow_3772_2987" result="shape"/>
</filter>
<filter id="filter14_d_3772_2987" x="48.9531" y="188.797" width="14.3047" height="19.2031" filterUnits="userSpaceOnUse" color-interpolation-filters="sRGB">
<feFlood flood-opacity="0" result="BackgroundImageFix"/>
<feColorMatrix in="SourceAlpha" type="matrix" values="0 0 0 0 0 0 0 0 0 0 0 0 0 0 0 0 0 0 127 0" result="hardAlpha"/>
<feOffset dy="1"/>
<feGaussianBlur stdDeviation="0.5"/>
<feComposite in2="hardAlpha" operator="out"/>
<feColorMatrix type="matrix" values="0 0 0 0 0.220647 0 0 0 0 0.205576 0 0 0 0 0.205576 0 0 0 0.17 0"/>
<feBlend mode="normal" in2="BackgroundImageFix" result="effect1_dropShadow_3772_2987"/>
<feBlend mode="normal" in="SourceGraphic" in2="effect1_dropShadow_3772_2987" result="shape"/>
</filter>
<filter id="filter15_d_3772_2987" x="85.5469" y="166.83" width="12.8672" height="14.4277" filterUnits="userSpaceOnUse" color-interpolation-filters="sRGB">
<feFlood flood-opacity="0" result="BackgroundImageFix"/>
<feColorMatrix in="SourceAlpha" type="matrix" values="0 0 0 0 0 0 0 0 0 0 0 0 0 0 0 0 0 0 127 0" result="hardAlpha"/>
<feOffset dy="1"/>
<feGaussianBlur stdDeviation="0.5"/>
<feComposite in2="hardAlpha" operator="out"/>
<feColorMatrix type="matrix" values="0 0 0 0 0.220647 0 0 0 0 0.205576 0 0 0 0 0.205576 0 0 0 0.17 0"/>
<feBlend mode="normal" in2="BackgroundImageFix" result="effect1_dropShadow_3772_2987"/>
<feBlend mode="normal" in="SourceGraphic" in2="effect1_dropShadow_3772_2987" result="shape"/>
</filter>
<filter id="filter16_d_3772_2987" x="73.8359" y="166.83" width="12.4141" height="14.2773" filterUnits="userSpaceOnUse" color-interpolation-filters="sRGB">
<feFlood flood-opacity="0" result="BackgroundImageFix"/>
<feColorMatrix in="SourceAlpha" type="matrix" values="0 0 0 0 0 0 0 0 0 0 0 0 0 0 0 0 0 0 127 0" result="hardAlpha"/>
<feOffset dy="1"/>
<feGaussianBlur stdDeviation="0.5"/>
<feComposite in2="hardAlpha" operator="out"/>
<feColorMatrix type="matrix" values="0 0 0 0 0.220647 0 0 0 0 0.205576 0 0 0 0 0.205576 0 0 0 0.17 0"/>
<feBlend mode="normal" in2="BackgroundImageFix" result="effect1_dropShadow_3772_2987"/>
<feBlend mode="normal" in="SourceGraphic" in2="effect1_dropShadow_3772_2987" result="shape"/>
</filter>
<filter id="filter17_d_3772_2987" x="61.5469" y="166.816" width="13.0234" height="14.4414" filterUnits="userSpaceOnUse" color-interpolation-filters="sRGB">
<feFlood flood-opacity="0" result="BackgroundImageFix"/>
<feColorMatrix in="SourceAlpha" type="matrix" values="0 0 0 0 0 0 0 0 0 0 0 0 0 0 0 0 0 0 127 0" result="hardAlpha"/>
<feOffset dy="1"/>
<feGaussianBlur stdDeviation="0.5"/>
<feComposite in2="hardAlpha" operator="out"/>
<feColorMatrix type="matrix" values="0 0 0 0 0.220647 0 0 0 0 0.205576 0 0 0 0 0.205576 0 0 0 0.17 0"/>
<feBlend mode="normal" in2="BackgroundImageFix" result="effect1_dropShadow_3772_2987"/>
<feBlend mode="normal" in="SourceGraphic" in2="effect1_dropShadow_3772_2987" result="shape"/>
</filter>
<filter id="filter18_d_3772_2987" x="49.8281" y="167.363" width="13.3906" height="13.6758" filterUnits="userSpaceOnUse" color-interpolation-filters="sRGB">
<feFlood flood-opacity="0" result="BackgroundImageFix"/>
<feColorMatrix in="SourceAlpha" type="matrix" values="0 0 0 0 0 0 0 0 0 0 0 0 0 0 0 0 0 0 127 0" result="hardAlpha"/>
<feOffset dy="1"/>
<feGaussianBlur stdDeviation="0.5"/>
<feComposite in2="hardAlpha" operator="out"/>
<feColorMatrix type="matrix" values="0 0 0 0 0.220647 0 0 0 0 0.205576 0 0 0 0 0.205576 0 0 0 0.17 0"/>
<feBlend mode="normal" in2="BackgroundImageFix" result="effect1_dropShadow_3772_2987"/>
<feBlend mode="normal" in="SourceGraphic" in2="effect1_dropShadow_3772_2987" result="shape"/>
</filter>
<filter id="filter19_d_3772_2987" x="44.3516" y="94.4258" width="11.3203" height="12.6523" filterUnits="userSpaceOnUse" color-interpolation-filters="sRGB">
<feFlood flood-opacity="0" result="BackgroundImageFix"/>
<feColorMatrix in="SourceAlpha" type="matrix" values="0 0 0 0 0 0 0 0 0 0 0 0 0 0 0 0 0 0 127 0" result="hardAlpha"/>
<feOffset dy="1"/>
<feGaussianBlur stdDeviation="0.5"/>
<feComposite in2="hardAlpha" operator="out"/>
<feColorMatrix type="matrix" values="0 0 0 0 0.220647 0 0 0 0 0.205576 0 0 0 0 0.205576 0 0 0 0.17 0"/>
<feBlend mode="normal" in2="BackgroundImageFix" result="effect1_dropShadow_3772_2987"/>
<feBlend mode="normal" in="SourceGraphic" in2="effect1_dropShadow_3772_2987" result="shape"/>
</filter>
<filter id="filter20_d_3772_2987" x="34.3125" y="94.4258" width="10.9297" height="12.5234" filterUnits="userSpaceOnUse" color-interpolation-filters="sRGB">
<feFlood flood-opacity="0" result="BackgroundImageFix"/>
<feColorMatrix in="SourceAlpha" type="matrix" values="0 0 0 0 0 0 0 0 0 0 0 0 0 0 0 0 0 0 127 0" result="hardAlpha"/>
<feOffset dy="1"/>
<feGaussianBlur stdDeviation="0.5"/>
<feComposite in2="hardAlpha" operator="out"/>
<feColorMatrix type="matrix" values="0 0 0 0 0.220647 0 0 0 0 0.205576 0 0 0 0 0.205576 0 0 0 0.17 0"/>
<feBlend mode="normal" in2="BackgroundImageFix" result="effect1_dropShadow_3772_2987"/>
<feBlend mode="normal" in="SourceGraphic" in2="effect1_dropShadow_3772_2987" result="shape"/>
</filter>
<filter id="filter21_d_3772_2987" x="24.4609" y="94.4141" width="10.5312" height="12.5469" filterUnits="userSpaceOnUse" color-interpolation-filters="sRGB">
<feFlood flood-opacity="0" result="BackgroundImageFix"/>
<feColorMatrix in="SourceAlpha" type="matrix" values="0 0 0 0 0 0 0 0 0 0 0 0 0 0 0 0 0 0 127 0" result="hardAlpha"/>
<feOffset dy="1"/>
<feGaussianBlur stdDeviation="0.5"/>
<feComposite in2="hardAlpha" operator="out"/>
<feColorMatrix type="matrix" values="0 0 0 0 0.220647 0 0 0 0 0.205576 0 0 0 0 0.205576 0 0 0 0.17 0"/>
<feBlend mode="normal" in2="BackgroundImageFix" result="effect1_dropShadow_3772_2987"/>
<feBlend mode="normal" in="SourceGraphic" in2="effect1_dropShadow_3772_2987" result="shape"/>
</filter>
<filter id="filter22_d_3772_2987" x="13.8047" y="94.4258" width="11.4766" height="12.5352" filterUnits="userSpaceOnUse" color-interpolation-filters="sRGB">
<feFlood flood-opacity="0" result="BackgroundImageFix"/>
<feColorMatrix in="SourceAlpha" type="matrix" values="0 0 0 0 0 0 0 0 0 0 0 0 0 0 0 0 0 0 127 0" result="hardAlpha"/>
<feOffset dy="1"/>
<feGaussianBlur stdDeviation="0.5"/>
<feComposite in2="hardAlpha" operator="out"/>
<feColorMatrix type="matrix" values="0 0 0 0 0.220647 0 0 0 0 0.205576 0 0 0 0 0.205576 0 0 0 0.17 0"/>
<feBlend mode="normal" in2="BackgroundImageFix" result="effect1_dropShadow_3772_2987"/>
<feBlend mode="normal" in="SourceGraphic" in2="effect1_dropShadow_3772_2987" result="shape"/>
</filter>
</defs>
</svg>
