<svg width="500" height="295" viewBox="0 0 500 295" fill="none" xmlns="http://www.w3.org/2000/svg">
<mask id="mask0_3470_1135" style="mask-type:alpha" maskUnits="userSpaceOnUse" x="0" y="0" width="500" height="295">
<rect width="500" height="295" fill="#D9D9D9"/>
</mask>
<g mask="url(#mask0_3470_1135)">
<path d="M277.987 207.375C274.306 187.64 269.617 161.464 263.979 148.666C262.706 145.774 258.879 141.755 253.387 141.699C248.133 141.646 242.354 145.392 238.463 148.849C227.449 158.626 217.673 170.878 208.41 182.25C197.843 180.481 167.431 174.43 157.13 172.889C152.676 158.585 149.244 141.809 146.439 131.872C145.34 127.973 142.722 123.827 140.132 122.693C134.998 120.443 127.073 123.841 122.569 126.813C113.493 132.805 98.9111 147.997 85.1707 164.499C64.1125 189.792 44.2837 223.323 29.7311 252.553L-7.59243 325.992L288.119 336.241C285.874 317.721 280.679 221.808 277.987 207.378L277.987 207.375Z" fill="white"/>
<path d="M27.5227 261.542C35.823 244.146 45.0071 227.133 55.0672 210.639C65.36 193.763 76.6214 177.461 89.4675 162.322C96.3284 154.237 103.443 146.319 111.083 138.923C116.544 133.635 122.449 127.914 129.748 125.152C133.251 123.826 138.1 122.536 140.964 125.649C143.965 128.911 144.814 133.466 145.857 137.589C148.245 147.008 150.364 156.487 152.961 165.854C153.65 168.335 154.371 170.806 155.132 173.265C155.329 173.905 155.954 174.515 156.649 174.62C170.665 176.734 184.559 179.695 198.489 182.282C201.63 182.866 204.775 183.448 207.928 183.979C208.631 184.097 209.462 183.945 209.935 183.367C215.396 176.659 220.823 169.921 226.604 163.469C229.459 160.281 232.397 157.165 235.471 154.174C238.356 151.364 241.297 148.568 244.755 146.433C247.885 144.501 251.679 142.841 255.433 143.745C258.204 144.413 260.672 146.465 261.938 148.945C264.574 154.104 265.927 160.167 267.347 165.729C270.963 179.898 273.546 194.331 276.17 208.703C278.287 220.309 279.967 232.001 281.603 243.682C283.33 256.018 285.062 268.386 286.192 280.793C286.429 283.393 290.6 283.224 290.363 280.609C289.335 269.317 287.782 258.06 286.236 246.829C284.509 234.298 282.714 221.763 280.483 209.305C277.829 194.475 275.15 179.582 271.449 164.964C269.945 159.026 268.421 152.805 265.714 147.259C262.674 141.029 255.452 138.135 248.741 140.118C244.366 141.411 240.491 144.102 237.116 147.048C233.377 150.311 229.878 153.847 226.504 157.468C219.593 164.883 213.252 172.78 206.866 180.62L208.873 180.008C194.838 177.651 180.9 174.749 166.894 172.227C163.799 171.67 160.703 171.116 157.593 170.648L159.109 172.003C156.019 162.028 153.64 151.864 151.172 141.73C150.157 137.556 149.372 133.129 147.784 129.121C146.171 125.051 143.392 120.717 138.663 119.882C130.383 118.42 122.114 123.91 116.113 128.864C108.611 135.061 101.872 142.156 95.3723 149.331C81.154 165.022 68.4796 181.816 57.1104 199.569C46.1083 216.754 36.1575 234.591 27.1408 252.838" fill="#040000"/>
<path d="M86.6188 213.532C79.8426 217.052 74.3192 224.737 73.9684 233.778C73.8921 235.713 74.0883 237.685 74.8001 239.49C76.6897 244.274 81.789 247.061 86.7685 248.707C92.453 250.585 98.4763 251.488 104.483 251.364C107.513 251.302 110.577 250.971 113.396 249.878C120.918 246.962 125.482 238.546 124.536 230.721C123.589 222.895 117.677 216.068 110.233 213.027C102.788 209.985 93.3925 210.016 86.6189 213.534L86.6188 213.532Z" fill="#EDCCA1"/>
<path d="M263.972 148.414C262.699 145.521 258.872 141.503 253.38 141.447C248.126 141.394 242.347 145.14 238.456 148.597C227.442 158.374 217.666 170.626 208.403 181.998C204.525 181.35 197.971 180.121 190.721 178.755C189.13 188.876 190.687 199.469 195.346 208.632C201.693 221.119 213.671 230.741 227.456 234.431C228.893 234.816 230.365 235.146 231.688 235.813C233.156 236.554 234.373 237.678 235.606 238.749C246.019 247.8 259.106 254.062 272.96 255.774C277.037 256.277 281.176 256.363 285.281 256.056C283.358 239.689 280.325 219.688 277.981 207.125C274.299 187.39 269.61 161.215 263.972 148.417L263.972 148.414Z" fill="#EDCCA1"/>
<path d="M163.413 234.892C162.003 236.59 163.511 238.787 165.049 240.587C166.478 242.258 168.383 243.687 169.96 244.039C171.593 244.404 173.954 243.86 176.063 242.827C177.892 241.935 180.092 240.722 179.993 238.592C179.918 236.946 176.462 235.025 172.652 234.185C168.862 233.349 164.741 233.293 163.413 234.892Z" fill="#26201D"/>
<path d="M127.559 212.998C133.434 215.297 139.014 218.317 144.063 222.043C144.958 222.706 146.198 222.779 147.01 221.913C147.719 221.159 147.789 219.704 146.887 219.039C141.547 215.096 135.735 211.83 129.513 209.394C128.469 208.986 127.258 209.208 126.692 210.25C126.205 211.147 126.51 212.588 127.559 212.998V212.998Z" fill="#26201D"/>
<path d="M125.79 209.742C126.654 208.151 128.41 207.899 129.752 208.367L129.881 208.414L129.882 208.415C136.192 210.885 142.083 214.196 147.492 218.19L147.631 218.3C148.3 218.867 148.574 219.684 148.583 220.43C148.592 221.214 148.316 222.041 147.755 222.638L147.755 222.638C146.495 223.983 144.652 223.777 143.458 222.894C138.486 219.224 132.986 216.247 127.189 213.978L127.189 213.978C126.296 213.628 125.772 212.859 125.558 212.094C125.347 211.341 125.397 210.465 125.79 209.742ZM129.008 210.327C128.342 210.118 127.818 210.345 127.594 210.758L127.593 210.758C127.499 210.932 127.458 211.226 127.54 211.519C127.619 211.801 127.772 211.957 127.928 212.018L127.641 212.779L127.928 212.018C133.881 214.348 139.54 217.41 144.667 221.194L144.668 221.194C145.265 221.636 145.902 221.576 146.264 221.189L146.265 221.188C146.413 221.031 146.525 220.753 146.522 220.456C146.518 220.17 146.413 219.986 146.283 219.89L146.282 219.89C141.011 215.998 135.278 212.777 129.143 210.375L129.008 210.327Z" fill="#26201D"/>
<path d="M200.313 232.332C206.237 231.019 212.429 230.63 218.474 231.188C219.594 231.29 220.702 230.822 220.978 229.655C221.205 228.692 220.545 227.323 219.415 227.218C212.572 226.586 205.755 226.97 199.04 228.46C197.939 228.703 197.37 230.047 197.691 231.026C198.059 232.149 199.213 232.578 200.316 232.332L200.313 232.332Z" fill="#26201D"/>
<path d="M198.821 227.435C205.43 225.968 212.133 225.557 218.858 226.116L219.509 226.172L219.509 226.173C220.487 226.264 221.193 226.896 221.591 227.578C221.983 228.248 222.167 229.11 221.98 229.9L221.98 229.9C221.536 231.781 219.771 232.361 218.382 232.233L218.381 232.234C212.442 231.686 206.356 232.067 200.537 233.357L200.537 233.358C199.14 233.669 197.412 233.18 196.772 231.522L196.713 231.358C196.455 230.569 196.566 229.7 196.911 228.998C197.259 228.288 197.905 227.638 198.821 227.435L198.821 227.435ZM219.322 228.263C212.578 227.641 205.867 228.02 199.26 229.486L199.259 229.486C199.075 229.527 198.885 229.67 198.754 229.937C198.619 230.213 198.607 230.505 198.668 230.694L198.701 230.778C198.884 231.19 199.378 231.466 200.095 231.307L200.095 231.307C206.12 229.971 212.418 229.576 218.565 230.142L218.566 230.142C218.969 230.179 219.314 230.107 219.55 229.976C219.765 229.857 219.911 229.684 219.976 229.409C220.017 229.237 219.984 228.933 219.82 228.651C219.662 228.382 219.473 228.278 219.322 228.264L219.322 228.263Z" fill="#26201D"/>
<path d="M116.291 243.785C119.221 250.309 127.902 252.639 134.349 254.105C141.222 255.669 148.22 256.15 155.263 255.617C159.279 255.314 163.351 254.872 167.306 254.127C167.795 254.036 168.571 253.814 168.95 253.91C169.536 254.057 170.159 254.662 170.63 254.994C172.34 256.204 174.112 257.332 175.93 258.381C182.632 262.242 190.094 264.934 197.821 265.998C201.898 266.56 206.208 266.882 210.314 266.396C213.756 265.991 217.849 265.263 220.513 262.924C222.515 261.168 219.427 258.436 217.443 260.181C216.628 260.897 215.273 261.205 214.254 261.496C212.68 261.944 211.068 262.258 209.435 262.405C205.998 262.715 202.448 262.519 199.039 262.07C191.729 261.101 184.77 258.668 178.4 255.075C176.827 254.186 175.279 253.246 173.793 252.225C172.62 251.42 171.467 250.367 170.058 249.98C168.765 249.624 167.486 249.995 166.207 250.228C164.187 250.595 162.119 250.817 160.08 251.062C153.485 251.847 146.856 252.127 140.28 251.102C136.401 250.497 132.382 249.676 128.689 248.364C125.877 247.365 121.554 245.394 120.269 242.529C119.204 240.158 115.215 241.386 116.294 243.788L116.291 243.785Z" fill="#26201D"/>
<path d="M117.175 240.365C118.467 239.961 120.279 240.27 121.127 241.927L121.206 242.092L121.206 242.093C121.717 243.233 122.9 244.305 124.437 245.246C125.946 246.171 127.657 246.886 129.028 247.373L129.028 247.373C132.634 248.654 136.583 249.463 140.436 250.064C146.884 251.069 153.411 250.799 159.959 250.019L161.496 249.837C163.027 249.655 164.539 249.465 166.026 249.195L166.468 249.108C167.549 248.889 168.945 248.586 170.327 248.967L170.326 248.967C171.185 249.203 171.933 249.632 172.583 250.071C172.909 250.291 173.224 250.522 173.518 250.74C173.817 250.961 174.093 251.166 174.368 251.355L174.369 251.355C175.823 252.354 177.344 253.278 178.898 254.156C185.163 257.69 191.999 260.078 199.171 261.029L199.171 261.029C202.532 261.472 206.003 261.66 209.344 261.36C210.908 261.219 212.458 260.918 213.976 260.485C214.526 260.328 215.058 260.195 215.584 260.007C216.108 259.82 216.507 259.617 216.769 259.386L216.908 259.27C218.354 258.12 220.123 258.535 221.15 259.449C221.688 259.927 222.118 260.615 222.184 261.422C222.254 262.272 221.905 263.089 221.185 263.72C218.252 266.294 213.85 267.036 210.432 267.439L210.433 267.439C206.202 267.939 201.794 267.605 197.683 267.039C189.816 265.955 182.229 263.217 175.422 259.295L175.422 259.294C173.578 258.231 171.779 257.086 170.041 255.856L170.041 255.855C169.897 255.754 169.749 255.637 169.619 255.535C169.482 255.426 169.357 255.327 169.231 255.235C168.984 255.053 168.823 254.968 168.728 254.937C168.717 254.936 168.697 254.936 168.668 254.938C168.588 254.943 168.482 254.958 168.349 254.982C168.217 255.006 168.079 255.035 167.931 255.067C167.791 255.098 167.632 255.133 167.491 255.159L167.491 255.159C163.486 255.914 159.374 256.359 155.339 256.663L155.34 256.664C148.2 257.204 141.099 256.717 134.124 255.129C130.897 254.396 127.019 253.427 123.567 251.794C120.119 250.163 116.964 247.807 115.354 244.222L115.355 244.221C114.96 243.338 114.998 242.45 115.421 241.714C115.82 241.02 116.493 240.578 117.175 240.365ZM119.279 242.862C118.996 242.369 118.396 242.179 117.779 242.372C117.467 242.469 117.278 242.637 117.2 242.774C117.145 242.869 117.088 243.034 117.231 243.351L117.23 243.352C118.55 246.289 121.2 248.359 124.435 249.89C127.668 251.419 131.353 252.348 134.573 253.08L134.574 253.08C141.343 254.621 148.24 255.096 155.187 254.57L155.187 254.57C159.182 254.269 163.214 253.831 167.118 253.094L167.121 253.094C167.224 253.075 167.346 253.048 167.5 253.014C167.647 252.982 167.818 252.946 167.989 252.915C168.158 252.884 168.348 252.855 168.536 252.843C168.689 252.833 168.893 252.83 169.105 252.871L169.197 252.891L169.289 252.916C169.748 253.052 170.15 253.322 170.435 253.531C170.597 253.65 170.753 253.773 170.882 253.876C170.951 253.93 171.012 253.978 171.066 254.02L171.215 254.13L171.218 254.132C172.9 255.323 174.645 256.434 176.437 257.467L176.437 257.467C183.034 261.268 190.372 263.912 197.959 264.958L197.959 264.958C202.001 265.515 206.213 265.824 210.195 265.353L210.195 265.353C213.661 264.945 217.445 264.231 219.84 262.129L219.934 262.04C220.125 261.838 220.137 261.686 220.13 261.597C220.118 261.452 220.027 261.236 219.795 261.03C219.317 260.605 218.632 260.523 218.117 260.975L218.117 260.975C217.564 261.461 216.878 261.77 216.266 261.989C215.656 262.207 215 262.373 214.531 262.507C212.902 262.971 211.227 263.298 209.526 263.451C205.992 263.769 202.364 263.567 198.906 263.111L198.905 263.111C191.459 262.124 184.376 259.646 177.9 255.993L177.899 255.993C176.308 255.094 174.733 254.138 173.216 253.096L173.216 253.095C172.905 252.882 172.598 252.653 172.307 252.439C172.011 252.22 171.729 252.013 171.445 251.821C170.873 251.435 170.34 251.145 169.79 250.994L169.788 250.994C168.782 250.716 167.821 251.001 166.388 251.262L166.388 251.262C164.329 251.635 162.221 251.862 160.2 252.104L160.199 252.104C153.766 252.87 147.247 253.166 140.752 252.234L140.124 252.139C136.219 251.53 132.128 250.698 128.349 249.355C126.908 248.843 125.051 248.073 123.375 247.045C121.726 246.036 120.105 244.69 119.331 242.965L119.279 242.862Z" fill="#26201D"/>
<path d="M224.768 244.242C237.527 243.113 250.296 242.594 263.104 242.684C264.448 242.694 264.356 240.659 263.017 240.652C250.212 240.561 237.441 241.08 224.682 242.21C223.349 242.328 223.427 244.363 224.768 244.242Z" fill="#040000"/>
<path d="M224.552 240.716C237.358 239.582 250.177 239.06 263.03 239.151L263.03 239.152C264.662 239.162 265.515 240.476 265.565 241.606C265.59 242.172 265.433 242.813 264.993 243.336C264.582 243.823 264.007 244.111 263.368 244.171L263.09 244.183C250.331 244.093 237.61 244.609 224.899 245.735L224.9 245.736L224.898 245.735L224.898 245.736L224.897 245.735C224.153 245.801 223.45 245.564 222.939 245.052C222.458 244.57 222.246 243.945 222.223 243.378C222.178 242.246 222.921 240.86 224.552 240.716Z" fill="#26201D"/>
<path d="M223.91 250.796C236.203 251.581 248.127 254.75 259.949 257.908C261.248 258.253 261.71 256.269 260.42 255.923C248.401 252.713 236.317 249.561 223.823 248.763C222.487 248.678 222.581 250.71 223.91 250.796Z" fill="#040000"/>
<path d="M223.921 247.265L225.107 247.349C237.348 248.275 249.181 251.368 260.809 254.474L260.811 254.474C262.404 254.901 262.875 256.411 262.615 257.516C262.485 258.069 262.161 258.638 261.606 259.024C261.016 259.433 260.285 259.55 259.562 259.358L259.56 259.357C247.715 256.193 235.933 253.067 223.812 252.293L223.811 252.293C222.229 252.191 221.418 250.89 221.369 249.785C221.344 249.224 221.497 248.57 221.961 248.042C222.398 247.546 223 247.287 223.643 247.262L223.921 247.265Z" fill="#26201D"/>
<path d="M78.8132 211.058C85.5364 212.138 92.1037 214.118 98.5113 216.333C105.03 218.588 111.461 221.167 117.626 224.231C118.823 224.826 119.799 223.022 118.603 222.429C112.444 219.368 106.016 216.805 99.5073 214.53C92.932 212.235 86.1864 210.179 79.2813 209.07C77.9615 208.859 77.485 210.842 78.8104 211.055L78.8132 211.058Z" fill="#040000"/>
<path d="M79.227 207.557L79.5206 207.589L79.5216 207.589C86.5549 208.719 93.3966 210.808 100.003 213.114L100.004 213.114C106.551 215.402 113.039 217.988 119.27 221.085C119.945 221.419 120.415 221.995 120.582 222.694C120.738 223.351 120.599 223.991 120.33 224.488C119.792 225.48 118.44 226.311 116.957 225.574L116.957 225.575C111.244 222.736 105.288 220.312 99.2313 218.175L98.0188 217.751C91.6427 215.547 85.1703 213.598 78.5732 212.538L78.1392 212.47L78.065 212.403C77.5469 212.21 77.1136 211.858 76.8353 211.369C76.4943 210.77 76.4636 210.108 76.5949 209.558C76.8392 208.534 77.7944 207.475 79.227 207.557Z" fill="#26201D"/>
<path d="M75.6364 230.609C89.1597 229.435 102.701 230.107 116.177 231.417C117.496 231.545 117.981 229.562 116.648 229.432C102.986 228.104 89.2639 227.384 75.5498 228.577C74.2166 228.692 74.2951 230.727 75.6364 230.609V230.609Z" fill="#040000"/>
<path d="M75.4216 227.082C89.2684 225.877 103.095 226.607 116.795 227.939L116.796 227.939C117.539 228.011 118.213 228.382 118.609 229.041C118.974 229.651 118.996 230.328 118.865 230.87C118.626 231.865 117.714 232.92 116.316 232.923L116.03 232.909C102.596 231.603 89.1569 230.94 75.7645 232.102L75.7656 232.103L75.7636 232.102L75.7636 232.103L75.7626 232.102C75.0179 232.167 74.3157 231.929 73.8058 231.417C73.3259 230.934 73.1144 230.311 73.0914 229.743C73.0454 228.611 73.79 227.225 75.4217 227.083L75.4216 227.082ZM75.6346 230.589L75.5092 229.115L75.5072 229.115L75.6346 230.589Z" fill="#26201D"/>
<path d="M-5.73623 325.992C2.5641 308.596 45.0063 227.132 55.0664 210.638C65.3592 193.762 76.6206 177.461 89.4667 162.322C96.3276 154.236 103.442 146.319 111.082 138.922C116.543 133.634 122.448 127.913 129.747 125.151C133.25 123.825 138.099 122.535 140.963 125.648C143.965 128.91 144.813 133.466 145.856 137.588C148.244 147.007 150.364 156.486 152.96 165.853C153.649 168.334 154.37 170.805 155.131 173.264C155.328 173.904 155.954 174.514 156.648 174.62C170.664 176.733 184.558 179.695 198.488 182.282C201.63 182.866 204.774 183.447 207.927 183.978C208.63 184.096 209.461 183.945 209.935 183.366C215.396 176.658 220.822 169.92 226.603 163.468C229.459 160.281 232.396 157.165 235.471 154.173C238.356 151.364 241.296 148.568 244.754 146.432C247.885 144.5 251.678 142.841 255.433 143.745C258.203 144.412 260.671 146.465 261.937 148.944C264.574 154.104 265.927 160.166 267.346 165.729C270.963 179.897 273.545 194.33 276.169 208.703C278.286 220.309 279.967 232.001 281.603 243.681C283.33 256.017 285.061 268.385 286.192 280.792C286.428 283.392 290.6 283.224 290.362 280.608C289.334 269.317 287.782 258.059 286.236 246.828C284.509 234.298 282.713 221.762 280.483 209.305C277.828 194.474 275.15 179.581 271.448 164.963C269.945 159.025 268.421 152.805 265.713 147.259C262.673 141.028 255.451 138.134 248.741 140.118C244.365 141.411 240.49 144.101 237.115 147.047C233.377 150.311 229.877 153.847 226.504 157.468C219.592 164.883 213.252 172.779 206.865 180.62L208.872 180.008C194.837 177.65 180.899 174.749 166.893 172.227C163.799 171.67 161.416 170.954 158.306 170.485L159.109 172.002C156.018 162.027 153.639 151.863 151.172 141.73C150.156 137.555 149.371 133.128 147.783 129.12C146.17 125.05 143.391 120.716 138.662 119.882C130.382 118.42 122.114 123.909 116.113 128.863C108.61 135.061 101.872 142.156 95.3715 149.331C81.1532 165.022 68.4788 181.816 57.1096 199.569C46.1075 216.753 2.89854 299.041 -6.11808 317.288" fill="#26201D"/>
<path d="M125.929 120.631C129.939 118.748 134.382 117.634 138.909 118.433C144.429 119.407 147.475 124.414 149.121 128.57C150.76 132.706 151.588 137.329 152.572 141.376L153.496 145.181C155.456 153.265 157.414 161.309 159.78 169.24C160.885 169.439 161.91 169.662 162.915 169.887C164.3 170.197 165.634 170.507 167.144 170.779C180.503 173.185 193.656 175.905 206.966 178.193C212.939 170.851 218.946 163.442 225.458 156.455C228.849 152.815 232.387 149.24 236.177 145.931C239.621 142.924 243.68 140.083 248.339 138.706C255.654 136.544 263.625 139.677 267.006 146.604C269.794 152.315 271.352 158.697 272.846 164.596C276.562 179.274 279.25 194.218 281.903 209.041C284.139 221.53 285.938 234.091 287.665 246.624L288.244 250.836C289.495 259.97 290.71 269.145 291.6 278.348L291.8 280.472C291.899 281.566 291.526 282.518 290.828 283.181C290.169 283.806 289.312 284.09 288.515 284.124C286.965 284.189 284.966 283.246 284.755 280.928C283.628 268.562 281.902 256.23 280.175 243.889L279.559 239.509C278.113 229.293 276.598 219.097 274.751 208.971L273.766 203.577C271.465 190.994 269.101 178.443 265.95 166.098C264.51 160.454 263.2 154.596 260.658 149.622L260.658 149.622C259.576 147.504 257.445 145.739 255.101 145.175C251.936 144.412 248.577 145.791 245.503 147.688C242.196 149.73 239.36 152.419 236.468 155.235L236.468 155.235C233.423 158.198 230.509 161.289 227.67 164.458C221.917 170.878 216.515 177.585 211.046 184.304L211.044 184.306C210.116 185.441 208.668 185.592 207.692 185.427C204.526 184.895 201.37 184.311 198.229 183.727C184.249 181.131 170.423 178.182 156.437 176.073L156.435 176.073C155.138 175.876 154.099 174.822 153.755 173.704C152.989 171.23 152.264 168.745 151.572 166.253C148.971 156.871 146.832 147.313 144.459 137.955L144.459 137.954C143.371 133.655 142.597 129.573 139.911 126.653L139.91 126.653C138.869 125.521 137.425 125.116 135.665 125.203C133.885 125.291 131.965 125.879 130.25 126.528C123.277 129.167 117.581 134.657 112.076 139.987C104.483 147.338 97.403 155.217 90.5587 163.282C77.7744 178.349 66.5569 194.584 56.2927 211.413C46.2708 227.845 3.85336 309.257 -4.43797 326.634L-7.03345 325.349C1.27585 307.935 43.7426 226.42 53.841 209.862C64.1623 192.94 75.4676 176.572 88.3753 161.36C95.2527 153.256 102.401 145.299 110.088 137.857C115.506 132.611 121.621 126.658 129.244 123.773C131.033 123.096 133.29 122.377 135.525 122.267C137.782 122.155 140.194 122.662 142.017 124.643C145.333 128.247 146.255 133.275 147.254 137.22L147.701 138.997C149.921 147.875 151.919 156.685 154.349 165.453L154.607 166.378C155.127 168.227 155.666 170.07 156.226 171.905L156.508 172.822L156.509 172.824C156.521 172.863 156.569 172.958 156.67 173.05C156.769 173.142 156.846 173.163 156.861 173.166C170.908 175.283 184.868 178.258 198.747 180.835C200.508 181.163 202.267 181.488 204.025 181.804L204.839 180.805C192.078 178.576 179.322 175.957 166.642 173.674C165.058 173.388 163.653 173.062 162.296 172.758C161.27 172.528 160.262 172.309 159.187 172.118L157.839 172.699L155.672 168.603L156.62 168.745C154.038 159.909 151.932 150.955 149.772 142.083L149.771 142.083C148.725 137.781 147.983 133.55 146.445 129.67C144.891 125.748 142.432 122.138 138.6 121.364L138.416 121.329C134.663 120.667 130.832 121.566 127.137 123.3C123.443 125.035 119.983 127.559 117.021 130.004L117.022 130.004C109.604 136.132 102.922 143.163 96.4324 150.327L96.432 150.327C82.7148 165.465 70.4375 181.637 59.3844 198.715L58.3186 200.371C47.3663 217.478 4.19085 299.695 -4.82866 317.948L-7.40635 316.627C1.60748 298.385 44.8491 216.028 55.9012 198.766C67.3112 180.949 80.0349 164.089 94.3117 148.334C100.822 141.147 107.618 133.988 115.204 127.721L115.205 127.721C118.244 125.212 121.919 122.514 125.929 120.631ZM264.421 147.913C261.721 142.379 255.249 139.724 249.143 141.529C245.052 142.738 241.36 145.277 238.055 148.162C234.368 151.381 230.905 154.878 227.551 158.479L227.551 158.479C221.119 165.379 215.182 172.701 209.201 180.052L209.286 181.415L206.546 182.251C207.085 182.344 207.624 182.437 208.163 182.528C208.337 182.557 208.513 182.549 208.649 182.512C208.774 182.479 208.817 182.436 208.825 182.426C214.277 175.729 219.729 168.961 225.538 162.477C228.409 159.272 231.37 156.13 234.474 153.11C237.352 150.307 240.396 147.404 244.006 145.175L244.007 145.174C247.143 143.239 251.289 141.329 255.561 142.267L255.765 142.314L256.064 142.391C259.136 143.231 261.813 145.513 263.218 148.265L263.47 148.769C266.036 154.001 267.388 160.048 268.743 165.359C271.921 177.809 274.303 190.457 276.604 203.044L277.588 208.434C279.446 218.618 280.968 228.864 282.415 239.092L283.031 243.474C284.758 255.803 286.494 268.207 287.629 280.656C287.648 280.869 287.727 280.967 287.821 281.036C287.945 281.127 288.153 281.198 288.395 281.187C288.641 281.177 288.797 281.091 288.861 281.03C288.886 281.007 288.945 280.957 288.926 280.744L288.728 278.634C287.844 269.495 286.636 260.373 285.386 251.246L284.807 247.032C283.081 234.504 281.288 221.994 279.064 209.568C276.408 194.73 273.738 179.888 270.051 165.33C268.585 159.539 267.142 153.672 264.665 148.419L264.421 147.913Z" fill="#26201D"/>
<path d="M289.171 351.573C283.165 368.39 266.735 380.232 247.638 375.742C219.923 369.219 223.36 338.587 227.192 314.28C233.494 274.3 260.186 223.257 282.375 192.911C263.849 177.313 248.442 170.152 242.358 149.498C238.011 134.743 242.874 123.063 246.522 113.371C250.171 103.679 243.982 81.6383 252.091 59.3045C258.81 40.8006 272.268 26.4421 295.876 16.7353C326.632 4.09365 352.463 9.54504 371.638 20.6312C392.775 32.8547 398.69 57.9031 404.943 64.367C411.428 71.073 421.598 80.2369 425.671 93.7076C430.808 110.715 423.567 139.843 423.207 143.577C422.876 147.018 443.78 230.748 443.78 230.748L297.09 323.473C297.09 323.473 294.662 336.21 289.178 351.573H289.171Z" fill="white"/>
<path d="M294.719 13.8151C326.449 0.773581 353.266 6.38813 373.165 17.8926L373.165 17.893C384.424 24.4035 391.526 34.2729 396.546 43.0776C399.045 47.4597 401.094 51.704 402.816 55.0705C404.57 58.4994 405.882 60.7916 407.035 62.0397L407.146 62.1569L407.146 62.1574C413.315 68.5356 423.942 78.1005 428.418 92.1107L428.627 92.7811V92.7819C431.404 101.977 430.787 114.095 429.569 124.011C428.952 129.038 428.161 133.631 427.506 137.182C426.864 140.667 426.419 142.839 426.304 143.72C426.306 143.733 426.307 143.748 426.309 143.764C426.33 143.945 426.369 144.217 426.432 144.592C426.557 145.337 426.756 146.369 427.023 147.664C427.556 150.247 428.339 153.773 429.294 157.933C431.202 166.246 433.78 177.02 436.372 187.697C438.962 198.373 441.564 208.942 443.518 216.843C444.495 220.793 445.31 224.076 445.881 226.371C446.166 227.518 446.39 228.419 446.543 229.032C446.619 229.339 446.678 229.574 446.718 229.732C446.738 229.812 446.752 229.872 446.762 229.912C446.767 229.932 446.771 229.947 446.774 229.957C446.775 229.962 446.776 229.966 446.777 229.969C446.777 229.97 446.777 229.971 446.777 229.971C446.777 229.972 446.722 229.986 443.781 230.748L446.777 229.972C447.11 231.303 446.557 232.7 445.411 233.424L299.848 325.436C299.789 325.714 299.721 326.032 299.643 326.387C299.323 327.852 298.841 329.959 298.185 332.549C296.874 337.725 294.869 344.851 292.085 352.65C292.06 352.719 292.033 352.786 292.004 352.852C285.501 370.787 267.746 383.701 246.943 378.81H246.942C239.449 377.047 233.861 373.593 229.867 368.857C225.901 364.153 223.678 358.389 222.547 352.262C220.306 340.132 222.234 325.87 224.14 313.78C230.385 274.165 256.16 224.266 278.141 193.461C274.388 190.39 270.77 187.634 267.3 184.965C263.162 181.783 259.211 178.707 255.638 175.446C248.53 168.96 242.828 161.667 239.552 150.918L239.398 150.403C234.706 134.48 240.033 121.815 243.636 112.243C244.339 110.376 244.642 107.662 244.701 103.925C244.76 100.175 244.583 96.0319 244.543 91.1049C244.465 81.4864 244.938 69.9275 249.192 58.2123C256.253 38.7651 270.419 23.8072 294.719 13.8155L294.719 13.8151ZM370.112 23.37C351.661 12.7023 326.817 7.41382 297.033 19.6554L297.034 19.6558C274.477 28.9305 261.769 42.4076 255.295 59.5765L254.992 60.397C251.136 71.0157 250.65 81.6442 250.726 91.0524C250.764 95.6385 250.944 100.219 250.884 104.025C250.824 107.844 250.531 111.52 249.41 114.498C245.716 124.311 241.317 135.007 245.32 148.593L245.321 148.594C248.155 158.215 253.13 164.701 259.765 170.755C263.119 173.816 266.875 176.746 271.026 179.939C275.152 183.112 279.65 186.531 284.345 190.484C285.615 191.553 285.839 193.447 284.855 194.792C262.822 224.926 236.438 275.495 230.245 314.779V314.779C228.319 326.997 226.612 340.204 228.624 351.098C229.618 356.482 231.494 361.119 234.558 364.753C237.595 368.354 241.97 371.176 248.334 372.674H248.334C265.648 376.744 280.697 366.09 286.266 350.497C286.287 350.44 286.309 350.383 286.333 350.328C289.001 342.83 290.932 335.971 292.197 330.976C292.834 328.461 293.301 326.423 293.607 325.019C293.761 324.318 293.874 323.775 293.948 323.41C293.985 323.228 294.013 323.091 294.03 323C294.039 322.955 294.046 322.922 294.05 322.9C294.052 322.89 294.053 322.882 294.054 322.877C294.055 322.875 294.055 322.874 294.055 322.873C294.219 322.012 294.729 321.26 295.46 320.798L440.227 229.288C440.126 228.881 440.012 228.423 439.886 227.917C439.315 225.619 438.499 222.334 437.521 218.381C435.566 210.475 432.962 199.896 430.369 189.209C427.775 178.524 425.19 167.72 423.272 159.367C422.314 155.193 421.518 151.612 420.971 148.958C420.698 147.634 420.482 146.514 420.337 145.655C420.265 145.228 420.206 144.834 420.167 144.497C420.139 144.248 420.084 143.754 420.131 143.27L420.157 143.041C420.311 141.799 420.856 139.129 421.429 136.02C422.072 132.529 422.838 128.076 423.433 123.229C424.641 113.395 425.076 102.446 422.716 94.6341V94.6337C418.917 82.0691 409.445 73.5096 402.741 66.5772C400.793 64.5642 399.049 61.3375 397.332 57.9806C395.526 54.4507 393.603 50.4565 391.199 46.2406C386.415 37.8493 379.991 29.0829 370.112 23.37Z" fill="#26201D"/>
<path d="M344.701 119.724C345.67 118.291 347.595 117.93 349.001 118.916C350.408 119.903 350.762 121.863 349.794 123.296C345.293 129.952 339.639 132.882 334.313 133.668C329.117 134.436 324.394 133.144 321.511 131.635C319.993 130.84 319.394 128.942 320.174 127.395C320.955 125.848 322.819 125.239 324.338 126.033C326.225 127.021 329.657 127.992 333.426 127.435C337.067 126.898 341.189 124.917 344.701 119.724Z" fill="#26201D"/>
<path d="M245.471 46.2374C255.549 27.2859 270.08 21.5924 276.016 25.1655C281.598 28.5259 280.582 32.8327 282.417 46.5602C284.054 58.7763 286.63 70.9043 278.112 79.7381C273.171 84.8666 261.456 88.337 249.254 83.8835C234.652 78.5495 235.195 65.5557 245.464 46.2374H245.471Z" fill="white"/>
<path d="M260.742 24.5344C266.706 20.9931 273.157 19.7854 277.591 22.4547L277.591 22.4551C279.286 23.4754 280.65 24.6741 281.683 26.2415C282.7 27.7854 283.265 29.4923 283.647 31.3182C284.023 33.1115 284.257 35.2055 284.504 37.5644C284.756 39.9688 285.031 42.7588 285.482 46.1344L285.634 47.2485C286.409 52.8502 287.38 58.8965 287.164 64.54C286.928 70.7243 285.274 76.806 280.32 81.9432L280.321 81.9436C274.392 88.0978 261.345 91.6412 248.212 86.8481L248.212 86.8477C244.189 85.3782 240.961 83.2905 238.676 80.474C236.368 77.6291 235.188 74.2467 234.949 70.5099C234.483 63.2419 237.562 54.4933 242.747 44.7382L243.624 43.0881H243.66C248.758 34.0946 254.896 28.0053 260.742 24.5344ZM274.445 27.8767C272.943 26.9729 269.161 26.8254 263.856 29.9753C258.783 32.9876 253.003 38.6893 248.192 47.7372L247.661 48.7349C242.942 57.817 240.786 64.8965 241.12 70.0994C241.286 72.6926 242.067 74.7663 243.443 76.4617C244.841 78.1851 247.021 79.7215 250.298 80.9189C261.57 85.0329 271.955 81.6355 275.907 77.5327L275.908 77.5315C279.472 73.8352 280.789 69.4369 280.985 64.2953C281.188 58.9885 280.201 53.2942 279.355 46.986V46.9852C278.889 43.4976 278.603 40.6016 278.355 38.2328C278.102 35.8185 277.897 34.0517 277.6 32.6324C277.31 31.2457 276.967 30.3879 276.547 29.7502C276.168 29.1744 275.615 28.6115 274.645 27.9997L274.445 27.8767Z" fill="#26201D"/>
<path d="M355.775 8.47371C375.205 10.5134 391.254 24.9746 395.121 35.1657C397.457 41.3214 392.115 48.2695 384.401 53.3027C376.63 58.3726 366.425 60.2435 359.248 58.6661C350.327 56.7144 346.714 46.7655 342.105 32.0695C338.005 19.0023 331.723 5.93511 355.783 8.46637L355.775 8.47371Z" fill="white"/>
<path d="M341.803 6.31071C345.219 4.96808 349.924 4.68439 356.098 5.33398L362.474 6.00482L362.132 6.36074C370.086 8.20891 377.269 11.884 383.104 16.2186C390.322 21.581 395.785 28.1865 398.003 34.0301C399.653 38.3779 398.449 42.7331 396.117 46.3754C393.794 50.0038 390.152 53.2884 386.066 55.9544H386.066C377.684 61.423 366.655 63.5148 358.596 61.7446C352.984 60.5168 349.232 56.7436 346.381 51.7236C343.59 46.81 341.442 40.3143 339.157 33.0276V33.0272C338.185 29.93 336.953 26.4397 336.139 23.3222C335.327 20.2164 334.738 16.834 335.353 13.7846C336.033 10.4112 338.121 7.75822 341.803 6.31071ZM354.444 11.4994C349.193 11.0314 345.954 11.4305 344.03 12.1866C342.252 12.8856 341.654 13.8417 341.41 15.052C341.101 16.5864 341.347 18.7631 342.115 21.7034C342.784 24.2656 343.702 26.9156 344.643 29.8399L345.048 31.1106V31.1114C347.371 38.5206 349.335 44.3471 351.733 48.5699C353.998 52.5575 356.429 54.7252 359.587 55.5148L359.895 55.587L359.898 55.5878C366.193 56.9715 375.572 55.3213 382.731 50.6509L383.068 50.4282C386.538 48.1148 389.298 45.4949 390.937 42.9347C392.568 40.3878 392.901 38.2466 392.296 36.4715L392.235 36.301C390.585 31.9536 386.09 26.2332 379.46 21.3073C372.89 16.4269 364.529 12.5585 355.456 11.606L354.444 11.4994Z" fill="#26201D"/>
<path d="M294.644 93.7809C291.254 94.4165 289.637 98.8233 290.194 101.959C290.439 103.315 290.957 104.176 291.604 104.77C292.264 105.377 293.13 105.659 293.984 105.758C296.067 106.013 298.279 105.179 299.664 103.456C301.048 101.733 301.475 99.1057 300.595 97.0295C299.715 94.9532 298.059 93.1453 294.657 93.7668L294.644 93.7809Z" fill="#26201D"/>
<path d="M352.96 78.6511C351.062 80.1242 350.839 83.2644 352.034 85.3655C353.228 87.4667 355.897 88.5743 358.197 87.9348C360.497 87.2954 361.87 85.3998 362.239 83.2873C362.484 81.8827 360.943 79.2563 359.805 78.4798C359.057 77.966 356.031 76.2988 352.971 78.6625L352.96 78.6511Z" fill="#26201D"/>
<path d="M328.622 98.9167C323.365 100.377 320.64 103.084 319.794 105.175C318.636 108.044 319.716 111.324 322.165 113.099C325.305 115.381 328.997 115.975 333.005 114.882C336.576 113.906 340.02 111.272 341.213 107.428C342.378 103.678 341.023 100.59 338.686 99.1882C337.042 98.205 333.619 97.53 328.63 98.9167H328.622Z" fill="#26201D"/>
<path d="M270.796 186.542C273.937 185.501 274.304 189.088 280.889 190.981C294.114 194.782 327.708 191.289 355.783 182.236C377.033 175.383 401.855 164.634 412.702 156.145C424.728 146.732 422.568 141.501 424.862 141.537C428.207 141.589 429.612 152.704 429.591 156.292C428.779 161.142 427.121 165.705 417.021 173.013C405.489 181.355 385.735 192.17 361.147 199.47C330.778 208.48 307.707 210.028 292.484 208.678C281.383 207.695 274.932 204.07 273.669 202.39C272.54 200.886 266.83 187.87 270.789 186.557L270.796 186.542Z" fill="#FFADA5"/>
<path d="M424.909 138.389C427.549 138.431 429.037 140.584 429.718 141.833C430.517 143.303 431.084 145.127 431.493 146.85C432.315 150.319 432.693 154.249 432.681 156.311L432.679 156.568L432.637 156.822C432.189 159.499 431.46 162.336 429.343 165.503C427.279 168.591 424.018 171.812 418.81 175.581H418.81C406.997 184.126 386.93 195.095 362.01 202.494H362.01C331.821 211.45 308.619 213.153 292.954 211.879L292.214 211.816C286.394 211.3 281.72 210.087 278.274 208.735C276.554 208.06 275.112 207.34 273.973 206.635C272.907 205.975 271.878 205.191 271.212 204.306L271.211 204.303C270.674 203.588 269.973 202.156 269.358 200.743C268.686 199.201 267.942 197.269 267.36 195.317C266.796 193.42 266.311 191.266 266.316 189.365C266.32 188.008 266.618 185.64 268.441 184.279L268.594 183.961L269.837 183.549C271.225 183.088 272.558 183.09 273.849 183.579C274.927 183.988 275.836 184.706 276.41 185.147C277.635 186.087 279.001 187.167 281.727 187.951H281.726C287.723 189.674 298.913 189.824 312.425 188.299C325.803 186.79 341.02 183.693 354.848 179.234L355.837 178.913C366.083 175.568 377.098 171.338 386.891 166.925C397.057 162.343 405.696 157.655 410.816 153.649L411.34 153.234C416.646 148.984 418.694 145.814 419.679 143.86C419.944 143.335 420.147 142.866 420.332 142.427C420.492 142.043 420.708 141.505 420.914 141.082C421.117 140.665 421.496 139.948 422.18 139.361C422.996 138.66 423.961 138.375 424.907 138.389H424.907C424.908 138.389 424.908 138.389 424.909 138.389L424.909 138.389ZM425.098 146.897C423.594 149.824 420.799 153.778 414.584 158.643V158.643C408.857 163.125 399.661 168.056 389.393 172.684C379.066 177.338 367.442 181.779 356.714 185.238C342.468 189.833 326.851 193.009 313.106 194.559C299.496 196.094 287.277 196.09 280.047 194.013H280.047C276.189 192.903 274.079 191.244 272.689 190.177C272.635 190.136 272.584 190.098 272.536 190.062C272.625 190.968 272.878 192.145 273.278 193.489C273.77 195.142 274.418 196.829 275.01 198.191C275.306 198.869 275.578 199.446 275.8 199.88C275.991 200.254 276.099 200.432 276.124 200.476C276.165 200.514 276.451 200.799 277.184 201.252C277.957 201.731 279.059 202.293 280.497 202.857C283.368 203.983 287.47 205.074 292.75 205.541H292.751C307.527 206.852 330.211 205.368 360.28 196.447C384.537 189.245 403.978 178.585 415.229 170.446C420.12 166.907 422.739 164.192 424.231 161.959C425.612 159.893 426.134 158.089 426.495 156.028C426.473 154.403 426.156 151.175 425.481 148.328C425.359 147.811 425.23 147.333 425.098 146.897Z" fill="#26201D"/>
<path d="M278.188 302.785C273.862 330.16 271.737 380.125 272.238 407.712C272.761 436.26 272.182 441.073 270.481 445.644C268.18 451.829 260.304 455.776 254.764 466.716C249.224 477.655 247.763 492.747 260.198 500.613C273.678 509.138 344.218 508.206 356.11 492.476C368.002 476.738 367.324 451.088 369.865 431.498C371.538 418.57 377.918 408.416 388.652 407.895C399.062 407.389 406.084 414.777 409.331 428.409C413.735 446.899 412.471 478.286 420.58 486.716C432.959 499.585 470.752 500.26 499.236 497.252C527.212 494.303 531.779 479.732 528.942 464.14C526.217 449.173 512.723 441.616 508.263 434.029C503.711 426.282 503.175 408.966 497.218 358.95C492.56 319.793 478.685 249.423 478.396 232.556C478.127 216.847 479.214 201.021 481.91 169.333C484.098 143.624 481.508 112.434 469.164 88.7066C459.326 69.7992 444.392 61.4571 432.578 64.4799C415.965 68.7354 412.175 83.3433 414.335 101.502C416.367 118.598 427.984 153.448 425.281 168.064" fill="white"/>
<path d="M431.827 61.4256C445.546 57.9155 461.506 67.5895 471.66 86.7766L471.899 87.2318V87.2322C484.632 111.709 487.207 143.588 484.993 169.604C482.295 201.312 481.224 216.98 481.489 232.5C481.557 236.474 482.443 243.828 483.863 253.446C485.273 262.994 487.175 274.567 489.219 286.869C493.3 311.424 497.95 338.899 500.29 358.571L500.835 363.19C503.486 385.795 504.973 401.065 506.336 411.941C507.803 423.64 509.034 429.205 510.918 432.412L511.095 432.703C512.012 434.171 513.399 435.753 515.202 437.625C517.031 439.524 519.357 441.789 521.526 444.18C525.884 448.983 530.324 455.03 531.911 463.177L531.984 463.566C533.473 471.751 533.149 480.33 528.141 487.297C523.126 494.274 513.972 498.864 499.557 500.384L499.557 500.385C485.182 501.903 468.398 502.5 453.58 501.073C446.172 500.36 439.169 499.133 433.166 497.22C427.205 495.32 421.975 492.663 418.374 488.92C415.742 486.184 414.141 481.941 413.024 477.418C411.881 472.787 411.123 467.322 410.496 461.69C409.218 450.21 408.469 438.141 406.328 429.152C404.784 422.669 402.42 418.025 399.506 415.089C396.764 412.328 393.386 410.918 389.209 411.025L388.802 411.04C380.408 411.448 374.547 419.431 372.933 431.91L372.932 431.91C372.308 436.726 371.88 441.918 371.398 447.361C370.918 452.768 370.386 458.389 369.553 463.91C367.895 474.892 364.994 485.885 358.562 494.396L358.562 494.397C356.66 496.913 353.774 498.912 350.469 500.53C347.127 502.166 343.129 503.522 338.755 504.637C330.006 506.868 319.443 508.211 308.917 508.785C298.381 509.359 287.771 509.167 278.9 508.284C274.467 507.843 270.42 507.224 267.011 506.425C263.767 505.665 260.876 504.692 258.771 503.412L258.569 503.288C251.423 498.768 248.228 492.072 247.661 485.076C247.104 478.211 249.062 471.111 252.018 465.272C255.001 459.383 258.613 455.394 261.61 452.215C264.762 448.873 266.72 446.871 267.592 444.528H267.592C269.033 440.656 269.676 436.563 269.149 407.77V407.77C268.646 380.077 270.772 329.909 275.138 302.285C275.409 300.568 276.996 299.4 278.682 299.676C280.367 299.952 281.514 301.569 281.242 303.286C276.956 330.409 274.833 380.172 275.332 407.653L275.377 410.24C275.816 436.302 275.274 441.655 273.375 446.76C271.946 450.601 268.816 453.666 266.069 456.578C263.168 459.655 260.072 463.109 257.514 468.159C254.931 473.26 253.387 479.176 253.824 484.558C254.25 489.809 256.543 494.592 261.831 497.937C263.081 498.727 265.261 499.552 268.397 500.287C271.472 501.007 275.241 501.592 279.502 502.016C288.021 502.864 298.316 503.055 308.586 502.496C318.867 501.935 329.011 500.629 337.254 498.527C341.376 497.476 344.945 496.246 347.79 494.853C350.671 493.443 352.591 491.971 353.662 490.555C359.123 483.328 361.829 473.627 363.44 462.953C364.242 457.645 364.76 452.197 365.239 446.794C365.715 441.425 366.156 436.065 366.802 431.087L366.887 430.461C368.749 417.327 375.636 405.374 388.507 404.749L388.79 404.737C394.714 404.519 399.823 406.55 403.854 410.611C407.865 414.651 410.635 420.517 412.338 427.667C414.6 437.167 415.422 450.036 416.64 460.98C417.262 466.56 417.983 471.678 419.021 475.881C420.086 480.191 421.369 483.033 422.791 484.512C425.38 487.204 429.516 489.457 435.013 491.209C440.468 492.948 447.014 494.115 454.162 494.803C468.456 496.179 484.811 495.61 498.92 494.12L498.92 494.12C512.481 492.69 519.598 488.52 523.151 483.576C526.711 478.623 527.251 472.121 525.903 464.714L525.845 464.405C524.586 457.931 521.036 452.921 516.984 448.454C514.882 446.137 512.829 444.155 510.787 442.035C508.841 440.014 506.932 437.891 505.612 435.647L505.612 435.646C502.944 431.105 501.631 424.138 500.202 412.739C498.761 401.242 497.11 384.177 494.151 359.329V359.329C491.833 339.843 487.216 312.555 483.122 287.92C481.079 275.625 479.167 263.996 477.748 254.382C476.339 244.839 475.383 237.071 475.306 232.611V232.61C475.035 216.714 476.138 200.73 478.832 169.061C480.994 143.66 478.389 113.16 466.435 90.1808V90.1812C456.899 71.8555 443.135 65.0262 433.334 67.5341L433.333 67.5337C425.913 69.4345 421.608 73.5164 419.254 79.0325C416.893 84.5645 416.386 91.8142 417.312 100.299L417.406 101.124L417.506 101.918C418.605 110.249 421.818 122.507 424.601 135.017C426.017 141.38 427.303 147.75 428.063 153.48C428.813 159.145 429.092 164.476 428.321 168.646C428.005 170.355 426.388 171.48 424.71 171.158C423.032 170.836 421.928 169.19 422.245 167.48C422.825 164.343 422.665 159.837 421.935 154.322C421.212 148.874 419.975 142.722 418.57 136.409C415.802 123.97 412.309 110.642 411.267 101.881L411.168 101.008C410.184 92.0106 410.608 83.4941 413.583 76.5218C416.737 69.1306 422.633 63.7804 431.826 61.4256H431.827Z" fill="#26201D"/>
<path d="M374.132 185.706C373.073 181.334 371.563 178.773 369.269 177.929C366.256 176.821 360.744 178.722 354.59 180.549C347.511 182.654 342.733 183.593 341.251 185.369C339.621 187.321 340.256 191.18 341.611 196.279C342.783 200.681 343.594 202.552 345.655 203.528C347.984 204.636 352.515 203.814 361.612 201.055C370.589 198.333 374.386 196.859 375.092 194.885C375.798 192.911 375.339 190.71 374.132 185.706ZM371.203 194.181C370.575 195.633 364.851 197.409 359.629 198.957C354.406 200.505 349.706 201.422 348.231 200.593C347.088 199.955 346.248 199.566 345.309 196.25C345.239 196 351.096 194.76 351.456 194.034C351.802 193.337 351.527 191.994 350.638 191.635C349.882 191.327 344.617 193.513 344.533 193.176C343.707 189.683 343.615 188.59 344.229 187.526C345.154 185.919 349.939 184.833 355.401 183.315C361.125 181.722 365.811 180.49 367.477 181.334C369.142 182.177 369.728 184.019 370.631 187.108C371.535 190.197 371.845 192.728 371.217 194.181H371.203Z" fill="#FFF597"/>
<path d="M361.78 171.987C364.233 171.438 367.8 170.818 371.055 171.895L371.369 172.005L371.37 172.005C376.872 174.029 379.028 179.623 380.136 184.199L380.138 184.204C380.719 186.613 381.233 188.787 381.464 190.639C381.714 192.646 381.708 194.787 380.903 197.04C380.182 199.055 378.849 200.423 377.679 201.324C376.525 202.212 375.202 202.898 373.918 203.466C371.365 204.596 367.824 205.743 363.377 207.092C358.795 208.481 355.054 209.481 352.06 209.963C349.286 210.409 345.985 210.632 343.048 209.239V209.239C343.047 209.239 343.046 209.238 343.045 209.237C343.043 209.237 343.041 209.236 343.039 209.235V209.234C338.032 206.858 336.705 201.919 335.643 197.927L335.642 197.924C334.954 195.335 334.311 192.584 334.142 190.075C333.983 187.716 334.133 184.173 336.54 181.289C337.736 179.857 339.221 179.001 340.315 178.472C341.472 177.913 342.752 177.461 343.979 177.07C346.219 176.358 349.727 175.434 352.857 174.503L352.86 174.502C355.734 173.649 358.987 172.612 361.78 171.987ZM369.27 177.929C366.256 176.821 360.744 178.721 354.59 180.548C347.511 182.654 342.734 183.593 341.251 185.369C339.621 187.32 340.256 191.18 341.611 196.279C342.783 200.681 343.595 202.552 345.655 203.528C347.984 204.636 352.516 203.814 361.612 201.055C370.589 198.334 374.386 196.859 375.092 194.885C375.798 192.911 375.339 190.71 374.132 185.706C373.074 181.333 371.563 178.773 369.27 177.929ZM355.402 183.314C361.125 181.722 365.811 180.49 367.477 181.334C369.143 182.177 369.728 184.019 370.632 187.108C371.535 190.197 371.846 192.728 371.218 194.181H371.203C370.575 195.633 364.852 197.409 359.629 198.957C354.407 200.505 349.706 201.422 348.231 200.593C347.088 199.955 346.248 199.566 345.31 196.25C345.239 196 351.097 194.76 351.457 194.034C351.792 193.359 351.544 192.077 350.72 191.671L350.638 191.635C349.883 191.327 344.618 193.513 344.533 193.175C343.707 189.683 343.616 188.59 344.23 187.526C345.154 185.919 349.939 184.833 355.402 183.314ZM364.105 187.6C362.298 187.947 359.94 188.581 357.031 189.39L357.03 189.391C356.97 189.407 356.909 189.423 356.849 189.44C357.115 189.959 357.306 190.463 357.437 190.91C357.61 191.502 357.739 192.195 357.774 192.946C357.816 192.934 357.859 192.922 357.901 192.91C360.538 192.128 363.064 191.357 364.984 190.63C365.035 190.61 365.084 190.591 365.133 190.572C365.031 190.095 364.891 189.54 364.705 188.906C364.551 188.378 364.421 187.941 364.303 187.563C364.239 187.575 364.173 187.587 364.105 187.6Z" fill="#26201D"/>
<path d="M436.041 88.9661C437.81 87.8634 441.363 86.7275 444.572 87.3456H444.58C447.79 87.9637 450.167 89.5592 452.255 91.756C454.68 94.3037 456.633 97.8205 456.113 101.421C455.913 102.799 454.729 105.021 452.944 105.982C451.263 106.875 448.574 107.126 446.862 106.299C445.149 105.472 444.396 103.685 443.244 103.843C442.02 104.011 441.755 107.276 439.451 108.462C437.682 109.373 434.713 109.966 432.264 108.204C430.455 106.909 429.462 103.684 429.606 100.961C429.742 98.3884 430.375 96.5674 431.447 94.2454C432.335 92.3158 434.28 90.0603 436.041 88.9661ZM424.694 87.143C425.733 86.1131 427.701 86.1131 428.494 87.2127V87.2217C429.278 88.3215 429.806 89.8663 429.508 91.3152C429.287 92.3801 428.793 93.4715 427.855 93.9952C426.858 94.5539 425.537 94.3005 424.694 93.5237C423.85 92.7468 423.458 91.5334 423.518 90.3725C423.577 89.2116 423.876 87.946 424.694 87.143ZM451.054 79.6609C453.238 79.4555 454.66 82.0567 454.96 83.4063C455.261 84.7557 454.86 86.2322 453.799 86.7994C453.198 87.1221 452.206 87.3469 450.924 86.9851C449.642 86.6233 448.42 85.4988 448.24 83.8364C448.059 82.174 448.911 79.8566 451.054 79.6609ZM431.006 75.7011C431.969 75.2037 433.162 75.0311 434.304 75.9549V75.9451C435.447 76.8689 436.063 78.6454 436.341 80.422C436.589 82.0057 436.341 83.8332 435.596 84.9398C434.851 86.0464 433.39 86.5439 431.9 86.3307C430.41 86.1175 429.446 84.8991 429.039 83.8331C428.631 82.7672 428.343 81.549 428.492 80.4019C428.81 77.8536 429.943 76.2493 431.006 75.7011ZM439.068 74.8109C439.501 74.0703 440.731 73.0931 442.246 73.3606L442.256 73.3708C444.479 73.7617 445.631 75.9015 446.162 78.2159C446.545 79.9029 446.152 81.2093 445.65 82.0219C445.129 82.8757 443.997 83.4312 442.964 83.5854C442 83.7191 440.711 83.2459 440.042 82.5156C438.822 81.1784 438.271 78.9771 438.34 77.1359C438.37 76.3335 438.842 75.1915 439.068 74.8109Z" fill="#FFADA5"/>
</g>
</svg>
